<?xml version="1.0" encoding="utf-8"?>
<!-- Generator: Adobe Illustrator 27.5.0, SVG Export Plug-In . SVG Version: 6.00 Build 0)  -->
<svg version="1.1" xmlns="http://www.w3.org/2000/svg" xmlns:xlink="http://www.w3.org/1999/xlink" x="0px" y="0px"
	 viewBox="0 0 750 500" style="enable-background:new 0 0 750 500;" xml:space="preserve">
<g id="Background_Complete">
	<g>
		<g>
			<g>
				<g>
					<g>
						<g>
							<g>
								<rect x="61.284" y="198.025" style="fill:#EBEBEB;" width="73.822" height="18.875"/>
							</g>
						</g>
					</g>
				</g>
			</g>
		</g>
		<g>
			<g>
				<g>
					<g>
						<g>
							<g>
								<g>
									<path style="fill:#E0E0E0;" d="M103.89,236.782c-0.008-0.007-0.015-0.123-0.023-0.343
										c-0.006-0.252-0.014-0.571-0.024-0.968c-0.013-0.888-0.032-2.127-0.055-3.714c-0.03-3.259-0.073-7.943-0.126-13.85
										l0.229,0.221c-16.856,0.033-43.662,0.084-73.817,0.143c0.166-0.162-0.379,0.363,0.372-0.363v0.005v0.009v0.019v0.038v0.076
										v0.152v0.303l0,0.607v1.21c0,0.805,0,1.608,0,2.408c0,1.6-0.001,3.188-0.001,4.763c-0.002,3.15-0.004,6.249-0.006,9.284
										l-0.368-0.355c21.021,0.064,39.414,0.121,52.607,0.162c6.571,0.043,11.844,0.077,15.528,0.101
										c1.791,0.02,3.195,0.036,4.199,0.047c0.452,0.009,0.814,0.017,1.098,0.023C103.751,236.766,103.882,236.774,103.89,236.782
										c0.008,0.008-0.108,0.015-0.342,0.023c-0.273,0.006-0.62,0.013-1.053,0.023c-0.985,0.011-2.362,0.027-4.119,0.047
										c-3.663,0.024-8.908,0.058-15.443,0.101c-13.257,0.04-31.74,0.097-52.864,0.162l-0.368,0.001l0-0.357
										c-0.002-3.035-0.004-6.134-0.006-9.284c0-1.575-0.001-3.163-0.001-4.763c0-0.8,0-1.603,0-2.408v-1.21v-0.607v-0.303v-0.152
										v-0.076v-0.038v-0.019v-0.009v-0.005c0.753-0.728,0.211-0.202,0.381-0.364c30.155,0.058,56.961,0.11,73.817,0.142
										l0.231,0.001l-0.002,0.221c-0.054,5.962-0.097,10.692-0.126,13.981c-0.024,1.567-0.042,2.789-0.055,3.665
										c-0.01,0.381-0.018,0.687-0.024,0.929C103.905,236.688,103.898,236.789,103.89,236.782z"/>
								</g>
							</g>
						</g>
					</g>
				</g>
			</g>
		</g>
	</g>
	<g>
		<g>
			<g>
				<g>
					<g>
						<g>
							<g>
								<g>
									<path style="fill:#E0E0E0;" d="M621.273,91.41c-0.008-0.008-0.016-0.139-0.025-0.387c-0.007-0.286-0.015-0.645-0.026-1.094
										c-0.015-1.003-0.035-2.402-0.06-4.195c-0.032-3.68-0.079-8.971-0.137-15.641l0.248,0.25
										c-18.279,0.037-47.351,0.095-80.054,0.161c0.18-0.183-0.412,0.41,0.403-0.41v0.005v0.011v0.021v0.043v0.086v0.171v0.343
										v0.685v1.367c0,0.91,0,1.816,0,2.719c-0.001,1.807-0.001,3.601-0.002,5.38c-0.002,3.558-0.004,7.057-0.007,10.485
										l-0.399-0.401c22.797,0.073,42.745,0.137,57.053,0.183c7.127,0.049,12.845,0.088,16.84,0.115
										c1.943,0.022,3.465,0.04,4.554,0.053c0.49,0.01,0.882,0.019,1.191,0.025C621.122,91.393,621.264,91.402,621.273,91.41
										c0.009,0.009-0.117,0.017-0.37,0.026c-0.296,0.007-0.672,0.015-1.142,0.026c-1.068,0.013-2.561,0.03-4.468,0.053
										c-3.972,0.027-9.66,0.066-16.748,0.114c-14.377,0.046-34.422,0.11-57.331,0.183l-0.399,0.001l0-0.403
										c-0.002-3.428-0.004-6.927-0.007-10.485c0-1.779-0.001-3.573-0.001-5.38c0-0.903,0-1.81,0-2.719l0-1.367v-0.685v-0.343
										V70.26v-0.086v-0.043V70.11v-0.011v-0.005c0.816-0.822,0.229-0.228,0.413-0.411c32.703,0.066,61.775,0.124,80.054,0.161
										l0.251,0l-0.002,0.25c-0.059,6.734-0.105,12.074-0.137,15.79c-0.026,1.769-0.046,3.149-0.06,4.139
										c-0.011,0.431-0.019,0.776-0.026,1.05C621.289,91.305,621.281,91.419,621.273,91.41z"/>
								</g>
							</g>
						</g>
					</g>
				</g>
			</g>
		</g>
		<g>
			<g>
				<g>
					<g>
						<g>
							<g>
								<g>
									<path style="fill:#E0E0E0;" d="M632.128,70.093c-0.01-0.01-0.021-0.148-0.031-0.406c-0.008-0.306-0.019-0.677-0.032-1.13
										c-0.018-1.049-0.042-2.475-0.073-4.274c-0.038-3.738-0.092-9.016-0.158-15.507l0.293,0.295
										c-12.461,0.03-29.414,0.071-48.099,0.116c-0.366,0.367,0.493-0.5,0.405-0.409v0.005v0.011v0.022v0.044v0.088v0.176v0.35
										v0.699l0,1.394c0,0.927,0,1.848-0.001,2.765c-0.001,1.832-0.003,3.642-0.004,5.425c-0.005,3.566-0.01,7.024-0.014,10.336
										l-0.388-0.391c13.886,0.075,25.842,0.139,34.41,0.186c4.226,0.045,7.613,0.082,10.023,0.108
										c1.126,0.02,2.022,0.037,2.703,0.049C631.781,70.061,632.112,70.077,632.128,70.093c0.016,0.016-0.283,0.032-0.873,0.048
										c-0.66,0.012-1.53,0.029-2.622,0.049c-2.389,0.026-5.746,0.062-9.935,0.108c-8.633,0.046-20.68,0.11-34.672,0.186
										l-0.388,0.002l-0.001-0.393c-0.005-3.313-0.01-6.77-0.015-10.336c-0.001-1.783-0.003-3.593-0.004-5.425
										c0-0.917,0-1.838-0.001-2.765l0-1.394v-0.699v-0.35v-0.176v-0.088v-0.044v-0.022v-0.011v-0.005
										c-0.089,0.087,0.774-0.78,0.411-0.413c18.685,0.045,35.638,0.086,48.099,0.116l0.297,0.001l-0.003,0.295
										c-0.066,6.566-0.12,11.906-0.158,15.687c-0.031,1.771-0.055,3.175-0.073,4.208
										C632.168,69.625,632.148,70.114,632.128,70.093z"/>
								</g>
							</g>
						</g>
					</g>
				</g>
			</g>
		</g>
	</g>
	<g>
		<g>
			<g>
				<g>
					<g>
						<g>
							<g>
								<rect x="359.922" y="64.405" style="fill:#EBEBEB;" width="73.822" height="18.875"/>
							</g>
						</g>
					</g>
				</g>
			</g>
		</g>
		<g>
			<g>
				<g>
					<g>
						<g>
							<g>
								<g>
									<path style="fill:#E0E0E0;" d="M402.528,103.162c-0.008-0.007-0.015-0.123-0.023-0.343
										c-0.006-0.252-0.014-0.571-0.024-0.968c-0.013-0.888-0.031-2.127-0.055-3.714c-0.03-3.259-0.073-7.943-0.126-13.85
										l0.229,0.221c-16.856,0.033-43.662,0.084-73.817,0.143c0.166-0.162-0.379,0.363,0.372-0.363v0.005v0.009v0.019v0.038v0.076
										v0.152v0.303l0,0.607v1.21c0,0.805,0,1.608-0.001,2.408c0,1.6-0.001,3.188-0.001,4.763
										c-0.002,3.151-0.004,6.249-0.006,9.284l-0.368-0.355c21.021,0.064,39.414,0.121,52.607,0.161
										c6.571,0.043,11.845,0.077,15.528,0.101c1.791,0.02,3.195,0.036,4.199,0.047c0.452,0.009,0.814,0.017,1.098,0.023
										C402.389,103.147,402.52,103.155,402.528,103.162c0.008,0.008-0.108,0.015-0.342,0.023
										c-0.273,0.006-0.62,0.013-1.053,0.023c-0.985,0.011-2.362,0.027-4.12,0.047c-3.663,0.024-8.908,0.058-15.443,0.101
										c-13.257,0.04-31.74,0.097-52.864,0.162l-0.368,0.001l0-0.357c-0.002-3.035-0.004-6.134-0.006-9.284
										c0-1.575-0.001-3.163-0.001-4.763c0-0.8,0-1.603,0-2.408v-1.21V84.89v-0.303v-0.152v-0.076v-0.038v-0.019v-0.009v-0.005
										c0.753-0.728,0.211-0.202,0.381-0.364c30.155,0.058,56.961,0.11,73.817,0.142l0.231,0.001l-0.002,0.221
										c-0.054,5.962-0.097,10.692-0.126,13.981c-0.024,1.567-0.042,2.789-0.055,3.665c-0.01,0.381-0.018,0.687-0.024,0.929
										C402.543,103.069,402.536,103.17,402.528,103.162z"/>
								</g>
							</g>
						</g>
					</g>
				</g>
			</g>
		</g>
	</g>
	<g>
		<g>
			<g>
				<g>
					<g>
						<g>
							<g>
								<rect x="552.536" y="317.658" style="fill:#EBEBEB;" width="73.822" height="18.875"/>
							</g>
						</g>
					</g>
				</g>
			</g>
		</g>
		<g>
			<g>
				<g>
					<g>
						<g>
							<g>
								<g>
									<path style="fill:#E0E0E0;" d="M595.142,356.415c-0.008-0.007-0.015-0.123-0.023-0.343
										c-0.006-0.252-0.014-0.571-0.024-0.968c-0.013-0.888-0.032-2.127-0.055-3.715c-0.03-3.259-0.073-7.943-0.126-13.85
										l0.229,0.221c-16.856,0.033-43.662,0.084-73.817,0.143c0.166-0.162-0.379,0.363,0.372-0.363v0.005v0.009v0.019v0.038v0.076
										v0.152v0.303l0,0.607v1.21c0,0.805,0,1.608,0,2.408c0,1.6-0.001,3.188-0.001,4.763c-0.002,3.151-0.004,6.249-0.006,9.284
										l-0.368-0.355c21.021,0.064,39.414,0.121,52.607,0.161c6.571,0.043,11.844,0.077,15.528,0.101
										c1.792,0.02,3.195,0.036,4.199,0.047c0.452,0.009,0.814,0.017,1.098,0.023C595.003,356.4,595.134,356.407,595.142,356.415
										c0.008,0.008-0.108,0.015-0.342,0.023c-0.273,0.006-0.62,0.013-1.053,0.023c-0.985,0.011-2.362,0.027-4.119,0.047
										c-3.663,0.024-8.908,0.058-15.443,0.101c-13.257,0.04-31.74,0.097-52.864,0.162l-0.368,0.001l0-0.357
										c-0.002-3.035-0.004-6.134-0.006-9.284c0-1.575-0.001-3.164-0.002-4.763c0-0.8,0-1.603,0-2.408v-1.21v-0.607v-0.303v-0.152
										v-0.076v-0.038v-0.019v-0.009v-0.005c0.753-0.728,0.211-0.202,0.381-0.364c30.155,0.058,56.961,0.11,73.817,0.142l0.231,0
										l-0.002,0.221c-0.054,5.962-0.097,10.691-0.127,13.981c-0.023,1.567-0.042,2.789-0.055,3.665
										c-0.01,0.381-0.018,0.687-0.024,0.929C595.158,356.322,595.15,356.422,595.142,356.415z"/>
								</g>
							</g>
						</g>
					</g>
				</g>
			</g>
		</g>
	</g>
	<g>
		<g>
			<g>
				<g>
					<g>
						<g>
							<g>
								<g>
									<path style="fill:#E0E0E0;" d="M208.919,69.655c-0.008-0.008-0.016-0.134-0.024-0.374
										c-0.006-0.276-0.015-0.622-0.025-1.055c-0.014-0.968-0.033-2.317-0.058-4.047c-0.031-3.551-0.076-8.655-0.133-15.091
										l0.239,0.241c-17.636,0.035-45.685,0.092-77.237,0.155c0.174-0.176-0.397,0.395,0.389-0.396v0.005v0.01v0.021v0.042v0.083
										v0.165v0.331v0.661v1.319c0,0.877,0,1.752,0,2.624c-0.001,1.743-0.001,3.474-0.002,5.19
										c-0.002,3.433-0.004,6.809-0.007,10.116l-0.385-0.387c21.995,0.07,41.241,0.132,55.045,0.176
										c6.876,0.047,12.393,0.084,16.247,0.11c1.874,0.022,3.343,0.039,4.393,0.051c0.473,0.01,0.851,0.018,1.149,0.024
										C208.773,69.638,208.911,69.647,208.919,69.655c0.008,0.008-0.113,0.017-0.357,0.025c-0.286,0.006-0.648,0.014-1.102,0.025
										c-1.031,0.012-2.471,0.029-4.311,0.051c-3.833,0.026-9.32,0.064-16.159,0.11c-13.871,0.044-33.211,0.106-55.314,0.176
										l-0.385,0.001l0-0.389c-0.002-3.307-0.004-6.684-0.007-10.116c0-1.716-0.001-3.447-0.001-5.19c0-0.871,0-1.746,0-2.624
										l0-1.319v-0.661v-0.331v-0.165v-0.083v-0.042v-0.021v-0.01v-0.005c0.787-0.793,0.221-0.22,0.398-0.397
										c31.552,0.063,59.601,0.119,77.237,0.155l0.242,0l-0.002,0.241c-0.057,6.497-0.101,11.65-0.132,15.234
										c-0.025,1.707-0.044,3.039-0.058,3.994c-0.01,0.415-0.018,0.748-0.025,1.013C208.935,69.553,208.927,69.663,208.919,69.655
										z"/>
								</g>
							</g>
						</g>
					</g>
				</g>
			</g>
		</g>
	</g>
	<g>
		<g>
			<g>
				<g>
					<g>
						<g>
							<g>
								<g>
									<path style="fill:#E0E0E0;" d="M731.859,175.369c-0.008-0.008-0.016-0.134-0.024-0.374
										c-0.006-0.275-0.015-0.622-0.025-1.055c-0.014-0.967-0.033-2.317-0.058-4.047c-0.031-3.551-0.076-8.655-0.133-15.091
										l0.239,0.241c-17.636,0.035-45.685,0.092-77.238,0.155c0.174-0.176-0.397,0.395,0.389-0.395v0.005v0.01v0.021v0.042v0.083
										v0.165v0.331v0.661v1.319c0,0.877,0,1.752,0,2.623c-0.001,1.743-0.001,3.474-0.002,5.19
										c-0.002,3.433-0.004,6.809-0.007,10.116l-0.385-0.387c21.995,0.07,41.241,0.132,55.045,0.176
										c6.876,0.047,12.393,0.084,16.247,0.111c1.875,0.022,3.343,0.039,4.393,0.051c0.473,0.01,0.851,0.018,1.149,0.024
										C731.713,175.352,731.85,175.361,731.859,175.369c0.009,0.008-0.113,0.017-0.357,0.025
										c-0.286,0.006-0.648,0.014-1.102,0.025c-1.031,0.012-2.471,0.029-4.311,0.051c-3.833,0.026-9.32,0.064-16.159,0.11
										c-13.872,0.044-33.211,0.106-55.314,0.176l-0.385,0.001l0-0.389c-0.002-3.307-0.004-6.684-0.007-10.116
										c0-1.716-0.001-3.447-0.001-5.19c0-0.871,0-1.746,0-2.623l0-1.319v-0.661v-0.331v-0.165v-0.083v-0.042v-0.021v-0.01v-0.005
										c0.787-0.793,0.221-0.22,0.398-0.397c31.552,0.064,59.602,0.12,77.238,0.155l0.242,0l-0.002,0.241
										c-0.057,6.497-0.101,11.65-0.132,15.234c-0.025,1.707-0.044,3.039-0.058,3.994c-0.01,0.415-0.018,0.748-0.025,1.013
										C731.875,175.267,731.867,175.377,731.859,175.369z"/>
								</g>
							</g>
						</g>
					</g>
				</g>
			</g>
		</g>
	</g>
	<g>
		<g>
			<g>
				<g>
					<g>
						<g>
							<g>
								<g>
									<path style="fill:#E0E0E0;" d="M221.423,352.444c-0.008-0.008-0.016-0.134-0.024-0.373
										c-0.006-0.276-0.015-0.622-0.025-1.055c-0.014-0.967-0.033-2.317-0.058-4.047c-0.031-3.551-0.076-8.655-0.132-15.091
										l0.239,0.241c-17.636,0.035-45.685,0.092-77.237,0.155c0.174-0.176-0.397,0.395,0.389-0.396v0.005v0.01v0.021v0.042v0.083
										v0.165v0.331v0.661v1.319c0,0.878,0,1.752,0,2.624c-0.001,1.743-0.001,3.474-0.002,5.19
										c-0.002,3.433-0.004,6.809-0.007,10.116l-0.385-0.387c21.995,0.071,41.241,0.132,55.045,0.176
										c6.876,0.047,12.393,0.084,16.247,0.111c1.874,0.022,3.343,0.039,4.393,0.051c0.473,0.01,0.851,0.018,1.149,0.024
										C221.277,352.428,221.414,352.436,221.423,352.444c0.008,0.009-0.113,0.017-0.357,0.025
										c-0.286,0.006-0.648,0.014-1.102,0.025c-1.031,0.012-2.471,0.029-4.311,0.051c-3.833,0.026-9.32,0.064-16.159,0.11
										c-13.871,0.044-33.211,0.106-55.314,0.176l-0.385,0.001l0-0.389c-0.002-3.307-0.004-6.684-0.007-10.116
										c0-1.716-0.001-3.447-0.001-5.19c0-0.871,0-1.746,0-2.624l0-1.319v-0.661v-0.331v-0.165v-0.083v-0.042v-0.021v-0.01v-0.005
										c0.787-0.793,0.221-0.22,0.398-0.397c31.552,0.064,59.601,0.12,77.237,0.155l0.242,0l-0.002,0.241
										c-0.057,6.497-0.101,11.65-0.132,15.234c-0.025,1.707-0.044,3.039-0.058,3.994c-0.01,0.416-0.018,0.748-0.025,1.013
										C221.439,352.342,221.431,352.453,221.423,352.444z"/>
								</g>
							</g>
						</g>
					</g>
				</g>
			</g>
		</g>
	</g>
	<g>
		<path style="fill:#F5F5F5;" d="M86.32,472.646l63.835-87.835l439.425,1.558c0,0,83.729,86.276,85.781,86.255L86.32,472.646z"/>
		<polygon style="fill:#E0E0E0;" points="193.236,456.668 192.263,462.04 528.338,460.929 526.116,456.668 		"/>
		<path style="fill:#E0E0E0;" d="M563.856,438.615c0,0,22.098,36.167,65.818,25.025c31.121-7.931-10.931-32.942-11.562-32.973
			C617.482,430.637,563.856,438.615,563.856,438.615"/>
	</g>
	<rect x="86.32" y="472.646" style="fill:#E0E0E0;" width="589.041" height="4.519"/>
</g>
<g id="Background_Simple" style="display:none;">
	<path style="display:inline;fill:#F5F5F5;" d="M67.285,411.569l0.465-1.074c3.922-9.057,12.4-15.358,22.154-16.077
		c1.254-0.092,2.515-0.094,3.771-0.001c9.05,0.672,17.615,6.268,21.957,14.346c2.554,4.751,3.868,10.445,7.954,13.932
		c5.317,4.539,13.159,3.626,20.003,2.466c6.845-1.16,14.694-2.054,19.992,2.509c3.318,2.857,4.866,7.357,5.234,11.745
		c0.974,11.616-5.643,23.033-15.157,29.564c-9.514,6.531-21.483,8.646-32.977,7.93c-16.103-1.003-32.196-7.626-42.996-19.79
		C66.887,444.954,62.109,427.014,67.285,411.569z"/>
	<path style="display:inline;fill:#F5F5F5;" d="M616.346,465.993l-0.691-0.945c-5.826-7.967-6.969-18.468-2.653-27.243
		c0.555-1.128,1.191-2.217,1.908-3.253c5.16-7.465,14.321-12.02,23.486-11.676c5.39,0.202,10.966,1.95,16.042,0.192
		c6.606-2.289,9.787-9.514,12.251-16.004c2.464-6.491,5.666-13.713,12.282-15.973c4.144-1.415,8.808-0.473,12.779,1.43
		c10.511,5.039,17.009,16.525,17.827,28.036c0.818,11.511-3.416,22.904-9.851,32.456c-9.015,13.38-22.872,23.908-38.83,27.065
		C644.938,483.234,627.047,478.275,616.346,465.993z"/>
	<path style="display:inline;fill:#F5F5F5;" d="M711.66,215.172l-1.423,3.285c-11.994,27.696-37.92,46.964-67.746,49.163
		c-3.834,0.283-7.69,0.289-11.534,0.003c-27.676-2.055-53.866-19.167-67.145-43.87c-7.81-14.528-11.829-31.94-24.323-42.605
		c-16.26-13.881-40.239-11.087-61.171-7.539c-20.932,3.548-44.935,6.281-61.136-7.671c-10.146-8.738-14.882-22.498-16.007-35.916
		c-2.978-35.523,17.256-70.436,46.35-90.409c29.094-19.973,65.695-26.44,100.846-24.251c49.242,3.066,98.456,23.32,131.482,60.519
		C712.878,113.08,727.489,167.94,711.66,215.172z"/>
	<circle style="display:inline;fill:#F5F5F5;" cx="162.118" cy="114.168" r="74.593"/>
</g>
<g id="Table">
	<g>
		<path style="fill:#263238;" d="M719.148,370.352c0,0.144-154.092,0.26-344.131,0.26c-190.105,0-344.164-0.117-344.164-0.26
			c0-0.144,154.059-0.26,344.164-0.26C565.055,370.092,719.148,370.208,719.148,370.352z"/>
	</g>
</g>
<g id="Plant">
	<g>
		<g>
			<path style="fill:#263238;" d="M89.561,316.593c0,0-7.809-53.685-7.158-84.919c0.651-31.235-0.038-66.374-0.038-66.374h3.598
				c0,0-2.436,61.998,0.215,99.39c2.65,37.363,9.632,51.903,9.632,51.903H89.561"/>
			<path style="fill:#455A64;" d="M112.82,104.897c-0.724-1.834-1.613-3.745-3.278-4.8c-2.283-1.447-5.275-0.845-7.823,0.056
				c-10.872,3.845-20.51,24.116-24.904,34.777l14.434,48.634C117.301,159.395,121.813,127.688,112.82,104.897z"/>
			<g>
				<path style="fill:#263238;" d="M108.7,102.065c0.019,0.008-0.054,0.227-0.21,0.634c-0.186,0.466-0.42,1.052-0.707,1.772
					c-0.633,1.53-1.521,3.756-2.582,6.518c-2.127,5.522-4.834,13.244-7.254,21.942c-2.411,8.704-4.071,16.717-5.095,22.546
					c-0.515,2.914-0.901,5.279-1.148,6.916c-0.125,0.765-0.227,1.388-0.308,1.882c-0.077,0.43-0.127,0.654-0.148,0.652
					c-0.02-0.003-0.01-0.232,0.029-0.667c0.052-0.499,0.117-1.127,0.197-1.899c0.176-1.648,0.5-4.026,0.962-6.955
					c0.92-5.857,2.52-13.907,4.937-22.635c2.427-8.722,5.205-16.444,7.436-21.937c1.113-2.748,2.062-4.952,2.76-6.456
					c0.329-0.702,0.597-1.274,0.81-1.729C108.571,102.258,108.681,102.057,108.7,102.065z"/>
			</g>
			<path style="fill:#455A64;" d="M84.834,195.225c-13.529-7.475-21.503-21.539-22.246-36.978
				c-0.52-10.793,2.795-21.383,6.553-31.514c0.326-0.879,0.713-1.826,1.528-2.288c1.135-0.643,2.555-0.071,3.688,0.575
				c9.831,5.598,15.787,16.271,18.957,27.131c2.109,7.226,3.201,14.846,2.225,22.31C94.563,181.926,90.296,190.047,84.834,195.225"
				/>
			<g>
				<path style="fill:#263238;" d="M84.834,195.225c-0.021-0.001-0.038-0.225-0.053-0.652c-0.009-0.493-0.021-1.11-0.036-1.867
					c-0.004-1.62-0.07-3.964-0.203-6.856c-0.26-5.784-1.019-13.757-2.511-22.467c-1.501-8.711-3.322-16.512-4.664-22.149
					c-0.662-2.759-1.204-5.02-1.601-6.676c-0.169-0.738-0.307-1.34-0.417-1.82c-0.089-0.418-0.126-0.64-0.106-0.645
					c0.02-0.005,0.096,0.207,0.222,0.615c0.138,0.473,0.312,1.066,0.525,1.793c0.445,1.56,1.059,3.825,1.786,6.633
					c1.447,5.616,3.337,13.415,4.842,22.151c1.497,8.734,2.192,16.747,2.345,22.551c0.079,2.902,0.081,5.252,0.014,6.874
					c-0.031,0.757-0.056,1.375-0.076,1.867C84.876,195.002,84.854,195.226,84.834,195.225z"/>
			</g>
			<g style="opacity:0.3;">
				<path d="M84.834,195.225c-13.529-7.475-21.503-21.539-22.246-36.978c-0.52-10.793,2.795-21.383,6.553-31.514
					c0.326-0.879,0.713-1.826,1.528-2.288c1.135-0.643,2.555-0.071,3.688,0.575c9.831,5.598,15.787,16.271,18.957,27.131
					c2.109,7.226,3.201,14.846,2.225,22.31C94.563,181.926,90.296,190.047,84.834,195.225"/>
			</g>
			<path style="fill:#455A64;" d="M100.097,277.366c13.316,2.925,24.279,12.317,37.125,16.884c8.499,3.021,18.11,4.09,24.896,10.033
				c-1.628-4.111-5.488-6.849-9.239-9.192c-10.564-6.598-21.876-11.999-33.649-16.064c-6.044-2.087-12.601-3.83-18.759-2.112"/>
			<path style="fill:#455A64;" d="M80.846,289.228c-16.675-0.269-34.233-14.466-50.832-15.313
				C47.384,268.307,72.255,272.888,80.846,289.228"/>
			<path style="fill:#455A64;" d="M87.361,249.226c8.468-3.052,17.765-3.197,26.659-1.814c8.894,1.383,17.484,4.234,26.026,7.074
				c-0.856-5.786-5.541-10.136-9.943-13.987c-3.312-2.898-6.65-5.814-10.451-8.033c-3.8-2.219-8.136-3.722-12.533-3.536
				c-5.304,0.225-10.354,2.961-13.833,6.972C89.808,239.913,87.937,243.949,87.361,249.226"/>
			<path style="fill:#455A64;" d="M53.137,230.815c-10.497-8.962-26.397-8.086-40.196-7.775
				c21.212,10.142,44.069,24.046,62.338,38.847C75.84,252.132,66.397,242.135,53.137,230.815z"/>
			<g style="opacity:0.3;">
				<path d="M53.137,230.815c-10.497-8.962-26.397-8.086-40.196-7.775c21.212,10.142,44.069,24.046,62.338,38.847
					C75.84,252.132,66.397,242.135,53.137,230.815z"/>
			</g>
			<path style="fill:#455A64;" d="M92.082,218.444c5.278-3.519,10.618-6.873,16.143-9.383c5.525-2.51,10.68-6.509,16.016-9.399
				c6.919-3.747,12.914-8.955,19.265-13.6c6.351-4.645,13.328-8.838,21.099-10.068c-6.338-1.308-12.959-0.594-19.202,1.11
				c-6.243,1.705-12.173,4.373-18.073,7.031c-8.189,3.689-16.519,7.469-23.213,13.457C97.425,203.581,91.375,209.49,92.082,218.444"
				/>
			<g>
				<path style="fill:#263238;" d="M136.917,289.228c-0.01,0.018-0.192-0.061-0.528-0.228c-0.394-0.204-0.874-0.453-1.455-0.754
					c-1.256-0.668-3.059-1.659-5.329-2.8c-1.124-0.593-2.369-1.213-3.721-1.847c-1.338-0.664-2.791-1.32-4.33-1.985
					c-3.079-1.315-6.518-2.688-10.268-3.578c-3.739-0.918-7.464-1.119-10.697-0.269c-1.631,0.394-3.166,0.783-4.532,1.353
					c-1.371,0.556-2.594,1.205-3.659,1.878c-2.137,1.345-3.629,2.771-4.598,3.798c-0.966,1.035-1.436,1.668-1.479,1.636
					c-0.017-0.012,0.087-0.18,0.299-0.491c0.208-0.313,0.546-0.754,1.007-1.3c0.925-1.085,2.395-2.581,4.542-3.997
					c1.07-0.708,2.306-1.393,3.699-1.981c1.391-0.604,2.961-1.021,4.593-1.43c3.303-0.903,7.175-0.711,10.96,0.223
					c3.809,0.906,7.265,2.305,10.351,3.655c1.542,0.683,2.994,1.358,4.327,2.044c1.348,0.656,2.586,1.299,3.699,1.917
					c2.251,1.192,4.026,2.24,5.248,2.971c0.56,0.34,1.022,0.621,1.401,0.851C136.766,289.097,136.928,289.211,136.917,289.228z"/>
			</g>
			<g>
				<path style="fill:#263238;" d="M68.407,280.965c0.015-0.038,0.385,0.072,1.044,0.306c0.663,0.224,1.596,0.624,2.717,1.181
					c2.244,1.108,5.195,2.995,7.967,5.65c2.764,2.664,4.768,5.538,5.965,7.736c0.602,1.098,1.038,2.014,1.289,2.668
					c0.26,0.65,0.385,1.015,0.347,1.031c-0.096,0.042-0.718-1.37-2-3.488c-1.275-2.118-3.296-4.899-6.013-7.518
					c-2.725-2.609-5.584-4.517-7.751-5.707C69.805,281.628,68.369,281.063,68.407,280.965z"/>
			</g>
			<g>
				<path style="fill:#263238;" d="M31.513,229.977c0.007-0.019,0.251,0.053,0.711,0.21c0.516,0.184,1.18,0.42,2.001,0.712
					c0.889,0.328,1.944,0.717,3.156,1.164c1.23,0.457,2.565,1.131,4.076,1.797c6.004,2.726,13.993,7.313,21.71,13.832
					c3.805,3.312,7.246,6.679,10.124,9.969c2.867,3.297,5.294,6.398,7.185,9.104c1.904,2.697,3.348,4.944,4.337,6.498
					c0.468,0.734,0.847,1.327,1.141,1.788c0.259,0.41,0.386,0.632,0.37,0.644c-0.017,0.012-0.177-0.186-0.468-0.576
					c-0.292-0.389-0.715-0.968-1.235-1.729c-1.05-1.516-2.544-3.723-4.486-6.38c-1.929-2.666-4.38-5.726-7.254-8.986
					c-2.885-3.253-6.317-6.588-10.099-9.88c-7.669-6.479-15.569-11.092-21.503-13.904c-1.493-0.687-2.812-1.386-4.025-1.871
					c-1.194-0.482-2.234-0.901-3.11-1.254c-0.804-0.335-1.454-0.605-1.959-0.816C31.737,230.108,31.506,229.997,31.513,229.977z"/>
			</g>
			<g>
				<path style="fill:#263238;" d="M112.382,239.853c-0.011,0.04-0.485-0.024-1.329-0.171c-0.459-0.085-0.967-0.178-1.532-0.283
					c-0.595-0.115-1.291-0.118-2.048-0.197c-2.999-0.218-7.368,0.03-11.461,2.261c-2.065,1.045-3.798,2.455-5.215,3.87
					c-1.439,1.403-2.53,2.866-3.353,4.145c-1.673,2.561-2.19,4.411-2.292,4.375c-0.033-0.008,0.061-0.479,0.339-1.3
					c0.306-0.807,0.779-1.978,1.596-3.297c0.791-1.33,1.869-2.85,3.32-4.308c1.429-1.469,3.2-2.933,5.327-4.01
					c4.222-2.301,8.741-2.485,11.775-2.154c0.767,0.106,1.47,0.14,2.067,0.288c0.563,0.142,1.07,0.27,1.527,0.385
					C111.939,239.674,112.393,239.814,112.382,239.853z"/>
			</g>
			<g>
				<path style="fill:#263238;" d="M129.142,187.861c0.009,0.019-0.208,0.152-0.631,0.389c-0.48,0.261-1.097,0.596-1.86,1.01
					c-1.618,0.872-3.945,2.158-6.774,3.824c-2.815,1.689-6.132,3.763-9.66,6.285c-3.518,2.528-7.298,5.467-10.786,9.036
					c-1.72,1.796-3.306,3.672-4.411,5.712c-1.092,2.098-2.136,4.125-3.096,6.072c-1.929,3.889-3.499,7.47-4.633,10.547
					c-1.131,3.078-1.836,5.641-2.254,7.426c-0.427,1.785-0.581,2.791-0.639,2.782c-0.02-0.003,0.003-0.257,0.067-0.737
					c0.06-0.481,0.162-1.19,0.346-2.093c0.35-1.809,0.998-4.405,2.084-7.52c1.09-3.113,2.629-6.731,4.536-10.646
					c0.95-1.959,1.986-3.996,3.071-6.099c1.148-2.133,2.758-4.035,4.501-5.857c3.531-3.613,7.343-6.553,10.896-9.07
					c3.563-2.51,6.915-4.554,9.766-6.202c2.864-1.625,5.227-2.857,6.88-3.667c0.785-0.374,1.42-0.677,1.913-0.912
					C128.897,187.94,129.133,187.842,129.142,187.861z"/>
			</g>
			<g>
				<path style="fill:#263238;" d="M82.383,238.351c-0.041,0.006-0.156-0.495-0.331-1.406c-0.195-1.029-0.439-2.319-0.729-3.853
					c-0.635-3.246-1.606-7.717-3.153-12.513c-1.533-4.803-3.399-8.982-4.762-11.997c-0.647-1.421-1.192-2.617-1.626-3.57
					c-0.379-0.846-0.571-1.323-0.535-1.341c0.037-0.018,0.299,0.423,0.742,1.238c0.443,0.815,1.065,2.004,1.798,3.493
					c1.463,2.974,3.403,7.153,4.948,11.994c1.559,4.833,2.47,9.347,3.001,12.621c0.261,1.639,0.449,2.969,0.544,3.893
					C82.385,237.833,82.424,238.345,82.383,238.351z"/>
			</g>
			<path style="fill:#455A64;" d="M81.177,200.413c-0.418-6.3-2.471-12.422-5.423-18.003c-8.094-15.303-23.305-26.646-40.281-30.039
				c12.431,18.527,24.861,37.055,37.292,55.583l4.816,9.921C80.866,212.483,81.595,206.713,81.177,200.413z"/>
		</g>
		<g>
			<g>
				<rect x="47.955" y="309.952" style="fill:#FF725E;" width="86.715" height="15.369"/>
			</g>
			<g>
				<polygon style="fill:#FF725E;" points="54.431,322.272 61.814,369.962 119.383,369.962 128.194,322.272 				"/>
			</g>
			<g>
				<g>
					<path style="fill:#263238;" d="M134.622,325.341c0,0.168-19.56,0.305-43.682,0.305c-24.131,0-43.687-0.136-43.687-0.305
						c0-0.168,19.555-0.305,43.687-0.305C115.062,325.036,134.622,325.172,134.622,325.341z"/>
				</g>
			</g>
		</g>
	</g>
</g>
<g id="Mouse">
	<g>
		<path style="fill:#455A64;" d="M561.474,435.941c-1.005-2.73-2.651-7.476-2.214-8.131l1.12-1.089l-0.905-1.738
			c0,0,25.532-16.793,48.48-7.413c22.948,9.38,25.963,34.338,23.953,35.51c-2.01,1.173-21.775,6.7-49.58,1.173
			c0,0-1.34,0.335-7.873-7.035c-4.401-4.965-8.434-7.485-10.597-8.602C562.755,438.047,561.901,437.103,561.474,435.941z"/>
		<path style="opacity:0.3;" d="M560.379,426.72c0,0,4.252-1.307,10.59,1.089c3.581,1.354,6.578,5.19,6.578,5.19
			s-1.475-10.214-18.073-8.017L560.379,426.72z"/>
		<path style="fill:#FF725E;" d="M576.833,447.831l0.233-0.686c0,0,11.392,4.662,22.441,4.646
			c11.049-0.016,12.424,0.474,18.674-0.307c6.25-0.781,10.091-1.796,11.782-2.522c1.692-0.727,2.056-1.619,2.056-1.619l-0.031,0.426
			c0,0,1.848,2.743-13.807,4.64c-10.002,1.212-20.828,0.295-27.342-0.526c-3.633-0.458-7.187-1.369-10.595-2.71l-3.571-1.405"/>
		<g>
			<path style="fill:#263238;" d="M576.673,446.843c0.007-0.017,0.2,0.041,0.563,0.165c0.414,0.149,0.936,0.337,1.577,0.568
				c1.367,0.501,3.318,1.286,5.825,1.947c1.25,0.337,2.635,0.648,4.135,0.904c1.498,0.256,3.12,0.428,4.828,0.61
				c3.415,0.351,7.182,0.629,11.141,0.732c3.96,0.101,7.736,0.004,11.152-0.29c3.413-0.306,6.481-0.752,9.023-1.247
				c2.542-0.494,4.569-1.094,5.83-1.782c0.625-0.343,1.051-0.723,1.194-1.061c0.15-0.341,0.026-0.544,0.047-0.545
				c0.006-0.022,0.183,0.186,0.052,0.582c-0.127,0.39-0.562,0.818-1.19,1.199c-1.271,0.764-3.308,1.423-5.857,1.967
				c-2.554,0.546-5.62,1.03-9.055,1.365c-3.435,0.323-7.231,0.434-11.208,0.333c-3.976-0.103-7.755-0.397-11.178-0.776
				c-1.709-0.196-3.338-0.384-4.852-0.662c-1.512-0.277-2.905-0.612-4.159-0.974c-2.515-0.712-4.461-1.557-5.8-2.113
				c-0.626-0.268-1.136-0.486-1.541-0.659C576.847,446.95,576.667,446.86,576.673,446.843z"/>
		</g>
		<path style="opacity:0.3;" d="M559.259,427.81c0,0,11.659,2.875,15.16,6.303c6.418,6.285,1.837,15.087,1.837,15.087
			s-5.313-5.781-8.031-7.794c-2.718-2.014-5.36-2.901-6.316-4.587C560.775,434.819,559.187,430.418,559.259,427.81z"/>
		<path style="fill:#263238;" d="M572.717,418.59c0,0-0.251-2.104,2.598-2.956c1.825-0.546,8.675-2.728,12.864,0.853
			c1.696,1.45,2.227,3.76,1.227,2.903s-3.856-2.138-6.998-2.211C579.265,417.105,572.717,418.59,572.717,418.59z"/>
	</g>
</g>
<g id="Computer_Tower">
	<g>
		<polygon style="fill:#263238;" points="602.796,356.366 602.796,120.845 608.827,114.168 696.888,114.168 702.419,120.09 
			702.419,355.709 689.182,369.883 612.446,369.883 		"/>
		<g>
			<ellipse style="fill:#FF725E;" cx="652.607" cy="196.024" rx="25.803" ry="27.629"/>
			<ellipse style="fill:#263238;" cx="652.607" cy="196.024" rx="7.302" ry="7.819"/>
			<path style="opacity:0.3;fill:#FFFFFF;" d="M654.929,203.434c-0.41,0.128,6.603,18.521,6.603,18.521
				c0.128,0.001,7.836-2.94,12.897-11.183l-16.103-9.891L654.929,203.434z"/>
		</g>
		<g>
			<ellipse style="fill:#FF725E;" cx="652.607" cy="259.127" rx="25.803" ry="27.629"/>
			<path style="opacity:0.3;fill:#FFFFFF;" d="M646.67,263.527c-0.24-0.379-14.482,12.493-14.482,12.493
				c0.052,0.087,4.544,7.366,13.742,9.801l4.05-19.613L646.67,263.527z"/>
			<ellipse style="fill:#263238;" cx="652.607" cy="259.127" rx="7.302" ry="7.819"/>
		</g>
		<g>
			<ellipse style="fill:#FF725E;" cx="650.865" cy="326.035" rx="25.803" ry="27.629"/>
			<path style="opacity:0.3;fill:#FFFFFF;" d="M646.756,319.678c0.354-0.257-11.667-15.507-11.667-15.507
				c-0.081,0.056-6.88,4.866-9.153,14.714l18.317,4.337L646.756,319.678z"/>
			<ellipse style="fill:#263238;" cx="650.865" cy="326.036" rx="7.302" ry="7.819"/>
		</g>
		<polygon style="opacity:0.3;" points="625.935,369.883 637.654,330.301 702.419,271.072 702.419,342.538 631.821,369.883 		"/>
		<path style="fill:#455A64;" d="M602.796,120.845l47.184,58.719l9.347-29.36l37.562-36.037h-88.061
			C607.309,115.849,602.796,120.845,602.796,120.845z"/>
		<path style="fill:#455A64;" d="M649.979,179.564c0.137,1.201-40.1,186.722-40.1,186.722l-7.083-9.921V120.845L649.979,179.564z"/>
		<polygon style="fill:#263238;" points="602.796,181.293 611.179,191.84 611.179,289.893 602.796,301.865 		"/>
		<polygon style="fill:#455A64;" points="630.478,369.883 640.515,338.328 702.419,282.188 702.419,355.709 689.182,369.883 		"/>
		<polygon style="fill:#FF725E;" points="640.515,338.328 642.041,333.111 702.419,277.245 702.419,282.188 		"/>
		<path style="opacity:0.2;fill:#FFFFFF;" d="M602.796,120.845l47.321,58.719l9.347-29.36l37.562-36.037h-88.199
			C607.309,115.849,602.796,120.845,602.796,120.845z"/>
		<rect x="605.646" y="259.127" style="fill:#FF725E;" width="1.342" height="21.551"/>
		<polygon style="opacity:0.3;" points="611.179,219.89 602.796,230.046 602.796,239.99 611.179,229.94 		"/>
		<polygon style="opacity:0.3;" points="611.179,216.746 602.796,226.823 602.796,222.617 611.179,212.512 		"/>
		<polygon style="opacity:0.2;fill:#FFFFFF;" points="702.419,198.118 634.237,253.638 611.179,241.354 611.179,259.127 
			630.478,271.072 702.419,209.951 		"/>
		<polygon style="opacity:0.2;fill:#FFFFFF;" points="702.419,217.581 628.078,282.188 611.179,268.708 611.179,273.615 
			627.092,286.755 702.419,222.049 		"/>
		<g>
			<path style="fill:#FF725E;" d="M680.446,204.808c-0.041-0.019,0.227-0.633,0.649-1.76c0.423-1.126,0.948-2.792,1.351-4.901
				c0.826-4.177,0.92-10.348-1.521-16.45c-1.209-3.038-2.938-5.674-4.797-7.807c-1.883-2.115-3.869-3.755-5.68-4.902
				c-3.635-2.314-6.32-2.863-6.267-2.991c0.005-0.017,0.169,0.015,0.478,0.094c0.306,0.089,0.772,0.179,1.339,0.394
				c1.156,0.369,2.783,1.065,4.646,2.191c1.863,1.123,3.908,2.76,5.844,4.895c1.912,2.153,3.687,4.833,4.92,7.931
				c2.489,6.224,2.328,12.506,1.398,16.715c-0.455,2.126-1.039,3.792-1.524,4.903c-0.223,0.564-0.456,0.976-0.593,1.264
				C680.545,204.671,680.462,204.816,680.446,204.808z"/>
		</g>
		<polygon style="opacity:0.1;fill:#FFFFFF;" points="602.796,319.581 617.628,330.52 702.419,254.96 702.419,263.293 
			615.937,338.328 602.796,328.845 		"/>
		<polygon style="opacity:0.3;" points="612.446,369.883 654.912,179.564 664.177,153.038 699.688,117.165 697.026,114.168 
			659.464,150.205 650.117,179.564 609.879,366.287 		"/>
		<g>
			<path style="fill:#FF725E;" d="M650.117,179.564c-0.112,0.09-10.797-12.982-23.862-29.195
				c-13.07-16.218-23.571-29.434-23.459-29.525c0.112-0.09,10.794,12.98,23.865,29.198
				C639.726,166.255,650.229,179.474,650.117,179.564z"/>
		</g>
	</g>
</g>
<g id="Keyboard">
	<g>
		<path style="fill:#455A64;" d="M526.224,456.668H193.236c-1.162,0-2.108-0.934-2.124-2.096l-0.055-4.169l337.749-0.618v4.301
			C528.806,455.511,527.65,456.668,526.224,456.668z"/>
		<path style="opacity:0.3;" d="M526.224,456.668H193.236c-1.162,0-2.108-0.934-2.124-2.096l-0.055-4.169l337.749-0.618v4.301
			C528.806,455.511,527.65,456.668,526.224,456.668z"/>
		<path style="fill:#455A64;" d="M511.617,400.515h-305.83c-1.182,0-2.215,0.801-2.509,1.946l-12.138,47.323
			c-0.42,1.639,0.818,3.234,2.51,3.233l332.566-0.214c1.744-0.001,2.988-1.691,2.472-3.356l-14.598-47.109
			C513.755,401.254,512.752,400.515,511.617,400.515z"/>
		<g>
			<path style="fill:#263238;" d="M425.985,410.65c0.149,1.674,0.298,3.347,0.447,5.021c4.532,0,9.064,0,13.596,0
				c-0.01-0.11-0.02-0.221-0.03-0.331c-0.148-1.666-0.296-3.332-0.444-4.998c-4.532,0-9.064,0-13.596,0
				C425.967,410.445,425.976,410.548,425.985,410.65z"/>
			<path style="fill:#263238;" d="M352.866,424.348c-7.343,0-14.687,0-22.03,0l0.182,6.32c7.606,0,15.212,0,22.818,0
				L352.866,424.348z"/>
			<path style="fill:#263238;" d="M413.955,417.124c-7.18,0-14.361,0-21.541,0l0.67,5.771c7.12,0,14.24,0,21.36,0L413.955,417.124z"
				/>
			<path style="fill:#263238;" d="M377.594,424.348c-7.756,0-15.512,0-23.268,0l0.97,6.32c7.831,0,15.662,0,23.493,0
				L377.594,424.348z"/>
			<path style="fill:#263238;" d="M436.493,417.124c-7.028,0-14.056,0-21.085,0l0.488,5.771c7.11,0,14.22,0,21.33,0L436.493,417.124
				z"/>
			<path style="fill:#263238;" d="M505.136,417.124c-7.242,0-14.485,0-21.728,0l0.601,5.771c7.337,0,14.674,0,22.011,0
				L505.136,417.124z"/>
			<path style="fill:#263238;" d="M471.132,410.65c0.149,1.674,0.298,3.347,0.446,5.021c4.532,0,9.064,0,13.596,0
				c-0.01-0.11-0.02-0.221-0.03-0.331c-0.148-1.666-0.296-3.332-0.444-4.998c-4.532,0-9.064,0-13.596,0
				C471.114,410.445,471.123,410.548,471.132,410.65z"/>
			<path style="fill:#263238;" d="M479.017,424.348h-11.271c-0.228,0-0.402,0.204-0.366,0.43l0.9,5.579
				c0.029,0.18,0.184,0.312,0.366,0.312h11.272c0.228,0,0.402-0.204,0.366-0.43l-0.901-5.579
				C479.354,424.48,479.199,424.348,479.017,424.348z"/>
			<path style="fill:#263238;" d="M481.956,417.124c-7.036,0-14.072,0-21.108,0l0.6,5.771c7.036,0,14.073,0,21.109,0
				L481.956,417.124z"/>
			<path style="fill:#263238;" d="M513.95,417.124c-2.451,0-4.902,0-7.353,0l0.884,5.771c2.718,0,5.436,0,8.154,0L513.95,417.124z"
				/>
			<path style="fill:#263238;" d="M459.395,417.124h-21.449l0.734,5.771c7.105,0,14.21,0,21.315,0L459.395,417.124z"/>
			<path style="fill:#263238;" d="M368.596,417.124c-6.926,0-13.852,0-20.778,0l0.536,5.771c6.999,0,13.999,0,20.998,0
				L368.596,417.124z"/>
			<path style="fill:#263238;" d="M346.365,417.124c-6.72,0-13.441,0-20.161,0l-0.325,5.771c7.007,0,14.014,0,21.022,0
				L346.365,417.124z"/>
			<path style="fill:#263238;" d="M329.383,424.348c-6.698,0-13.396,0-20.094,0l-0.301,6.32c6.859,0,13.718,0,20.577,0
				L329.383,424.348z"/>
			<path style="fill:#263238;" d="M456.083,410.65c0.149,1.674,0.298,3.347,0.446,5.021c4.532,0,9.064,0,13.596,0
				c-0.01-0.11-0.02-0.221-0.029-0.331c-0.148-1.666-0.296-3.332-0.444-4.998c-4.532,0-9.064,0-13.596,0
				C456.065,410.445,456.074,410.548,456.083,410.65z"/>
			<path style="fill:#263238;" d="M390.961,417.124c-6.971,0-13.941,0-20.912,0l0.755,5.771h20.827L390.961,417.124z"/>
			<path style="fill:#263238;" d="M308.686,417.124c-1.739,0-3.478,0-5.218,0l-0.73,5.771c7.229,0,14.459,0,21.688,0l0.325-5.771
				C319.396,417.124,314.041,417.124,308.686,417.124z"/>
			<path style="fill:#263238;" d="M262.907,424.348l-1.038,6.32c7.58,0,15.16,0,22.741,0l0.857-6.32
				C277.946,424.348,270.427,424.348,262.907,424.348z"/>
			<path style="fill:#263238;" d="M281.453,417.124c0.003,0.066,0.008,0.133-0.003,0.201c-0.042,0.255-0.083,0.511-0.125,0.766
				c-0.262,1.601-0.524,3.203-0.786,4.804c6.915,0,13.831,0,20.746,0l0.73-5.771C295.162,417.124,288.307,417.124,281.453,417.124z"
				/>
			<path style="fill:#263238;" d="M286.8,424.348l-0.857,6.32c7.158,0,14.315,0,21.472,0l0.301-6.32
				C300.745,424.348,293.772,424.348,286.8,424.348z"/>
			<path style="fill:#263238;" d="M259.122,417.124l-0.518,5.771c6.824,0,13.648,0,20.471,0l0.944-5.771
				C273.053,417.124,266.087,417.124,259.122,417.124z"/>
			<path style="fill:#263238;" d="M389.313,432.121h-26.597c-0.463,0-0.823,0.402-0.774,0.862l0.654,6.066
				c0.043,0.395,0.376,0.695,0.774,0.695h26.597c0.463,0,0.823-0.402,0.774-0.862l-0.654-6.066
				C390.044,432.42,389.711,432.121,389.313,432.121z"/>
			<path style="fill:#263238;" d="M477.379,403.699c0.091,1.73,0.183,3.461,0.274,5.191c6.567,0,13.134,0,19.701,0
				c-0.002-0.042-0.004-0.084-0.007-0.125c-0.102-1.928-0.204-3.857-0.305-5.785l-19.702-0.02
				C477.353,403.205,477.366,403.452,477.379,403.699z"/>
			<path style="fill:#263238;" d="M228.822,404.127c-0.275,1.587-0.55,3.175-0.825,4.762c7.27,0,14.54,0,21.809,0
				c0.141,0,0.282,0,0.423,0c0.004-0.049,0.008-0.098,0.012-0.146c0.163-2.006,0.326-4.012,0.488-6.018l-21.887-0.022
				c0.113,0.171,0.159,0.387,0.121,0.604C228.917,403.58,228.869,403.854,228.822,404.127z"/>
			<path style="fill:#263238;" d="M516.059,424.348c-7.216,0-14.432,0-21.649,0l1.026,6.32h22.468L516.059,424.348z"/>
			<path style="fill:#263238;" d="M489.826,432.121h-13.529c-0.351,0-0.624,0.307-0.582,0.656l0.769,6.45
				c0.035,0.295,0.285,0.517,0.582,0.517h13.529c0.352,0,0.624-0.307,0.583-0.656l-0.769-6.45
				C490.374,432.343,490.123,432.121,489.826,432.121z"/>
			<path style="fill:#263238;" d="M473.817,432.121h-18.435c-0.352,0-0.624,0.307-0.582,0.656l0.769,6.45
				c0.035,0.295,0.285,0.517,0.582,0.517h18.435c0.351,0,0.624-0.307,0.582-0.656l-0.77-6.45
				C474.364,432.343,474.114,432.121,473.817,432.121z"/>
			<path style="fill:#263238;" d="M459.511,441.197h-16.835c-0.268,0-0.479,0.228-0.458,0.495l0.494,6.48
				c0.018,0.24,0.218,0.425,0.458,0.425h16.913c0.27,0,0.482-0.231,0.458-0.5l-0.572-6.48
				C459.948,441.379,459.75,441.197,459.511,441.197z"/>
			<path style="fill:#263238;" d="M505.078,441.197h-18.477c-0.501,0-0.893,0.433-0.842,0.932l0.578,5.706
				c0.044,0.432,0.408,0.761,0.842,0.761h18.349c0.494,0,0.883-0.421,0.844-0.913l-0.45-5.706
				C505.887,441.536,505.519,441.197,505.078,441.197z"/>
			<path style="fill:#263238;" d="M423.152,424.348h-18.967c-0.361,0-0.637,0.324-0.579,0.681l0.836,5.147
				c0.046,0.284,0.291,0.493,0.579,0.493h18.967c0.362,0,0.637-0.324,0.579-0.681l-0.836-5.147
				C423.685,424.556,423.44,424.348,423.152,424.348z"/>
			<path style="fill:#263238;" d="M406.26,442.076c-0.06-0.502-0.486-0.879-0.991-0.879h-77.266h-32.785
				c-0.573,0-1.028,0.481-0.996,1.053l0.301,5.403c0.03,0.529,0.467,0.942,0.996,0.942h110.397c0.598,0,1.062-0.523,0.991-1.116
				L406.26,442.076z"/>
			<path style="fill:#263238;" d="M432.53,432.121h-19.307c-0.349,0-0.62,0.303-0.583,0.649l0.695,6.45
				c0.032,0.298,0.284,0.524,0.583,0.524h19.382c0.352,0,0.624-0.307,0.582-0.656l-0.769-6.45
				C433.077,432.343,432.827,432.121,432.53,432.121z"/>
			<path style="fill:#263238;" d="M257.619,417.124c-3.209,0-17.948,0-20.76,0c-0.29,0-0.529,0.2-0.578,0.486
				c-0.254,1.465-0.538,3.11-0.795,4.591c-0.063,0.366,0.213,0.694,0.585,0.694c3.723,0,20.922,0,20.922,0L257.619,417.124z"/>
			<path style="fill:#263238;" d="M287.183,410.65c-0.15,1.674-0.301,3.347-0.451,5.021c4.656,0,9.312,0,13.967,0
				c0.01-0.11,0.02-0.221,0.03-0.331c0.15-1.666,0.299-3.332,0.449-4.998c-4.656,0-9.311,0-13.967,0
				C287.202,410.445,287.192,410.548,287.183,410.65z"/>
			<path style="fill:#263238;" d="M271.763,410.65c-0.15,1.674-0.301,3.347-0.451,5.021c4.656,0,9.312,0,13.967,0
				c0.01-0.11,0.02-0.221,0.03-0.331c0.15-1.666,0.299-3.332,0.449-4.998c-4.656,0-9.312,0-13.967,0
				C271.781,410.445,271.772,410.548,271.763,410.65z"/>
			<path style="fill:#263238;" d="M249.807,415.671c6.684,0,13.368,0,20.052,0c0.01-0.11,0.02-0.221,0.03-0.331
				c0.15-1.666,0.299-3.332,0.449-4.998c-7.379,0-14.758,0-22.137,0c-0.006,0.07-0.012,0.14-0.019,0.211
				c-0.153,1.706-0.307,3.412-0.46,5.118C248.417,415.671,249.112,415.671,249.807,415.671z"/>
			<path style="fill:#263238;" d="M333.444,410.65c-0.15,1.674-0.301,3.347-0.451,5.021c4.908,0,9.816,0,14.725,0
				c-0.004-0.11-0.009-0.221-0.013-0.331c-0.068-1.666-0.135-3.332-0.203-4.998c-4.677,0-9.353,0-14.03,0
				C333.462,410.445,333.453,410.548,333.444,410.65z"/>
			<path style="fill:#263238;" d="M348.967,410.65c0.068,1.674,0.136,3.347,0.204,5.021c4.823,0,9.646,0,14.468,0
				c-0.014-0.107-0.027-0.215-0.041-0.322c-0.212-1.669-0.423-3.338-0.635-5.007c-4.67,0-9.339,0-14.009,0
				C348.958,410.445,348.963,410.548,348.967,410.65z"/>
			<path style="fill:#263238;" d="M273.794,433.162l-0.869,5.123c-0.129,0.763,0.458,1.459,1.232,1.459h18.53
				c0.672,0,1.224-0.531,1.249-1.203l0.193-5.123c0.027-0.708-0.54-1.297-1.249-1.297h-17.854
				C274.417,432.121,273.896,432.561,273.794,433.162z"/>
			<path style="fill:#263238;" d="M379.896,410.459c0.323,1.737,0.646,3.475,0.969,5.212c0.816,0,1.632,0,2.447,0
				c3.663,0,7.325,0,10.988,0c-0.01-0.11-0.021-0.221-0.032-0.331c-0.16-1.666-0.32-3.332-0.48-4.998c-4.638,0-9.276,0-13.914,0
				C379.882,410.381,379.889,410.42,379.896,410.459z"/>
			<path style="fill:#263238;" d="M247.622,432.769l-1.029,6.066c-0.081,0.475,0.286,0.909,0.767,0.909h23.194
				c0.38,0,0.704-0.274,0.767-0.648l1.029-6.066c0.081-0.475-0.285-0.908-0.767-0.908h-23.194
				C248.009,432.121,247.685,432.395,247.622,432.769z"/>
			<path style="fill:#263238;" d="M441.007,410.342c0.009,0.103,0.018,0.205,0.027,0.308c0.149,1.674,0.298,3.347,0.446,5.021
				c4.532,0,9.064,0,13.596,0c-0.01-0.11-0.02-0.221-0.029-0.331c-0.148-1.666-0.296-3.332-0.444-4.998c-4.137,0-8.274,0-12.411,0
				C441.797,410.342,441.402,410.342,441.007,410.342z"/>
			<path style="fill:#263238;" d="M234.576,417.124h-30.867c-0.188,0-0.351,0.13-0.393,0.313l-1.134,4.965
				c-0.058,0.252,0.134,0.492,0.393,0.492h31.499c0.002-0.042-0.005-0.082,0.002-0.124c0.047-0.273,0.095-0.547,0.142-0.821
				c0.251-1.452,0.503-2.903,0.754-4.355C235.016,417.349,234.826,417.124,234.576,417.124z"/>
			<path style="fill:#263238;" d="M445.283,424.429c-0.004-0.028,0.001-0.054-0.001-0.082h-20.167l1.026,6.32
				c6.719,0,13.437,0,20.155,0C445.958,428.589,445.621,426.509,445.283,424.429z"/>
			<path style="fill:#263238;" d="M219.458,441.693l-1.226,6.165c-0.076,0.382,0.216,0.737,0.605,0.737h20.356
				c0.297,0,0.551-0.211,0.606-0.503l1.164-6.165c0.072-0.38-0.22-0.732-0.606-0.732h-20.294
				C219.769,441.197,219.515,441.405,219.458,441.693z"/>
			<path style="fill:#263238;" d="M242.51,441.853l-1.199,5.748c-0.107,0.513,0.284,0.994,0.808,0.994h20.335
				c0.414,0,0.763-0.306,0.818-0.716l0.769-5.748c0.066-0.495-0.319-0.935-0.818-0.935h-19.905
				C242.927,441.197,242.59,441.471,242.51,441.853z"/>
			<path style="fill:#263238;" d="M265.539,441.828l-0.754,5.955c-0.055,0.431,0.282,0.813,0.716,0.813h11.099
				c0.372,0,0.683-0.283,0.719-0.653l0.573-5.955c0.041-0.424-0.293-0.791-0.719-0.791h-10.918
				C265.892,441.197,265.585,441.467,265.539,441.828z"/>
			<path style="fill:#263238;" d="M218.854,432.648l-1.609,6.216c-0.115,0.445,0.221,0.88,0.681,0.88h26.453
				c0.343,0,0.636-0.247,0.693-0.585c0.337-1.988,0.678-3.975,1.144-5.963c0.122-0.763-0.251-1.075-0.84-1.075h-25.84
				C219.214,432.121,218.934,432.338,218.854,432.648z"/>
			<path style="fill:#263238;" d="M291.708,441.197h-10.974c-0.582,0-1.068,0.441-1.126,1.02l-0.507,5.137
				c-0.066,0.665,0.457,1.242,1.126,1.242h11.551c0.631,0,1.139-0.516,1.131-1.146l-0.071-5.137
				C292.83,441.694,292.326,441.197,291.708,441.197z"/>
			<path style="fill:#263238;" d="M410.59,432.121h-18.472c-0.349,0-0.62,0.303-0.583,0.649l0.695,6.45
				c0.032,0.298,0.284,0.524,0.583,0.524h18.472c0.349,0,0.621-0.303,0.583-0.649l-0.695-6.45
				C411.141,432.347,410.889,432.121,410.59,432.121z"/>
			<path style="fill:#263238;" d="M226.005,410.342c-0.025,0.145-0.05,0.29-0.075,0.436c-0.282,1.631-0.565,3.262-0.847,4.893
				c7.062,0,14.125,0,21.187,0c0.013-0.143,0.026-0.286,0.038-0.429c0.147-1.634,0.293-3.267,0.44-4.9
				C239.834,410.342,232.919,410.342,226.005,410.342z"/>
			<path style="fill:#263238;" d="M199.843,432.651l-1.429,6.258c-0.097,0.427,0.227,0.834,0.665,0.834h15.908
				c0.311,0,0.583-0.21,0.661-0.511l1.62-6.258c0.112-0.432-0.214-0.853-0.661-0.853h-16.1
				C200.19,432.121,199.914,432.341,199.843,432.651z"/>
			<path style="fill:#263238;" d="M274.138,403.57c-0.179,1.773-0.358,3.546-0.537,5.319c6.734,0,13.469,0,20.203,0
				c0.014-0.141,0.028-0.282,0.043-0.423c0.192-1.899,0.383-3.798,0.575-5.697l-20.201-0.021
				C274.193,403.023,274.166,403.297,274.138,403.57z"/>
			<path style="fill:#263238;" d="M204.005,415.671h19.417c0.085-0.071,0.14-0.118,0.225-0.189c0.281-1.624,0.562-3.249,0.844-4.873
				c0.024-0.139-0.083-0.267-0.225-0.267h-19.148c-0.106,0-0.199,0.074-0.222,0.177l-1.112,4.873
				C203.751,415.535,203.859,415.671,204.005,415.671z"/>
			<path style="fill:#263238;" d="M201.588,425.007l-1.056,4.625c-0.121,0.531,0.282,1.037,0.827,1.037h35.582
				c0.413,0,0.766-0.297,0.836-0.704l0.796-4.625c0.089-0.518-0.31-0.992-0.836-0.992h-35.323
				C202.019,424.348,201.676,424.621,201.588,425.007z"/>
			<path style="fill:#263238;" d="M252.115,403.552c-0.144,1.779-0.289,3.558-0.433,5.337c6.822,0,13.644,0,20.466,0
				c0.014-0.141,0.029-0.282,0.043-0.423c0.193-1.906,0.385-3.813,0.577-5.719l-20.586-0.021
				C252.16,403.002,252.138,403.277,252.115,403.552z"/>
			<path style="fill:#263238;" d="M410.909,410.342c0.009,0.103,0.018,0.205,0.027,0.308c0.149,1.674,0.298,3.347,0.447,5.021
				c4.532,0,9.064,0,13.596,0c-0.01-0.11-0.02-0.221-0.029-0.331c-0.148-1.666-0.296-3.332-0.444-4.998
				C419.973,410.342,415.441,410.342,410.909,410.342z"/>
			<path style="fill:#263238;" d="M198.017,441.656l-1.42,6.218c-0.084,0.37,0.197,0.722,0.576,0.722h19.209
				c0.283,0,0.526-0.2,0.58-0.478l1.21-6.218c0.071-0.365-0.208-0.703-0.58-0.703h-18.999
				C198.317,441.197,198.078,441.387,198.017,441.656z"/>
			<path style="fill:#263238;" d="M206.602,403.043l-1.204,5.276c-0.067,0.292,0.155,0.571,0.455,0.571h20.676
				c0.017-0.096,0.033-0.191,0.05-0.287c0.328-1.894,0.656-3.788,0.984-5.682c0.014-0.083,0.055-0.154,0.102-0.219l-20.607-0.021
				C206.84,402.68,206.651,402.83,206.602,403.043z"/>
			<path style="fill:#263238;" d="M453.114,432.121c-0.449,0-0.897,0-1.346,0h-16.605c-0.351,0-0.624,0.307-0.582,0.656l0.769,6.45
				c0.035,0.295,0.285,0.517,0.582,0.517h17.43c0.351,0,0.624-0.307,0.582-0.656L453.114,432.121z"/>
			<path style="fill:#263238;" d="M520.629,441.195l-12.814-0.061c-0.273-0.001-0.49,0.231-0.469,0.504l0.489,6.413
				c0.018,0.243,0.22,0.431,0.463,0.432l14.211,0.108c0.313,0.002,0.541-0.298,0.453-0.599l-1.886-6.46
				C521.018,441.333,520.836,441.196,520.629,441.195z"/>
			<path style="fill:#263238;" d="M439.898,441.197h-12.864c-0.547,0-0.974,0.475-0.915,1.019l0.599,5.559
				c0.05,0.467,0.445,0.822,0.915,0.822h12.841c0.546,0,0.972-0.472,0.915-1.015l-0.575-5.559
				C440.765,441.553,440.37,441.197,439.898,441.197z"/>
			<path style="fill:#263238;" d="M483.697,441.197h-21.57c-0.331,0-0.589,0.286-0.556,0.615l0.635,6.282
				c0.029,0.285,0.269,0.503,0.556,0.503h21.46c0.327,0,0.584-0.279,0.557-0.605l-0.525-6.282
				C484.23,441.419,483.988,441.197,483.697,441.197z"/>
			<path style="fill:#263238;" d="M506.442,432.121H492.46c-0.351,0-0.624,0.307-0.582,0.656l0.769,6.45
				c0.035,0.295,0.285,0.517,0.582,0.517h13.981c0.352,0,0.624-0.307,0.582-0.656l-0.769-6.45
				C506.989,432.343,506.739,432.121,506.442,432.121z"/>
			<path style="fill:#263238;" d="M517.889,432.121h-8.823c-0.352,0-0.625,0.308-0.582,0.657l0.779,6.45
				c0.036,0.295,0.286,0.516,0.582,0.516h9.928c0.391,0,0.673-0.376,0.563-0.751l-1.883-6.45
				C518.379,432.293,518.149,432.121,517.889,432.121z"/>
			<path style="fill:#263238;" d="M498.533,403.699c0.091,1.73,0.183,3.461,0.274,5.191c4.246,0,8.492,0,12.738,0l-1.722-5.898
				l-11.328-0.012C498.508,403.22,498.521,403.459,498.533,403.699z"/>
			<path style="fill:#263238;" d="M423.513,441.197h-14.638c-0.681,0-1.216,0.584-1.157,1.263l0.447,5.077
				c0.053,0.6,0.555,1.059,1.157,1.059h14.738c0.69,0,1.228-0.599,1.154-1.285l-0.547-5.077
				C424.604,441.644,424.107,441.197,423.513,441.197z"/>
			<path style="fill:#263238;" d="M317.646,432.87l-0.229,6.066c-0.017,0.441,0.336,0.808,0.778,0.808h19.032
				c0.418,0,0.762-0.331,0.778-0.749l0.229-6.066c0.017-0.441-0.336-0.808-0.778-0.808h-19.032
				C318.005,432.121,317.662,432.452,317.646,432.87z"/>
			<path style="fill:#263238;" d="M240.186,424.348l-1.069,6.32h21.287l1.038-6.32C254.357,424.348,247.272,424.348,240.186,424.348
				z"/>
			<path style="fill:#263238;" d="M295.603,432.87l-0.229,6.066c-0.017,0.441,0.336,0.808,0.778,0.808h19.032
				c0.418,0,0.762-0.331,0.778-0.749l0.229-6.066c0.017-0.441-0.336-0.808-0.778-0.808h-19.032
				C295.963,432.121,295.619,432.452,295.603,432.87z"/>
			<path style="fill:#263238;" d="M360.397,432.121c-6.893,0-13.787,0-20.68,0l-0.288,7.623c7.263,0,14.526,0,21.789,0
				L360.397,432.121z"/>
			<path style="fill:#263238;" d="M401.534,424.348h-21.758c-0.368,0-0.645,0.334-0.576,0.696l0.974,5.147
				c0.052,0.277,0.294,0.478,0.576,0.478h12.14h9.48c0.362,0,0.637-0.324,0.579-0.681l-0.836-5.147
				C402.066,424.556,401.821,424.348,401.534,424.348z"/>
			<path style="fill:#263238;" d="M318.024,410.65c-0.15,1.674-0.301,3.347-0.451,5.021c4.656,0,9.312,0,13.967,0
				c0.01-0.11,0.02-0.221,0.03-0.331c0.15-1.666,0.299-3.332,0.449-4.998c-4.656,0-9.312,0-13.967,0
				C318.042,410.445,318.033,410.548,318.024,410.65z"/>
			<path style="fill:#263238;" d="M395.271,410.65c0.161,1.674,0.321,3.347,0.482,5.021c4.726,0,9.451,0,14.177,0
				c-0.01-0.11-0.02-0.221-0.029-0.331c-0.148-1.666-0.296-3.332-0.444-4.998c-4.738,0-9.476,0-14.214,0
				C395.251,410.445,395.261,410.548,395.271,410.65z"/>
			<path style="fill:#263238;" d="M364.454,410.641c0.212,1.677,0.425,3.354,0.638,5.03c4.767,0,9.534,0,14.301,0
				c-0.009-0.047-0.017-0.094-0.026-0.14c-0.321-1.73-0.643-3.459-0.964-5.189c-4.662,0-9.324,0-13.986,0
				C364.429,410.442,364.441,410.541,364.454,410.641z"/>
			<path style="fill:#263238;" d="M302.631,410.342c-0.009,0.103-0.018,0.205-0.028,0.308c-0.15,1.674-0.301,3.347-0.451,5.021
				c4.656,0,9.312,0,13.967,0c0.01-0.11,0.02-0.221,0.03-0.331c0.15-1.666,0.299-3.332,0.449-4.998c-2.637,0-5.275,0-7.912,0
				C306.668,410.342,304.649,410.342,302.631,410.342z"/>
			<path style="fill:#263238;" d="M465.348,424.348h-17.925c-0.362,0-0.637,0.324-0.579,0.681l0.836,5.147
				c0.046,0.284,0.291,0.493,0.579,0.493h17.925c0.361,0,0.637-0.324,0.579-0.681l-0.836-5.147
				C465.881,424.556,465.636,424.348,465.348,424.348z"/>
			<path style="fill:#263238;" d="M317.45,403.57c-0.179,1.773-0.358,3.546-0.537,5.319c7.051,0,14.102,0,21.153,0
				c0-0.137,0-0.274,0-0.41c0-1.888,0-3.776,0-5.664l-20.538-0.021C317.502,403.053,317.476,403.311,317.45,403.57z"/>
			<path style="fill:#263238;" d="M411.468,403.699c0.091,1.73,0.183,3.461,0.274,5.191c7.383,0,14.767,0,22.15,0
				c-0.002-0.042-0.004-0.084-0.007-0.125c-0.103-1.95-0.206-3.901-0.309-5.851l-22.151-0.023
				C411.44,403.16,411.454,403.429,411.468,403.699z"/>
			<path style="fill:#263238;" d="M361.251,402.847c0.015,0.284,0.03,0.568,0.045,0.852c0.091,1.73,0.183,3.461,0.274,5.191
				c7.248,0,14.495,0,21.743,0c0.598,0,1.196,0,1.794,0c-0.351-2.006-0.701-4.011-1.052-6.017c-0.001-0.003,0-0.007,0-0.01
				l-22.806-0.023C361.249,402.842,361.251,402.844,361.251,402.847z"/>
			<path style="fill:#263238;" d="M385.609,403.362c0.322,1.843,0.644,3.685,0.966,5.528c7.905,0,15.809,0,23.714,0
				c-0.002-0.042-0.004-0.084-0.007-0.125c-0.103-1.958-0.207-3.917-0.31-5.875l-24.451-0.025
				C385.551,403.03,385.58,403.196,385.609,403.362z"/>
			<path style="fill:#263238;" d="M339.519,402.816c0,0.247,0,0.494,0,0.741c0,1.777,0,3.555,0,5.332c6.866,0,13.732,0,20.598,0
				c-0.002-0.042-0.004-0.084-0.007-0.125c-0.104-1.972-0.208-3.945-0.312-5.917c0-0.003,0.002-0.006,0.002-0.01L339.519,402.816z"
				/>
			<path style="fill:#263238;" d="M295.794,403.57c-0.179,1.773-0.358,3.546-0.537,5.319c6.734,0,13.469,0,20.203,0
				c0.014-0.141,0.029-0.282,0.043-0.423c0.191-1.892,0.382-3.783,0.573-5.674l-20.201-0.021
				C295.848,403.038,295.821,403.304,295.794,403.57z"/>
			<path style="fill:#263238;" d="M492.447,424.348h-10.966c-0.361,0-0.637,0.324-0.579,0.681l0.836,5.147
				c0.046,0.284,0.291,0.493,0.579,0.493h10.966c0.362,0,0.637-0.324,0.579-0.681l-0.836-5.147
				C492.98,424.556,492.735,424.348,492.447,424.348z"/>
			<path style="fill:#263238;" d="M501.231,410.65c0.149,1.674,0.298,3.347,0.447,5.021c3.95,0,7.899,0,11.849,0l-1.556-5.329
				c-3.589,0-7.178,0-10.766,0C501.212,410.445,501.221,410.548,501.231,410.65z"/>
			<path style="fill:#263238;" d="M486.154,410.342c0.009,0.103,0.018,0.205,0.027,0.308c0.149,1.674,0.298,3.347,0.447,5.021
				c4.532,0,9.064,0,13.596,0c-0.01-0.11-0.02-0.221-0.029-0.331c-0.148-1.666-0.296-3.332-0.444-4.998
				C495.218,410.342,490.686,410.342,486.154,410.342z"/>
			<path style="fill:#263238;" d="M456.225,403.699c0.091,1.73,0.183,3.461,0.274,5.191c6.567,0,13.134,0,19.701,0
				c-0.002-0.042-0.004-0.084-0.007-0.125c-0.102-1.936-0.204-3.871-0.306-5.807l-19.702-0.02
				C456.198,403.191,456.212,403.445,456.225,403.699z"/>
			<path style="fill:#263238;" d="M435.071,403.699c0.091,1.73,0.183,3.461,0.274,5.191c6.567,0,13.134,0,19.701,0
				c-0.002-0.042-0.004-0.084-0.007-0.125c-0.103-1.943-0.205-3.886-0.308-5.829l-19.702-0.02
				C435.043,403.176,435.057,403.437,435.071,403.699z"/>
		</g>
		<g>
			<path style="fill:#FF725E;" d="M426.182,409.12c0.149,1.674,0.298,3.347,0.446,5.021c4.532,0,9.064,0,13.596,0
				c-0.01-0.11-0.02-0.221-0.029-0.331c-0.148-1.666-0.296-3.332-0.444-4.998c-4.532,0-9.064,0-13.596,0
				C426.164,408.915,426.173,409.017,426.182,409.12z"/>
			<path style="fill:#FF725E;" d="M353.063,422.817c-7.343,0-14.687,0-22.03,0l0.182,6.32c7.606,0,15.212,0,22.818,0
				L353.063,422.817z"/>
			<path style="fill:#FF725E;" d="M414.152,415.594c-7.18,0-14.361,0-21.541,0l0.67,5.771c7.12,0,14.24,0,21.36,0L414.152,415.594z"
				/>
			<path style="fill:#FF725E;" d="M377.79,422.817c-7.756,0-15.512,0-23.268,0l0.97,6.32c7.831,0,15.662,0,23.493,0L377.79,422.817z
				"/>
			<path style="fill:#FF725E;" d="M436.689,415.594c-7.028,0-14.057,0-21.085,0l0.488,5.771c7.11,0,14.22,0,21.33,0L436.689,415.594
				z"/>
			<path style="fill:#FF725E;" d="M505.333,415.594c-7.243,0-14.485,0-21.728,0l0.601,5.771c7.337,0,14.674,0,22.011,0
				L505.333,415.594z"/>
			<path style="fill:#FF725E;" d="M471.329,409.12c0.149,1.674,0.298,3.347,0.447,5.021c4.532,0,9.064,0,13.596,0
				c-0.01-0.11-0.02-0.221-0.029-0.331c-0.148-1.666-0.296-3.332-0.444-4.998c-4.532,0-9.064,0-13.596,0
				C471.311,408.915,471.32,409.017,471.329,409.12z"/>
			<path style="fill:#FF725E;" d="M479.214,422.817h-11.271c-0.228,0-0.402,0.204-0.366,0.43l0.9,5.579
				c0.029,0.18,0.184,0.312,0.366,0.312h11.272c0.228,0,0.403-0.204,0.366-0.43l-0.901-5.579
				C479.551,422.949,479.396,422.817,479.214,422.817z"/>
			<path style="fill:#FF725E;" d="M482.153,415.594c-7.036,0-14.072,0-21.108,0l0.6,5.771c7.036,0,14.073,0,21.109,0
				L482.153,415.594z"/>
			<path style="fill:#FF725E;" d="M514.147,415.594c-2.451,0-4.902,0-7.353,0l0.884,5.771c2.718,0,5.436,0,8.154,0L514.147,415.594z
				"/>
			<path style="fill:#FF725E;" d="M459.592,415.594h-21.449l0.734,5.771c7.105,0,14.21,0,21.315,0L459.592,415.594z"/>
			<path style="fill:#FF725E;" d="M368.793,415.594c-6.926,0-13.852,0-20.778,0l0.536,5.771c6.999,0,13.999,0,20.998,0
				L368.793,415.594z"/>
			<path style="fill:#FF725E;" d="M346.562,415.594c-6.72,0-13.441,0-20.161,0l-0.325,5.771c7.007,0,14.015,0,21.022,0
				L346.562,415.594z"/>
			<path style="fill:#FF725E;" d="M329.579,422.817c-6.698,0-13.396,0-20.094,0l-0.301,6.32c6.859,0,13.718,0,20.577,0
				L329.579,422.817z"/>
			<path style="fill:#FF725E;" d="M456.28,409.12c0.149,1.674,0.298,3.347,0.447,5.021c4.532,0,9.064,0,13.596,0
				c-0.01-0.11-0.02-0.221-0.029-0.331c-0.148-1.666-0.296-3.332-0.444-4.998c-4.532,0-9.064,0-13.596,0
				C456.262,408.915,456.271,409.017,456.28,409.12z"/>
			<path style="fill:#FF725E;" d="M391.158,415.594c-6.971,0-13.942,0-20.912,0l0.756,5.771h20.827L391.158,415.594z"/>
			<path style="fill:#FF725E;" d="M308.883,415.594c-1.739,0-3.479,0-5.218,0l-0.73,5.771c7.229,0,14.459,0,21.688,0l0.325-5.771
				C319.593,415.594,314.238,415.594,308.883,415.594z"/>
			<path style="fill:#FF725E;" d="M263.104,422.817l-1.038,6.32c7.58,0,15.161,0,22.741,0l0.857-6.32
				C278.143,422.817,270.624,422.817,263.104,422.817z"/>
			<path style="fill:#FF725E;" d="M281.65,415.594c0.003,0.066,0.008,0.133-0.003,0.201c-0.042,0.255-0.083,0.511-0.125,0.766
				c-0.262,1.601-0.524,3.203-0.786,4.804c6.915,0,13.831,0,20.746,0l0.73-5.771C295.358,415.594,288.504,415.594,281.65,415.594z"
				/>
			<path style="fill:#FF725E;" d="M286.997,422.817l-0.857,6.32c7.157,0,14.315,0,21.472,0l0.301-6.32
				C300.942,422.817,293.969,422.817,286.997,422.817z"/>
			<path style="fill:#FF725E;" d="M259.318,415.594l-0.518,5.771c6.824,0,13.648,0,20.471,0l0.944-5.771
				C273.25,415.594,266.284,415.594,259.318,415.594z"/>
			<path style="fill:#FF725E;" d="M389.51,430.591h-26.597c-0.463,0-0.823,0.401-0.774,0.862l0.653,6.066
				c0.043,0.395,0.376,0.695,0.774,0.695h26.597c0.463,0,0.823-0.401,0.774-0.862l-0.654-6.066
				C390.241,430.89,389.907,430.591,389.51,430.591z"/>
			<path style="fill:#FF725E;" d="M477.576,402.168c0.091,1.73,0.183,3.461,0.274,5.191c6.567,0,13.134,0,19.701,0
				c-0.002-0.042-0.004-0.084-0.007-0.125c-0.102-1.928-0.204-3.857-0.305-5.785l-19.702-0.02
				C477.55,401.675,477.563,401.922,477.576,402.168z"/>
			<path style="fill:#FF725E;" d="M229.019,402.597c-0.275,1.587-0.55,3.175-0.825,4.762c7.27,0,14.54,0,21.809,0
				c0.141,0,0.282,0,0.423,0c0.004-0.049,0.008-0.098,0.012-0.146c0.163-2.006,0.326-4.012,0.488-6.018l-21.887-0.022
				c0.113,0.171,0.159,0.387,0.121,0.604C229.113,402.05,229.066,402.324,229.019,402.597z"/>
			<path style="fill:#FF725E;" d="M516.256,422.817c-7.216,0-14.432,0-21.649,0l1.026,6.32h22.468L516.256,422.817z"/>
			<path style="fill:#FF725E;" d="M490.023,430.591h-13.529c-0.352,0-0.624,0.307-0.582,0.656l0.769,6.45
				c0.035,0.295,0.285,0.517,0.582,0.517h13.529c0.352,0,0.624-0.307,0.582-0.656l-0.769-6.45
				C490.57,430.813,490.32,430.591,490.023,430.591z"/>
			<path style="fill:#FF725E;" d="M474.014,430.591h-18.435c-0.351,0-0.624,0.307-0.582,0.656l0.769,6.45
				c0.035,0.295,0.285,0.517,0.582,0.517h18.435c0.352,0,0.624-0.307,0.582-0.656l-0.769-6.45
				C474.561,430.813,474.311,430.591,474.014,430.591z"/>
			<path style="fill:#FF725E;" d="M459.708,439.666h-16.835c-0.268,0-0.479,0.228-0.458,0.495l0.494,6.48
				c0.018,0.24,0.218,0.425,0.458,0.425h16.913c0.27,0,0.482-0.231,0.458-0.5l-0.572-6.48
				C460.145,439.848,459.946,439.666,459.708,439.666z"/>
			<path style="fill:#FF725E;" d="M505.274,439.666h-18.477c-0.501,0-0.893,0.433-0.842,0.932l0.578,5.706
				c0.044,0.432,0.408,0.761,0.842,0.761h18.349c0.494,0,0.883-0.421,0.844-0.913l-0.45-5.706
				C506.084,440.006,505.716,439.666,505.274,439.666z"/>
			<path style="fill:#FF725E;" d="M423.349,422.817h-18.967c-0.361,0-0.637,0.324-0.579,0.681l0.836,5.147
				c0.046,0.284,0.291,0.493,0.579,0.493h18.967c0.361,0,0.637-0.324,0.579-0.68l-0.835-5.147
				C423.882,423.026,423.637,422.817,423.349,422.817z"/>
			<path style="fill:#FF725E;" d="M406.457,440.546c-0.06-0.502-0.486-0.879-0.991-0.879H328.2h-32.785
				c-0.573,0-1.028,0.481-0.996,1.053l0.301,5.403c0.029,0.529,0.467,0.942,0.996,0.942h110.397c0.598,0,1.062-0.523,0.991-1.117
				L406.457,440.546z"/>
			<path style="fill:#FF725E;" d="M432.727,430.591h-19.307c-0.349,0-0.62,0.303-0.583,0.649l0.695,6.45
				c0.032,0.298,0.284,0.524,0.583,0.524h19.382c0.351,0,0.624-0.307,0.582-0.656l-0.769-6.45
				C433.274,430.813,433.024,430.591,432.727,430.591z"/>
			<path style="fill:#FF725E;" d="M257.816,415.594c-3.209,0-17.948,0-20.76,0c-0.29,0-0.529,0.2-0.578,0.486
				c-0.254,1.465-0.538,3.11-0.795,4.591c-0.063,0.366,0.213,0.694,0.585,0.694c3.723,0,20.922,0,20.922,0L257.816,415.594z"/>
			<path style="fill:#FF725E;" d="M287.38,409.12c-0.15,1.674-0.301,3.347-0.451,5.021c4.656,0,9.312,0,13.967,0
				c0.01-0.11,0.02-0.221,0.03-0.331c0.15-1.666,0.299-3.332,0.449-4.998c-4.656,0-9.312,0-13.967,0
				C287.398,408.915,287.389,409.017,287.38,409.12z"/>
			<path style="fill:#FF725E;" d="M271.96,409.12c-0.15,1.674-0.301,3.347-0.451,5.021c4.656,0,9.312,0,13.967,0
				c0.01-0.11,0.02-0.221,0.03-0.331c0.15-1.666,0.299-3.332,0.449-4.998c-4.656,0-9.312,0-13.967,0
				C271.978,408.915,271.969,409.017,271.96,409.12z"/>
			<path style="fill:#FF725E;" d="M250.003,414.141c6.684,0,13.368,0,20.052,0c0.01-0.11,0.02-0.221,0.03-0.331
				c0.15-1.666,0.299-3.332,0.449-4.998c-7.379,0-14.758,0-22.137,0c-0.006,0.07-0.013,0.14-0.019,0.211
				c-0.153,1.706-0.306,3.412-0.46,5.118C248.614,414.141,249.309,414.141,250.003,414.141z"/>
			<path style="fill:#FF725E;" d="M333.641,409.12c-0.15,1.674-0.301,3.347-0.451,5.021c4.908,0,9.816,0,14.725,0
				c-0.005-0.11-0.009-0.221-0.013-0.331c-0.067-1.666-0.135-3.332-0.203-4.998c-4.677,0-9.353,0-14.03,0
				C333.659,408.915,333.65,409.017,333.641,409.12z"/>
			<path style="fill:#FF725E;" d="M349.164,409.12c0.068,1.674,0.136,3.347,0.203,5.021c4.823,0,9.646,0,14.468,0
				c-0.014-0.107-0.027-0.214-0.041-0.322c-0.212-1.669-0.423-3.338-0.635-5.007c-4.669,0-9.339,0-14.009,0
				C349.155,408.915,349.159,409.017,349.164,409.12z"/>
			<path style="fill:#FF725E;" d="M273.991,431.631l-0.869,5.123c-0.129,0.763,0.458,1.459,1.232,1.459h18.53
				c0.672,0,1.223-0.531,1.249-1.203l0.193-5.123c0.027-0.708-0.54-1.297-1.249-1.297h-17.854
				C274.614,430.591,274.093,431.03,273.991,431.631z"/>
			<path style="fill:#FF725E;" d="M380.093,408.929c0.323,1.737,0.646,3.475,0.969,5.212c0.816,0,1.632,0,2.447,0
				c3.663,0,7.325,0,10.988,0c-0.011-0.11-0.021-0.221-0.032-0.331c-0.16-1.666-0.32-3.332-0.48-4.998c-4.638,0-9.276,0-13.914,0
				C380.079,408.851,380.086,408.89,380.093,408.929z"/>
			<path style="fill:#FF725E;" d="M247.818,431.239l-1.029,6.066c-0.081,0.475,0.286,0.908,0.767,0.908h23.194
				c0.38,0,0.704-0.274,0.767-0.648l1.029-6.066c0.081-0.475-0.285-0.908-0.767-0.908h-23.194
				C248.206,430.591,247.882,430.864,247.818,431.239z"/>
			<path style="fill:#FF725E;" d="M441.204,408.812c0.009,0.103,0.018,0.205,0.027,0.308c0.149,1.674,0.298,3.347,0.447,5.021
				c4.532,0,9.064,0,13.596,0c-0.01-0.11-0.02-0.221-0.03-0.331c-0.148-1.666-0.296-3.332-0.444-4.998c-4.137,0-8.274,0-12.411,0
				C441.994,408.812,441.599,408.812,441.204,408.812z"/>
			<path style="fill:#FF725E;" d="M234.773,415.594h-30.868c-0.188,0-0.351,0.13-0.393,0.313l-1.134,4.965
				c-0.057,0.252,0.134,0.492,0.393,0.492h31.499c0.002-0.042-0.005-0.082,0.003-0.124c0.047-0.273,0.095-0.547,0.142-0.821
				c0.251-1.452,0.503-2.903,0.754-4.355C235.212,415.819,235.023,415.594,234.773,415.594z"/>
			<path style="fill:#FF725E;" d="M445.48,422.899c-0.005-0.028,0.001-0.054-0.001-0.082h-20.167l1.026,6.32
				c6.718,0,13.437,0,20.155,0C446.155,427.058,445.818,424.979,445.48,422.899z"/>
			<path style="fill:#FF725E;" d="M219.654,440.163l-1.226,6.165c-0.076,0.382,0.216,0.738,0.605,0.738h20.356
				c0.297,0,0.551-0.211,0.606-0.503l1.164-6.165c0.072-0.38-0.22-0.732-0.607-0.732H220.26
				C219.965,439.666,219.712,439.874,219.654,440.163z"/>
			<path style="fill:#FF725E;" d="M242.707,440.323l-1.199,5.748c-0.107,0.513,0.284,0.994,0.808,0.994h20.335
				c0.414,0,0.764-0.306,0.818-0.716l0.769-5.748c0.066-0.495-0.319-0.935-0.818-0.935h-19.905
				C243.124,439.666,242.786,439.94,242.707,440.323z"/>
			<path style="fill:#FF725E;" d="M265.736,440.298l-0.754,5.955c-0.055,0.431,0.282,0.813,0.716,0.813h11.099
				c0.372,0,0.683-0.283,0.719-0.653l0.572-5.955c0.041-0.424-0.293-0.791-0.719-0.791h-10.918
				C266.089,439.666,265.781,439.937,265.736,440.298z"/>
			<path style="fill:#FF725E;" d="M219.051,431.118l-1.609,6.216c-0.115,0.445,0.221,0.88,0.681,0.88h26.453
				c0.343,0,0.636-0.247,0.693-0.585c0.337-1.988,0.678-3.975,1.144-5.963c0.122-0.763-0.251-1.075-0.84-1.075h-25.84
				C219.411,430.591,219.131,430.807,219.051,431.118z"/>
			<path style="fill:#FF725E;" d="M291.904,439.666h-10.974c-0.582,0-1.068,0.441-1.126,1.02l-0.507,5.137
				c-0.066,0.665,0.457,1.242,1.125,1.242h11.551c0.631,0,1.14-0.516,1.131-1.147l-0.071-5.137
				C293.027,440.163,292.523,439.666,291.904,439.666z"/>
			<path style="fill:#FF725E;" d="M410.786,430.591h-18.472c-0.349,0-0.621,0.303-0.583,0.649l0.695,6.45
				c0.032,0.298,0.283,0.524,0.583,0.524h18.472c0.349,0,0.621-0.303,0.583-0.649l-0.695-6.45
				C411.338,430.816,411.086,430.591,410.786,430.591z"/>
			<path style="fill:#FF725E;" d="M226.201,408.812c-0.025,0.145-0.05,0.29-0.075,0.436c-0.282,1.631-0.565,3.262-0.847,4.893
				c7.062,0,14.125,0,21.187,0c0.013-0.143,0.026-0.286,0.038-0.429c0.147-1.634,0.293-3.267,0.44-4.9
				C240.03,408.812,233.116,408.812,226.201,408.812z"/>
			<path style="fill:#FF725E;" d="M200.04,431.121l-1.429,6.258c-0.097,0.427,0.227,0.834,0.665,0.834h15.908
				c0.311,0,0.583-0.21,0.66-0.511l1.62-6.258c0.112-0.432-0.214-0.853-0.661-0.853h-16.1
				C200.387,430.591,200.111,430.811,200.04,431.121z"/>
			<path style="fill:#FF725E;" d="M274.335,402.04c-0.179,1.773-0.358,3.546-0.537,5.319c6.734,0,13.469,0,20.203,0
				c0.014-0.141,0.029-0.282,0.043-0.423c0.192-1.899,0.383-3.798,0.575-5.697l-20.201-0.021
				C274.39,401.492,274.362,401.766,274.335,402.04z"/>
			<path style="fill:#FF725E;" d="M204.202,414.141h19.417c0.085-0.071,0.14-0.118,0.225-0.189c0.281-1.624,0.562-3.249,0.844-4.873
				c0.024-0.139-0.083-0.267-0.225-0.267h-19.148c-0.106,0-0.199,0.074-0.222,0.177l-1.112,4.873
				C203.947,414.005,204.056,414.141,204.202,414.141z"/>
			<path style="fill:#FF725E;" d="M201.785,423.477l-1.056,4.625c-0.121,0.531,0.282,1.037,0.827,1.037h35.582
				c0.413,0,0.766-0.297,0.836-0.704l0.796-4.625c0.089-0.518-0.31-0.992-0.836-0.992h-35.323
				C202.216,422.817,201.873,423.091,201.785,423.477z"/>
			<path style="fill:#FF725E;" d="M252.312,402.022c-0.144,1.779-0.289,3.558-0.433,5.337c6.822,0,13.644,0,20.466,0
				c0.014-0.141,0.029-0.282,0.043-0.423c0.192-1.906,0.385-3.813,0.577-5.719l-20.586-0.021
				C252.357,401.471,252.334,401.747,252.312,402.022z"/>
			<path style="fill:#FF725E;" d="M411.105,408.812c0.009,0.103,0.018,0.205,0.027,0.308c0.149,1.674,0.298,3.347,0.447,5.021
				c4.532,0,9.064,0,13.596,0c-0.01-0.11-0.02-0.221-0.03-0.331c-0.148-1.666-0.296-3.332-0.444-4.998
				C420.17,408.812,415.638,408.812,411.105,408.812z"/>
			<path style="fill:#FF725E;" d="M198.213,440.125l-1.419,6.218c-0.084,0.37,0.197,0.722,0.576,0.722h19.209
				c0.283,0,0.526-0.2,0.58-0.478l1.209-6.218c0.071-0.365-0.208-0.703-0.58-0.703h-18.999
				C198.514,439.666,198.275,439.857,198.213,440.125z"/>
			<path style="fill:#FF725E;" d="M206.799,401.513l-1.204,5.276c-0.067,0.292,0.155,0.571,0.455,0.571h20.676
				c0.017-0.096,0.033-0.191,0.05-0.287c0.328-1.894,0.656-3.788,0.984-5.682c0.014-0.083,0.055-0.154,0.102-0.219l-20.606-0.021
				C207.037,401.149,206.848,401.3,206.799,401.513z"/>
			<path style="fill:#FF725E;" d="M453.311,430.591c-0.449,0-0.897,0-1.346,0h-16.605c-0.352,0-0.624,0.307-0.582,0.656l0.769,6.45
				c0.035,0.295,0.285,0.517,0.582,0.517h17.43c0.352,0,0.624-0.307,0.582-0.656L453.311,430.591z"/>
			<path style="fill:#FF725E;" d="M520.826,439.665l-12.814-0.061c-0.273-0.001-0.49,0.231-0.469,0.504l0.489,6.413
				c0.018,0.243,0.22,0.431,0.463,0.432l14.211,0.108c0.313,0.002,0.541-0.298,0.453-0.599l-1.886-6.46
				C521.215,439.803,521.033,439.666,520.826,439.665z"/>
			<path style="fill:#FF725E;" d="M440.095,439.666H427.23c-0.547,0-0.974,0.475-0.915,1.019l0.599,5.559
				c0.05,0.467,0.445,0.822,0.915,0.822h12.841c0.546,0,0.972-0.472,0.915-1.015l-0.575-5.559
				C440.962,440.023,440.566,439.666,440.095,439.666z"/>
			<path style="fill:#FF725E;" d="M483.894,439.666h-21.57c-0.331,0-0.589,0.286-0.556,0.615l0.635,6.282
				c0.029,0.285,0.269,0.503,0.556,0.503h21.46c0.327,0,0.584-0.28,0.557-0.605l-0.525-6.282
				C484.427,439.889,484.185,439.666,483.894,439.666z"/>
			<path style="fill:#FF725E;" d="M506.638,430.591h-13.981c-0.351,0-0.624,0.307-0.582,0.656l0.769,6.45
				c0.035,0.295,0.285,0.517,0.582,0.517h13.981c0.352,0,0.624-0.307,0.582-0.656l-0.769-6.45
				C507.186,430.813,506.935,430.591,506.638,430.591z"/>
			<path style="fill:#FF725E;" d="M518.086,430.591h-8.823c-0.352,0-0.624,0.308-0.582,0.657l0.779,6.45
				c0.035,0.295,0.285,0.516,0.582,0.516h9.928c0.391,0,0.673-0.376,0.563-0.751l-1.883-6.45
				C518.576,430.763,518.346,430.591,518.086,430.591z"/>
			<path style="fill:#FF725E;" d="M498.73,402.168c0.091,1.73,0.183,3.461,0.274,5.191c4.246,0,8.492,0,12.738,0l-1.722-5.898
				l-11.328-0.012C498.705,401.689,498.718,401.929,498.73,402.168z"/>
			<path style="fill:#FF725E;" d="M423.71,439.666h-14.638c-0.681,0-1.216,0.584-1.157,1.263l0.447,5.077
				c0.053,0.6,0.555,1.059,1.157,1.059h14.738c0.691,0,1.228-0.599,1.154-1.285l-0.547-5.077
				C424.801,440.113,424.303,439.666,423.71,439.666z"/>
			<path style="fill:#FF725E;" d="M317.843,431.339l-0.229,6.066c-0.017,0.441,0.336,0.808,0.778,0.808h19.032
				c0.418,0,0.762-0.331,0.778-0.749l0.229-6.066c0.017-0.441-0.336-0.808-0.778-0.808H318.62
				C318.202,430.591,317.858,430.921,317.843,431.339z"/>
			<path style="fill:#FF725E;" d="M240.383,422.817l-1.069,6.32h21.287l1.038-6.32C254.554,422.817,247.469,422.817,240.383,422.817
				z"/>
			<path style="fill:#FF725E;" d="M295.8,431.339l-0.229,6.066c-0.017,0.441,0.336,0.808,0.778,0.808h19.032
				c0.418,0,0.762-0.331,0.778-0.749l0.229-6.066c0.017-0.441-0.336-0.808-0.778-0.808h-19.032
				C296.159,430.591,295.816,430.921,295.8,431.339z"/>
			<path style="fill:#FF725E;" d="M360.593,430.591c-6.893,0-13.787,0-20.68,0l-0.288,7.623c7.263,0,14.526,0,21.789,0
				L360.593,430.591z"/>
			<path style="fill:#FF725E;" d="M401.73,422.817h-21.758c-0.368,0-0.645,0.334-0.576,0.696l0.974,5.147
				c0.052,0.277,0.294,0.478,0.576,0.478h12.14h9.48c0.361,0,0.637-0.324,0.579-0.68l-0.836-5.147
				C402.263,423.026,402.018,422.817,401.73,422.817z"/>
			<path style="fill:#FF725E;" d="M318.22,409.12c-0.15,1.674-0.301,3.347-0.451,5.021c4.656,0,9.312,0,13.967,0
				c0.01-0.11,0.02-0.221,0.03-0.331c0.15-1.666,0.299-3.332,0.449-4.998c-4.656,0-9.312,0-13.967,0
				C318.239,408.915,318.23,409.017,318.22,409.12z"/>
			<path style="fill:#FF725E;" d="M395.468,409.12c0.161,1.674,0.321,3.347,0.482,5.021c4.726,0,9.451,0,14.177,0
				c-0.01-0.11-0.02-0.221-0.029-0.331c-0.148-1.666-0.296-3.332-0.445-4.998c-4.738,0-9.476,0-14.214,0
				C395.448,408.915,395.458,409.017,395.468,409.12z"/>
			<path style="fill:#FF725E;" d="M364.651,409.111c0.213,1.677,0.425,3.354,0.638,5.03c4.767,0,9.534,0,14.301,0
				c-0.009-0.047-0.017-0.094-0.026-0.14c-0.321-1.73-0.643-3.459-0.964-5.189c-4.662,0-9.324,0-13.986,0
				C364.625,408.911,364.638,409.011,364.651,409.111z"/>
			<path style="fill:#FF725E;" d="M302.828,408.812c-0.009,0.103-0.018,0.205-0.028,0.308c-0.15,1.674-0.301,3.347-0.451,5.021
				c4.656,0,9.312,0,13.967,0c0.01-0.11,0.02-0.221,0.03-0.331c0.15-1.666,0.299-3.332,0.449-4.998c-2.637,0-5.275,0-7.912,0
				C306.865,408.812,304.846,408.812,302.828,408.812z"/>
			<path style="fill:#FF725E;" d="M465.545,422.817H447.62c-0.361,0-0.637,0.324-0.579,0.681l0.836,5.147
				c0.046,0.284,0.291,0.493,0.579,0.493h17.925c0.361,0,0.637-0.324,0.579-0.68l-0.836-5.147
				C466.078,423.026,465.833,422.817,465.545,422.817z"/>
			<path style="fill:#FF725E;" d="M317.646,402.04c-0.179,1.773-0.358,3.546-0.537,5.319c7.051,0,14.102,0,21.153,0
				c0-0.137,0-0.274,0-0.41c0-1.888,0-3.776,0-5.664l-20.538-0.021C317.699,401.522,317.673,401.781,317.646,402.04z"/>
			<path style="fill:#FF725E;" d="M411.665,402.168c0.091,1.73,0.183,3.461,0.274,5.191c7.383,0,14.767,0,22.15,0
				c-0.002-0.042-0.004-0.084-0.007-0.125c-0.103-1.95-0.206-3.901-0.309-5.851l-22.151-0.023
				C411.637,401.629,411.651,401.899,411.665,402.168z"/>
			<path style="fill:#FF725E;" d="M361.448,401.316c0.015,0.284,0.03,0.568,0.045,0.852c0.091,1.73,0.183,3.461,0.274,5.191
				c7.248,0,14.495,0,21.743,0c0.598,0,1.196,0,1.794,0c-0.351-2.006-0.701-4.011-1.052-6.017c-0.001-0.003,0-0.007,0-0.01
				l-22.806-0.023C361.446,401.311,361.447,401.314,361.448,401.316z"/>
			<path style="fill:#FF725E;" d="M385.806,401.831c0.322,1.843,0.644,3.685,0.966,5.528c7.905,0,15.81,0,23.714,0
				c-0.002-0.042-0.004-0.084-0.007-0.125c-0.103-1.958-0.207-3.917-0.31-5.875l-24.451-0.025
				C385.747,401.499,385.776,401.665,385.806,401.831z"/>
			<path style="fill:#FF725E;" d="M339.716,401.286c0,0.247,0,0.494,0,0.741c0,1.777,0,3.555,0,5.332c6.866,0,13.732,0,20.598,0
				c-0.002-0.042-0.004-0.084-0.007-0.125c-0.104-1.972-0.208-3.945-0.312-5.917c0-0.003,0.002-0.006,0.002-0.01L339.716,401.286z"
				/>
			<path style="fill:#FF725E;" d="M295.991,402.04c-0.179,1.773-0.358,3.546-0.537,5.319c6.734,0,13.469,0,20.203,0
				c0.014-0.141,0.029-0.282,0.043-0.423c0.191-1.892,0.382-3.783,0.573-5.674l-20.201-0.021
				C296.044,401.507,296.018,401.774,295.991,402.04z"/>
			<path style="fill:#FF725E;" d="M492.644,422.817h-10.966c-0.361,0-0.637,0.324-0.579,0.681l0.836,5.147
				c0.046,0.284,0.291,0.493,0.579,0.493h10.966c0.361,0,0.637-0.324,0.579-0.68l-0.835-5.147
				C493.177,423.026,492.932,422.817,492.644,422.817z"/>
			<path style="fill:#FF725E;" d="M501.427,409.12c0.149,1.674,0.298,3.347,0.447,5.021c3.949,0,7.899,0,11.849,0l-1.556-5.329
				c-3.589,0-7.178,0-10.767,0C501.409,408.915,501.418,409.017,501.427,409.12z"/>
			<path style="fill:#FF725E;" d="M486.351,408.812c0.009,0.103,0.018,0.205,0.027,0.308c0.149,1.674,0.298,3.347,0.447,5.021
				c4.532,0,9.064,0,13.596,0c-0.01-0.11-0.02-0.221-0.029-0.331c-0.148-1.666-0.296-3.332-0.445-4.998
				C495.415,408.812,490.883,408.812,486.351,408.812z"/>
			<path style="fill:#FF725E;" d="M456.422,402.168c0.091,1.73,0.183,3.461,0.274,5.191c6.567,0,13.134,0,19.701,0
				c-0.002-0.042-0.004-0.084-0.007-0.125c-0.102-1.936-0.204-3.871-0.307-5.807l-19.702-0.02
				C456.395,401.66,456.408,401.914,456.422,402.168z"/>
			<path style="fill:#FF725E;" d="M435.268,402.168c0.091,1.73,0.183,3.461,0.274,5.191c6.567,0,13.134,0,19.701,0
				c-0.002-0.042-0.004-0.084-0.007-0.125c-0.103-1.943-0.205-3.886-0.308-5.829l-19.702-0.02
				C435.24,401.646,435.254,401.907,435.268,402.168z"/>
		</g>
	</g>
</g>
<g id="Screen">
	<g>
		<path style="fill:#263238;" d="M167.923,114.168c3.613,2.037,133.092,8.984,200.052,9.269
			c117.163,0.498,199.658-9.269,199.658-9.269v227.081c0,0-111.538-5.827-199.658-6.273c-92.476-0.467-200.052,6.273-200.052,6.273
			V114.168z"/>
		<polygon style="fill:#455A64;" points="332.994,335.111 317.101,369.491 421.22,369.491 400.926,335.111 		"/>
		<path style="fill:#455A64;" d="M167.923,341.249v-11.06c0,0,222.627-10.409,399.709,0v12.393
			C567.632,342.582,411.261,330.189,167.923,341.249z"/>
		<polygon style="opacity:0.3;" points="332.31,336.591 329.013,343.722 405.897,343.722 401.8,336.591 		"/>
		<path style="opacity:0.1;fill:#FFFFFF;" d="M475.665,121.072c0,0-86.616,147.282-307.743,120.825v88.293
			c0,0,152.786-79.028,221.271-104.559c148.733-55.447,178.438-43.532,178.438-43.532v-67.931L475.665,121.072z"/>
		<path style="fill:#455A64;" d="M499.992,370.352H246.887v0c0-5.523,4.477-10,10-10h233.105
			C495.515,360.352,499.992,364.829,499.992,370.352L499.992,370.352z"/>
		<g>
			<path style="fill:#263238;" d="M435.921,360.562c0,0.144-33.38,0.26-74.547,0.26c-41.182,0-74.555-0.117-74.555-0.26
				s33.373-0.26,74.555-0.26C402.54,360.302,435.921,360.418,435.921,360.562z"/>
		</g>
		<g>
			<path style="fill:#FFFFFF;" d="M173.204,267.114c-0.144,0-0.26-32.058-0.26-71.595c0-39.55,0.117-71.601,0.26-71.601
				c0.144,0,0.26,32.051,0.26,71.601C173.465,235.056,173.348,267.114,173.204,267.114z"/>
		</g>
		<g>
			<path style="fill:#FF725E;" d="M165.484,341.184c0,0,0.349-0.032,1.03-0.068c0.694-0.034,1.705-0.084,3.026-0.149
				c2.673-0.12,6.594-0.295,11.64-0.521c5.059-0.217,11.242-0.483,18.42-0.791c3.591-0.149,7.43-0.308,11.501-0.476
				c4.073-0.132,8.378-0.271,12.899-0.417c36.161-1.321,86.145-2.389,141.356-2.428c55.23,0.047,105.219,1.277,141.371,2.826
				c18.078,0.752,32.696,1.587,42.795,2.208c5.039,0.349,8.954,0.62,11.623,0.805c1.319,0.105,2.328,0.185,3.02,0.241
				c0.68,0.06,1.027,0.104,1.027,0.104s-0.35-0.008-1.031-0.051c-0.693-0.043-1.703-0.106-3.024-0.189
				c-2.67-0.162-6.587-0.401-11.628-0.707c-10.101-0.558-24.72-1.337-42.798-2.042c-36.152-1.454-86.133-2.626-141.356-2.673
				c-55.203,0.038-105.183,1.048-141.344,2.275c-4.521,0.133-8.826,0.26-12.899,0.38c-4.071,0.154-7.911,0.3-11.502,0.436
				c-7.178,0.274-13.363,0.51-18.422,0.703c-5.048,0.183-8.97,0.326-11.644,0.423c-1.323,0.042-2.334,0.075-3.029,0.097
				C165.834,341.187,165.484,341.184,165.484,341.184z"/>
		</g>
		<g>
			<path style="fill:#FF725E;" d="M409.242,359.634c0,0.144-19.295,0.26-43.09,0.26c-23.804,0-43.095-0.116-43.095-0.26
				c0-0.144,19.291-0.26,43.095-0.26C389.947,359.374,409.242,359.49,409.242,359.634z"/>
		</g>
	</g>
</g>
</svg>
