<?xml version="1.0" encoding="utf-8"?>
<svg width="750px" height="500px" viewBox="0 0 750 500" version="1.1" xmlns:xlink="http://www.w3.org/1999/xlink" xmlns="http://www.w3.org/2000/svg">
  <defs>
    <path d="M750 0L750 0L750 500L0 500L0 0L750 0Z" id="path_1" />
    <clipPath id="clip_1">
      <use xlink:href="#path_1" clip-rule="evenodd" fill-rule="evenodd" />
    </clipPath>
  </defs>
  <g id="40468605_8740802">
    <path d="M750 0L750 0L750 500L0 500L0 0L750 0Z" id="40468605_8740802" fill="none" stroke="none" />
    <g id="Plant" transform="translate(588.2779 216.43513)" clip-path="url(#clip_1)">
      <g id="Group">
        <g id="Group" transform="translate(6.923218 5.814872)">
          <path d="M18.9159 11.871C20.0059 8.595 20.2619 5.04601 19.6549 1.64801C17.4819 4.35201 16.0139 7.61801 15.4359 11.038C15.0769 8.94402 14.7129 6.83101 13.9089 4.86501C13.1039 2.899 11.8109 1.065 9.97296 0C8.86597 4.533 9.42993 9.455 11.5339 13.621C9.61194 10.323 6.39594 7.802 2.73492 6.72501C3.43591 11.709 7.22491 16.125 12.0439 17.575L15.47 17.137C18.259 16.643 20.864 15.168 22.723 13.032C24.582 10.895 25.683 8.11201 25.787 5.28101C22.8959 6.70799 20.4619 9.043 18.9159 11.871L18.9159 11.871Z" id="Group" fill="#FDBBB5" stroke="none" />
          <path d="M20.0199 14.99C21.3679 10.938 21.6849 6.54701 20.9339 2.343C18.2459 5.688 16.4299 9.729 15.7139 13.96C15.2709 11.37 14.8199 8.75601 13.825 6.32401C12.829 3.892 11.2289 1.62401 8.95496 0.306C7.58496 5.914 8.28296 12.003 10.886 17.156C8.50897 13.076 4.52997 9.95801 0 8.625C0.867004 14.791 5.55402 20.254 11.516 22.048L15.755 21.506C19.205 20.894 22.428 19.07 24.728 16.427C27.028 13.784 28.389 10.34 28.519 6.839C24.9429 8.603 21.9319 11.491 20.0199 14.99L20.0199 14.99Z" id="Group" fill="#E97A75" stroke="none" />
        </g>
        <g id="Group" transform="translate(73.11334 31.335869)">
          <path d="M13.4888 10.213C15.4847 8.811 16.9618 6.93901 17.7428 4.82201C15.1498 5.494 12.8778 6.74701 11.2078 8.42401C11.7008 7.12601 12.1968 5.81401 12.3118 4.41701C12.4268 3.02 12.1318 1.509 11.1548 0.218002C8.68982 2.311 7.32483 5.257 7.37585 8.37C7.14587 5.808 5.67285 3.18399 3.34583 1.19C2.05884 4.222 3.26984 8.116 6.31982 10.758L9.02081 11.82C11.2698 12.608 13.7368 12.783 15.8908 12.306C18.0448 11.829 19.8708 10.704 20.9738 9.173C18.3127 8.86499 15.6608 9.233 13.4888 10.213L13.4888 10.213Z" id="Group" fill="#FDBBB5" stroke="none" />
          <path d="M13.1768 12.364C15.6458 10.629 17.4728 8.31403 18.4398 5.69601C15.2328 6.52802 12.4208 8.07701 10.3558 10.152C10.9658 8.54602 11.5788 6.92401 11.7218 5.19501C11.8648 3.466 11.4998 1.59801 10.2898 0C7.24078 2.589 5.55078 6.23399 5.61481 10.085C5.32983 6.91499 3.50781 3.66899 0.629822 1.20299C-0.962158 4.95399 0.535828 9.77197 4.30981 13.039L7.65179 14.353C10.4338 15.328 13.4858 15.544 16.1508 14.955C18.8158 14.365 21.0738 12.973 22.4388 11.08C19.1458 10.696 15.8638 11.151 13.1768 12.364L13.1768 12.364Z" id="Group" fill="#E97A75" stroke="none" />
        </g>
        <g id="Group" transform="translate(31.371094 0)">
          <path d="M37.932 26.7519C37.775 20.3939 37.344 13.7769 34.213 8.24087C31.082 2.70487 24.462 -1.37013 18.362 0.431861C10.91 2.63286 8.18097 11.5959 6.82001 19.2459C2.35699 44.3368 0.0720215 69.8149 0 95.2999L34.775 92.2199C36.621 70.4389 38.47 48.6049 37.932 26.7519L37.932 26.7519Z" id="Group" fill="#90C418" stroke="none" />
          <path d="M16.521 1.47088C14.297 8.92788 13.148 16.7459 12.285 24.4649C9.737 47.7569 9.64899 71.2249 8.06097 94.5859C8.94897 78.9959 9.28296 63.3809 10.178 47.7899C11.282 32.2649 12.047 16.4689 16.521 1.47088L16.521 1.47088L16.521 1.47088Z" id="Shape" fill="#FC4850" stroke="none" />
          <path d="M22.583 0.292869C20.249 31.3529 19.547 62.5159 18.697 93.6439C19.234 62.5109 19.94 31.3279 22.583 0.292869L22.583 0.292869L22.583 0.292869Z" id="Shape" fill="#FC4850" stroke="none" />
          <path d="M29.587 2.91288C30.661 17.8649 31.161 32.8549 31.317 47.8439C31.32 62.8189 31.203 77.8749 29.084 92.7249C31.0031 77.8539 31.1431 62.8199 31.067 47.8459C30.986 32.8579 30.461 17.8739 29.587 2.91288L29.587 2.91288L29.587 2.91288Z" id="Shape" fill="#FC4850" stroke="none" />
          <g id="Group" transform="translate(0 6.791057E-06)" opacity="0.3">
            <path d="M37.932 26.7519C37.775 20.3939 37.344 13.7769 34.213 8.24086C31.082 2.70486 24.462 -1.37013 18.362 0.431854C10.91 2.63286 8.18097 11.5959 6.82001 19.2458C2.35699 44.3368 0.0720215 69.8149 0 95.2999L34.775 92.2199C36.621 70.4389 38.47 48.6049 37.932 26.7519L37.932 26.7519Z" id="Shape" fill="#000000" stroke="none" />
          </g>
        </g>
        <g id="Group" transform="translate(6.9241333 24.695473)">
          <path d="M31 18.8794C30.25 11.9784 28.504 4.0164 22.244 1.01741C15.845 -2.04759 7.87305 2.21841 4.383 8.39641C0.893005 14.5744 0.710999 22.0124 0.617981 29.1074C0.411987 44.7824 0.205994 60.4574 0 76.1324L32.002 71.3174C33.227 53.8544 32.891 36.2824 31 18.8794L31 18.8794Z" id="Group" fill="#90C418" stroke="none" />
          <path d="M11.49 1.9904C6.36499 25.9164 7.85999 50.6124 8.09601 74.9134C7.54297 50.6314 6.06195 25.8544 11.49 1.9904L11.49 1.9904L11.49 1.9904Z" id="Shape" fill="#FC4850" stroke="none" />
          <path d="M15.824 1.89639C16.066 25.6984 16.677 49.6454 18.033 73.4184C16.362 49.6264 15.758 25.7454 15.824 1.89639L15.824 1.89639L15.824 1.89639Z" id="Shape" fill="#FC4850" stroke="none" />
          <path d="M22.244 1.0174C26.1689 24.4514 28.623 48.3374 27.334 72.1104C28.309 48.3264 25.862 24.5034 22.244 1.0174L22.244 1.0174L22.244 1.0174Z" id="Shape" fill="#FC4850" stroke="none" />
        </g>
        <g id="Group" transform="translate(53.95404 42.846153)">
          <path d="M33.902 17.0587C34.5551 11.6447 34.636 5.24271 30.379 1.83371C26.028 -1.6503 19.169 0.196716 15.4 4.3027C11.631 8.40869 10.169 14.0677 8.836 19.4797C5.89099 31.4367 2.94501 43.3947 0 55.3517L25.343 57.3587C29.386 44.2157 32.2541 30.7107 33.902 17.0587L33.902 17.0587Z" id="Group" fill="#90C418" stroke="none" />
          <path d="M21.9781 0.66571C13.8321 18.0747 10.5871 37.2287 6.41211 55.8597C10.2731 37.1757 13.55 17.9457 21.9781 0.66571L21.9781 0.66571L21.9781 0.66571Z" id="Shape" fill="#FC4850" stroke="none" />
          <path d="M25.3111 1.36472C21.2881 19.6647 17.5101 38.0267 14.2811 56.4837C17.2001 37.9757 20.9861 19.5937 25.3111 1.36472L25.3111 1.36472L25.3111 1.36472Z" id="Shape" fill="#FC4850" stroke="none" />
          <path d="M30.3791 1.83371C29.2481 20.4647 26.8771 39.1847 21.6301 57.1367C26.5731 39.1027 28.9371 20.4457 30.3791 1.83371L30.3791 1.83371L30.3791 1.83371Z" id="Shape" fill="#FC4850" stroke="none" />
        </g>
        <path d="M47.8681 150.25L45.2991 150.25C20.3851 150.25 0.18811 130.053 0.18811 105.139L0.18811 90.2469L92.9791 90.2469L92.9791 105.139C92.9791 130.053 72.7821 150.25 47.8681 150.25L47.8681 150.25Z" id="Shape" fill="#FC4850" stroke="none" />
        <path d="M0.241089 106.319C24.3261 106.319 48.4111 106.319 72.4961 106.319C79.3061 106.319 86.1161 106.319 92.9271 106.319C93.2491 106.319 93.2491 105.819 92.9271 105.819C68.842 105.819 44.7571 105.819 20.6721 105.819C13.8621 105.819 7.05206 105.819 0.241028 105.819C-0.079895 105.819 -0.0808716 106.319 0.241089 106.319L0.241089 106.319L0.241089 106.319Z" id="Shape" fill="#90C418" stroke="none" />
      </g>
    </g>
    <g id="Keyboard" transform="translate(220.5882 386.017)" clip-path="url(#clip_1)">
      <g id="Group">
        <path d="M9.2588 62.563C3.3878 62.551 -0.991196 57.905 0.194809 52.947C3.70581 38.27 10.4738 11.676 12.7148 2.89499C13.1478 1.19998 14.8908 -0.00302124 16.9038 0L317.175 0.502991C319.777 0.506989 322.036 2.051 322.636 4.23398L335.875 52.434C337.28 57.549 332.708 62.428 326.614 62.311C305.646 61.907 263.448 61.064 250.814 60.58C233.777 59.927 186.072 62.212 163.735 62.539C145.232 62.809 43.6128 62.632 9.2588 62.563L9.2588 62.563Z" id="Shape" fill="#FC4850" stroke="none" />
        <g id="Group" transform="translate(229.73792 11.767975)" opacity="0.2">
          <path d="M66.6609 18.21L65.9719 15.069C65.8149 14.353 65.0898 13.835 64.2449 13.835L56.0129 13.835C54.9339 13.835 54.1089 14.666 54.2769 15.585L54.8479 18.726C54.9819 19.463 55.7189 20.007 56.5839 20.007L64.9329 20.007C66.0349 20.007 66.8649 19.144 66.6609 18.21L66.6609 18.21Z" id="Shape" fill="#FFFFFF" stroke="none" />
          <path d="M53.0959 18.257L52.5249 15.116C52.3909 14.379 51.6539 13.835 50.7889 13.835L43.6469 13.835C42.5959 13.835 41.7799 14.625 41.9009 15.525L42.3229 18.666C42.4259 19.43 43.1759 20.007 44.0689 20.007L51.3609 20.007C52.4389 20.007 53.2629 19.177 53.0959 18.257L53.0959 18.257Z" id="Shape" fill="#FFFFFF" stroke="none" />
          <path d="M52.1679 21.427L44.6649 21.427C43.6139 21.427 42.7979 22.217 42.9189 23.117L43.3409 26.259C43.4439 27.023 44.1939 27.6 45.0869 27.6L52.7399 27.6C53.8189 27.6 54.6439 26.769 54.4759 25.85L53.9048 22.708C53.7709 21.97 53.0339 21.427 52.1679 21.427L52.1679 21.427Z" id="Shape" fill="#FFFFFF" stroke="none" />
          <path d="M82.9609 30.167C82.7659 29.492 82.0629 29.018 81.2559 29.018L69.6799 29.018L69.0519 29.12L69.0299 29.018L55.6619 29.018L55.0669 29.098L55.0519 29.018L45.6839 29.018C44.6329 29.018 43.8169 29.808 43.9379 30.708L44.3939 34.109C44.4979 34.881 45.2609 35.4601 46.1619 35.45L82.1479 35.056C83.2819 35.044 84.1059 34.122 83.8309 33.174L82.9609 30.167L82.9609 30.167Z" id="Shape" fill="#FFFFFF" stroke="none" />
          <path d="M43.0489 12.416L49.9799 12.416C51.0589 12.416 51.8839 11.585 51.7159 10.666L51.2929 8.33902C51.1589 7.60202 50.4219 7.05801 49.5569 7.05801L42.7369 7.05801C41.6859 7.05801 40.8699 7.84802 40.9909 8.74802L41.3029 11.075C41.4049 11.839 42.1559 12.416 43.0489 12.416L43.0489 12.416Z" id="Shape" fill="#FFFFFF" stroke="none" />
          <path d="M55.2039 12.416L63.2689 12.416C64.3708 12.416 65.2009 11.552 64.9958 10.619L64.4858 8.29202C64.3289 7.57602 63.6038 7.05801 62.7589 7.05801L54.7809 7.05801C53.7018 7.05801 52.8769 7.88901 53.0449 8.80801L53.4679 11.135C53.6019 11.873 54.3379 12.416 55.2039 12.416L55.2039 12.416Z" id="Shape" fill="#FFFFFF" stroke="none" />
          <path d="M66.6389 5.02402L73.2179 5.02402C74.3609 5.02402 75.1999 4.09802 74.9229 3.14102L74.5049 1.69702C74.3099 1.02203 73.6069 0.548035 72.7999 0.548035L66.3218 0.548035C65.2198 0.548035 64.3898 1.41205 64.5948 2.34503L64.9119 3.78903C65.0689 4.50504 65.7939 5.02402 66.6389 5.02402L66.6389 5.02402Z" id="Shape" fill="#FFFFFF" stroke="none" />
          <path d="M77.2809 10.534L76.6079 8.20703C76.4129 7.53204 75.7099 7.05804 74.9029 7.05804L68.0119 7.05804C66.9099 7.05804 66.0799 7.92206 66.2849 8.85504L66.7949 11.182C66.9519 11.898 67.6769 12.416 68.5219 12.416L75.5759 12.416C76.7179 12.416 77.5569 11.49 77.2809 10.534L77.2809 10.534Z" id="Shape" fill="#FFFFFF" stroke="none" />
          <path d="M53.5749 5.02402L61.3859 5.02402C62.4879 5.02402 63.3179 4.16 63.1129 3.22702L62.7959 1.78201C62.6389 1.06601 61.9139 0.548004 61.0689 0.548004L53.3119 0.548004C52.2329 0.548004 51.4079 1.379 51.5759 2.298L51.8389 3.74301C51.9729 4.48004 52.7099 5.02402 53.5749 5.02402L53.5749 5.02402Z" id="Shape" fill="#FFFFFF" stroke="none" />
          <path d="M78.5379 5.02402L84.1419 5.02402C85.3199 5.02402 86.1649 4.04401 85.8249 3.07101L85.3199 1.62701C85.0959 0.987 84.4119 0.548004 83.6369 0.548004L78.1189 0.548004C76.9759 0.548004 76.1369 1.474 76.4139 2.42999L76.8319 3.875C77.0279 4.55002 77.7309 5.02402 78.5379 5.02402L78.5379 5.02402Z" id="Shape" fill="#FFFFFF" stroke="none" />
          <path d="M86.0129 34.851L94.7879 34.918C95.9569 34.905 96.7859 33.93 96.4489 32.965L90.1429 14.913C89.9189 14.273 89.2359 13.835 88.4599 13.835L82.1829 13.835C81.0399 13.835 80.2009 14.761 80.4779 15.717L86.0129 34.851L86.0129 34.851L86.0129 34.851Z" id="Shape" fill="#FFFFFF" stroke="none" />
          <path d="M50.0869 3.27304L49.8239 1.82904C49.6899 1.09204 48.9529 0.548035 48.0879 0.548035L41.5489 0.548035C40.4979 0.548035 39.6819 1.33804 39.8029 2.23804L39.9969 3.68304C40.0999 4.44705 40.8499 5.02405 41.7429 5.02405L48.3509 5.02405C49.4299 5.02402 50.2539 4.19302 50.0869 3.27304L50.0869 3.27304Z" id="Shape" fill="#FFFFFF" stroke="none" />
          <path d="M2.8609 11.253L9.7919 11.253C10.8709 11.253 11.6949 10.422 11.5279 9.50302L11.1049 7.17603C10.9709 6.43903 10.2339 5.89502 9.3689 5.89502L2.54889 5.89502C1.49789 5.89502 0.681885 6.68503 0.802887 7.58502L1.1149 9.91202C1.2179 10.676 1.9679 11.253 2.8609 11.253L2.8609 11.253Z" id="Shape" fill="#FFFFFF" stroke="none" />
          <path d="M15.0159 11.253L23.0809 11.253C24.1829 11.253 25.0129 10.389 24.8079 9.45602L24.2979 7.12903C24.1409 6.41302 23.4159 5.89502 22.5709 5.89502L14.5929 5.89502C13.5139 5.89502 12.6889 6.72601 12.8569 7.64502L13.2799 9.97202C13.4139 10.709 14.1509 11.253 15.0159 11.253L15.0159 11.253Z" id="Shape" fill="#FFFFFF" stroke="none" />
          <path d="M26.8469 4.47601L33.4259 4.47601C34.5689 4.47601 35.4079 3.55002 35.1309 2.59402L34.7129 1.15002C34.5179 0.475037 33.8139 0.0010376 33.0079 0.0010376L26.5299 0.0010376C25.4279 0.0010376 24.5979 0.865051 24.8029 1.79803L25.1199 3.24203C25.2769 3.95804 26.0029 4.47601 26.8469 4.47601L26.8469 4.47601Z" id="Shape" fill="#FFFFFF" stroke="none" />
          <path d="M37.0929 9.37003L36.4199 7.04303C36.2249 6.36804 35.5219 5.89404 34.7149 5.89404L27.8239 5.89404C26.7219 5.89404 25.8919 6.75806 26.0969 7.69104L26.6069 10.018C26.7639 10.734 27.4889 11.252 28.3339 11.252L35.3879 11.252C36.5299 11.253 37.3689 10.327 37.0929 9.37003L37.0929 9.37003Z" id="Shape" fill="#FFFFFF" stroke="none" />
          <path d="M13.7839 4.47601L21.5949 4.47601C22.6969 4.47601 23.5269 3.612 23.3219 2.67902L23.0049 1.23401C22.8479 0.518005 22.1229 0 21.2779 0L13.5209 0C12.4419 0 11.6179 0.830994 11.7849 1.75L12.0479 3.19501C12.1819 3.93204 12.9189 4.47601 13.7839 4.47601L13.7839 4.47601Z" id="Shape" fill="#FFFFFF" stroke="none" />
          <path d="M10.2959 2.72601L10.0329 1.28201C9.8989 0.545013 9.16189 0.00100708 8.29691 0.00100708L1.7579 0.00100708C0.706909 0.00100708 -0.1091 0.791016 0.0119019 1.69101L0.205902 3.13501C0.308899 3.89902 1.0589 4.47601 1.9519 4.47601L8.55991 4.47601C9.63889 4.47601 10.4629 3.64502 10.2959 2.72601L10.2959 2.72601Z" id="Shape" fill="#FFFFFF" stroke="none" />
          <path d="M81.6739 25.717L80.7649 22.575C80.5699 21.9001 79.8669 21.4261 79.0599 21.4261L71.1619 21.4261C70.0599 21.4261 69.2299 22.2901 69.4349 23.2231L70.1239 26.3651C70.2809 27.0811 71.0059 27.5991 71.8509 27.5991L79.9689 27.5991C81.1109 27.599 81.9499 26.673 81.6739 25.717L81.6739 25.717Z" id="Shape" fill="#FFFFFF" stroke="none" />
          <path d="M79.4769 18.125L78.5679 14.984C78.3729 14.3091 77.6699 13.8351 76.8629 13.8351L69.4968 13.8351C68.3948 13.8351 67.5648 14.6991 67.7698 15.632L68.4589 18.773C68.6158 19.489 69.3409 20.007 70.1859 20.007L77.7719 20.007C78.9149 20.007 79.7539 19.081 79.4769 18.125L79.4769 18.125Z" id="Shape" fill="#FFFFFF" stroke="none" />
          <path d="M88.5889 10.463L87.6999 7.97302C87.5059 7.42902 86.9229 7.05801 86.2629 7.05801L80.2219 7.05801C79.0789 7.05801 78.2399 7.98401 78.5168 8.94L79.1898 11.267C79.3848 11.942 80.0878 12.416 80.8948 12.416L86.9048 12.416C88.0839 12.416 88.9279 11.436 88.5889 10.463L88.5889 10.463Z" id="Shape" fill="#FFFFFF" stroke="none" />
          <path d="M68.3249 25.802L67.6359 22.66C67.4789 21.944 66.7538 21.426 65.9089 21.426L57.3929 21.426C56.3139 21.426 55.4889 22.257 55.6569 23.176L56.2279 26.317C56.3619 27.054 57.0989 27.598 57.9639 27.598L66.5979 27.598C67.6999 27.599 68.5299 26.736 68.3249 25.802L68.3249 25.802Z" id="Shape" fill="#FFFFFF" stroke="none" />
          <path d="M26.2459 25.965L25.5569 22.824C25.3999 22.108 24.6749 21.59 23.8299 21.59L15.5979 21.59C14.5189 21.59 13.6939 22.421 13.8619 23.34L14.4329 26.481C14.5669 27.218 15.3039 27.762 16.1689 27.762L24.5179 27.762C25.6209 27.762 26.4509 26.898 26.2459 25.965L26.2459 25.965Z" id="Shape" fill="#FFFFFF" stroke="none" />
          <path d="M11.7539 29.181L4.24988 29.181C3.19888 29.181 2.38287 29.971 2.50388 30.871L2.92587 34.013C3.02887 34.777 3.77887 35.354 4.67188 35.354L12.3249 35.354C13.4039 35.354 14.2279 34.523 14.0609 33.604L13.4899 30.462C13.3569 29.724 12.6199 29.181 11.7539 29.181L11.7539 29.181Z" id="Shape" fill="#FFFFFF" stroke="none" />
          <path d="M41.2589 33.471L40.3499 30.329C40.1549 29.6541 39.4519 29.1801 38.6449 29.1801L30.7469 29.1801C29.6449 29.1801 28.8149 30.0441 29.0199 30.9771L29.7089 34.119C29.8659 34.8351 30.5909 35.3531 31.4359 35.3531L39.5539 35.3531C40.6969 35.354 41.5359 34.428 41.2589 33.471L41.2589 33.471Z" id="Shape" fill="#FFFFFF" stroke="none" />
          <path d="M27.9109 33.557L27.2219 30.415C27.0649 29.699 26.3399 29.181 25.4949 29.181L16.9789 29.181C15.8999 29.181 15.0749 30.012 15.2429 30.931L15.8139 34.072C15.9479 34.809 16.6849 35.353 17.5499 35.353L26.1839 35.353C27.2849 35.354 28.1149 34.49 27.9109 33.557L27.9109 33.557Z" id="Shape" fill="#FFFFFF" stroke="none" />
        </g>
        <g id="Group" transform="translate(16.376236 11.238983)" opacity="0.2">
          <path d="M48.0436 25.189L48.2976 21.657C48.3526 20.897 47.6526 20.255 46.7695 20.255L37.7316 20.255C36.9455 20.255 36.2865 20.769 36.2085 21.443L35.7966 24.975C35.7056 25.752 36.4136 26.427 37.3196 26.427L46.5156 26.427C47.3246 26.428 47.9936 25.886 48.0436 25.189L48.0436 25.189Z" id="Shape" fill="#FFFFFF" stroke="none" />
          <path d="M52.3236 11.244L59.5166 11.244C60.3515 11.244 61.0336 10.666 61.0476 9.94601L61.1006 7.229C61.1146 6.491 60.4256 5.88602 59.5696 5.88602L52.5186 5.88602C51.7096 5.88602 51.0406 6.42801 50.9906 7.12503L50.7955 9.84204C50.7406 10.602 51.4406 11.244 52.3236 11.244L52.3236 11.244Z" id="Shape" fill="#FFFFFF" stroke="none" />
          <path d="M39.0906 11.244L47.6076 11.244C48.4165 11.244 49.0856 10.701 49.1356 10.005L49.3306 7.28799C49.3856 6.52798 48.6856 5.88599 47.8026 5.88599L39.4076 5.88599C38.6216 5.88599 37.9626 6.39999 37.8846 7.07397L37.5676 9.79099C37.4756 10.57 38.1836 11.244 39.0906 11.244L39.0906 11.244Z" id="Shape" fill="#FFFFFF" stroke="none" />
          <path d="M63.5056 11.244L74.2536 11.244C74.7076 11.244 75.0766 10.926 75.0766 10.534L75.0766 6.59604C75.0766 6.20404 74.7085 5.88605 74.2536 5.88605L63.5826 5.88605C63.1336 5.88605 62.7676 6.19604 62.7596 6.58405L62.6826 10.522C62.6746 10.919 63.0456 11.244 63.5056 11.244L63.5056 11.244Z" id="Shape" fill="#FFFFFF" stroke="none" />
          <path d="M105.63 11.244L116.84 11.244C117.294 11.244 117.663 10.926 117.663 10.534L117.663 6.59604C117.663 6.20404 117.295 5.88605 116.84 5.88605L105.63 5.88605C105.176 5.88605 104.807 6.20404 104.807 6.59604L104.807 10.534C104.807 10.927 105.175 11.244 105.63 11.244L105.63 11.244Z" id="Shape" fill="#FFFFFF" stroke="none" />
          <path d="M92.1586 11.244L102.338 11.244C102.792 11.244 103.161 10.926 103.161 10.534L103.161 6.59604C103.161 6.20404 102.793 5.88605 102.338 5.88605L92.1586 5.88605C91.7045 5.88605 91.3356 6.20404 91.3356 6.59604L91.3356 10.534C91.3356 10.927 91.7046 11.244 92.1586 11.244L92.1586 11.244Z" id="Shape" fill="#FFFFFF" stroke="none" />
          <path d="M120.132 11.244L131.539 11.244C131.988 11.244 132.354 10.933 132.362 10.546L132.438 6.60803C132.446 6.21204 132.075 5.88702 131.615 5.88702L120.132 5.88702C119.678 5.88702 119.309 6.20502 119.309 6.59702L119.309 10.535C119.309 10.927 119.677 11.244 120.132 11.244L120.132 11.244Z" id="Shape" fill="#FFFFFF" stroke="none" />
          <path d="M77.5446 11.244L88.8676 11.244C89.3226 11.244 89.6906 10.926 89.6906 10.534L89.6906 6.59604C89.6906 6.20404 89.3226 5.88605 88.8676 5.88605L77.5446 5.88605C77.0906 5.88605 76.7216 6.20404 76.7216 6.59604L76.7216 10.534C76.7216 10.927 77.0896 11.244 77.5446 11.244L77.5446 11.244Z" id="Shape" fill="#FFFFFF" stroke="none" />
          <path d="M158.752 20.469L148.618 20.469C147.893 20.469 147.308 20.982 147.32 21.607L147.397 25.541C147.409 26.152 147.986 26.642 148.695 26.642L158.916 26.642C159.651 26.642 160.24 26.116 160.213 25.483L160.049 21.549C160.024 20.946 159.45 20.469 158.752 20.469L158.752 20.469Z" id="Shape" fill="#FFFFFF" stroke="none" />
          <path d="M174.667 20.469L162.996 20.469C162.261 20.469 161.672 20.995 161.699 21.629L161.863 25.563C161.888 26.165 162.462 26.642 163.16 26.642L175.017 26.642C175.773 26.642 176.369 26.087 176.311 25.437L175.961 21.5031C175.91 20.919 175.346 20.469 174.667 20.469L174.667 20.469Z" id="Shape" fill="#FFFFFF" stroke="none" />
          <path d="M59.2886 20.255L51.4866 20.255C50.6776 20.255 50.0086 20.797 49.9585 21.494L49.7045 25.026C49.6496 25.786 50.3495 26.428 51.2326 26.428L59.2196 26.428C60.0556 26.428 60.7366 25.85 60.7506 25.13L60.8196 21.598C60.8336 20.86 60.1436 20.255 59.2886 20.255L59.2886 20.255Z" id="Shape" fill="#FFFFFF" stroke="none" />
          <path d="M161.383 13.823L161.547 17.757C161.572 18.359 162.145 18.836 162.844 18.836L174.343 18.836C175.099 18.836 175.695 18.281 175.637 17.631L175.287 13.6971C175.235 13.114 174.671 12.6631 173.993 12.6631L162.68 12.6631C161.945 12.664 161.356 13.189 161.383 13.823L161.383 13.823Z" id="Shape" fill="#FFFFFF" stroke="none" />
          <path d="M144.841 20.255C145.29 20.255 145.656 20.566 145.664 20.953L145.757 25.707C145.765 26.103 145.394 26.428 144.934 26.428L133.491 26.428C133.627 26.174 133.713 25.885 133.717 25.699L133.808 20.953C133.815 20.566 134.182 20.255 134.631 20.255L144.841 20.255ZM131.339 20.256C131.799 20.256 132.17 20.581 132.162 20.977L132.072 25.677C132.068 25.867 132.153 26.167 132.291 26.429L120.132 26.429C119.677 26.429 119.309 26.111 119.309 25.719L119.309 20.966C119.309 20.574 119.678 20.256 120.132 20.256L131.339 20.256Z" id="Group" fill="#FFFFFF" fill-rule="evenodd" stroke="none" />
          <path d="M102.338 20.255L92.1586 20.255C91.7046 20.255 91.3356 20.573 91.3356 20.965L91.3356 25.688C91.3356 26.08 90.9676 26.398 90.5126 26.398L90.5126 26.398C90.0586 26.398 89.6896 26.08 89.6896 25.688L89.6896 20.965C89.6896 20.573 89.3216 20.255 88.8666 20.255L77.5436 20.255C77.0896 20.255 76.7206 20.573 76.7206 20.965L76.7206 25.688C76.7206 26.08 76.3526 26.398 75.8976 26.398L75.8976 26.398C75.4436 26.398 75.0746 26.08 75.0746 25.688L75.0746 20.965C75.0746 20.573 74.7066 20.255 74.2516 20.255L63.2996 20.255C62.8506 20.255 62.4846 20.565 62.4766 20.953L62.3836 25.706C62.3756 26.103 62.7466 26.428 63.2066 26.428L102.337 26.428C102.791 26.428 103.16 26.11 103.16 25.718L103.16 20.965C103.161 20.573 102.793 20.255 102.338 20.255L102.338 20.255Z" id="Shape" fill="#FFFFFF" stroke="none" />
          <path d="M116.84 20.255L105.63 20.255C105.176 20.255 104.807 20.573 104.807 20.965L104.807 25.718C104.807 26.11 105.175 26.428 105.63 26.428L116.84 26.428C117.294 26.428 117.663 26.11 117.663 25.718L117.663 20.965C117.663 20.573 117.294 20.255 116.84 20.255L116.84 20.255Z" id="Shape" fill="#FFFFFF" stroke="none" />
          <path d="M47.3146 12.664L38.6166 12.664C37.8306 12.664 37.1716 13.178 37.0936 13.852L36.6816 17.384C36.5906 18.161 37.2986 18.836 38.2046 18.836L47.0606 18.836C47.8696 18.836 48.5386 18.294 48.5886 17.597L48.8426 14.065C48.8976 13.306 48.1976 12.664 47.3146 12.664L47.3146 12.664Z" id="Shape" fill="#FFFFFF" stroke="none" />
          <path d="M148.398 11.458L158.284 11.458C159.019 11.458 159.608 10.932 159.581 10.299L159.451 7.18002C159.426 6.57803 158.852 6.10101 158.154 6.10101L148.337 6.10101C147.612 6.10101 147.027 6.61401 147.039 7.23901L147.1 10.358C147.112 10.968 147.69 11.458 148.398 11.458L148.398 11.458Z" id="Shape" fill="#FFFFFF" stroke="none" />
          <path d="M135.314 11.244L144.155 11.244C144.88 11.244 145.465 10.731 145.453 10.106L145.392 6.98703C145.38 6.37604 144.802 5.88602 144.094 5.88602L135.374 5.88602C134.665 5.88602 134.088 6.37601 134.076 6.98703L134.016 10.106C134.005 10.732 134.589 11.244 135.314 11.244L135.314 11.244Z" id="Shape" fill="#FFFFFF" stroke="none" />
          <path d="M74.2526 12.664L63.4496 12.664C63.0006 12.664 62.6346 12.974 62.6266 13.362L62.5336 18.115C62.5256 18.512 62.8966 18.837 63.3566 18.837L74.2526 18.837C74.7066 18.837 75.0756 18.519 75.0756 18.127L75.0756 13.374C75.0756 12.981 74.7076 12.664 74.2526 12.664L74.2526 12.664Z" id="Shape" fill="#FFFFFF" stroke="none" />
          <path d="M51.7776 18.836L59.3676 18.836C60.2036 18.836 60.8846 18.258 60.8986 17.538L60.9676 14.006C60.9816 13.268 60.2926 12.664 59.4366 12.664L52.0316 12.664C51.2226 12.664 50.5536 13.207 50.5036 13.903L50.2496 17.435C50.1956 18.194 50.8956 18.836 51.7776 18.836L51.7776 18.836Z" id="Shape" fill="#FFFFFF" stroke="none" />
          <path d="M191.085 4.46802L207.718 4.46802C208.658 4.46802 209.389 3.76303 209.283 2.95703L209.053 1.20602C208.963 0.516022 208.283 -0.00396729 207.478 3.05176e-05L190.825 0.0910339C189.878 0.0960388 189.151 0.815033 189.273 1.62402L189.523 3.28403C189.625 3.96103 190.294 4.46802 191.085 4.46802L191.085 4.46802Z" id="Shape" fill="#FFFFFF" stroke="none" />
          <path d="M188.135 12.664L178.247 12.664C177.491 12.664 176.895 13.219 176.953 13.869L177.303 17.803C177.355 18.386 177.919 18.837 178.597 18.837L188.727 18.837C189.51 18.837 190.115 18.243 190.014 17.574L189.422 13.64C189.338 13.081 188.787 12.664 188.135 12.664L188.135 12.664Z" id="Shape" fill="#FFFFFF" stroke="none" />
          <path d="M194.145 26.428L210.907 26.428C211.682 26.428 212.284 25.847 212.197 25.183L211.681 21.249C211.607 20.683 211.052 20.255 210.391 20.255L193.553 20.255C192.77 20.255 192.165 20.849 192.266 21.518L192.858 25.452C192.942 26.011 193.493 26.428 194.145 26.428L194.145 26.428Z" id="Shape" fill="#FFFFFF" stroke="none" />
          <path d="M25.2336 18.836L33.4736 18.836C34.2596 18.836 34.9186 18.322 34.9966 17.648L35.4086 14.116C35.4996 13.339 34.7915 12.664 33.8855 12.664L25.8065 12.664C25.0425 12.664 24.3955 13.149 24.2905 13.802L23.7186 17.334C23.5876 18.127 24.3036 18.836 25.2336 18.836L25.2336 18.836Z" id="Shape" fill="#FFFFFF" stroke="none" />
          <path d="M131.484 12.664L120.131 12.664C119.677 12.664 119.308 12.982 119.308 13.374L119.308 18.127C119.308 18.519 119.676 18.837 120.131 18.837L131.393 18.837C131.842 18.837 132.208 18.526 132.216 18.139L132.307 13.386C132.315 12.989 131.944 12.664 131.484 12.664L131.484 12.664Z" id="Shape" fill="#FFFFFF" stroke="none" />
          <path d="M145.503 12.664C145.503 12.664 133.967 12.664 133.967 12.664C133.967 12.664 133.849 18.836 133.849 18.836C133.849 18.836 145.623 18.836 145.623 18.836C145.623 18.836 145.503 12.664 145.503 12.664Z" id="Polygon" fill="#FFFFFF" fill-rule="evenodd" stroke="none" />
          <path d="M88.8666 12.664L77.5436 12.664C77.0896 12.664 76.7206 12.982 76.7206 13.374L76.7206 18.127C76.7206 18.519 77.0886 18.837 77.5436 18.837L88.8666 18.837C89.3215 18.837 89.6896 18.519 89.6896 18.127L89.6896 13.374C89.6896 12.981 89.3216 12.664 88.8666 12.664L88.8666 12.664Z" id="Shape" fill="#FFFFFF" stroke="none" />
          <path d="M158.436 12.877L148.469 12.877C147.744 12.877 147.159 13.39 147.171 14.015L147.248 17.949C147.26 18.56 147.838 19.05 148.546 19.05L158.599 19.05C159.334 19.05 159.923 18.524 159.896 17.891L159.732 13.957C159.708 13.354 159.135 12.877 158.436 12.877L158.436 12.877Z" id="Shape" fill="#FFFFFF" stroke="none" />
          <path d="M102.338 12.664L92.1586 12.664C91.7046 12.664 91.3356 12.982 91.3356 13.374L91.3356 18.127C91.3356 18.519 91.7036 18.837 92.1586 18.837L102.338 18.837C102.792 18.837 103.161 18.519 103.161 18.127L103.161 13.374C103.161 12.981 102.793 12.664 102.338 12.664L102.338 12.664Z" id="Shape" fill="#FFFFFF" stroke="none" />
          <path d="M116.84 12.664L105.63 12.664C105.176 12.664 104.807 12.982 104.807 13.374L104.807 18.127C104.807 18.519 105.175 18.837 105.63 18.837L116.84 18.837C117.294 18.837 117.663 18.519 117.663 18.127L117.663 13.374C117.663 12.981 117.294 12.664 116.84 12.664L116.84 12.664Z" id="Shape" fill="#FFFFFF" stroke="none" />
          <path d="M173.39 5.88702L162.398 5.88702C161.663 5.88702 161.074 6.41302 161.101 7.04602L161.231 10.165C161.256 10.767 161.829 11.244 162.528 11.244L173.668 11.244C174.424 11.244 175.02 10.689 174.962 10.039L174.685 6.92004C174.633 6.33801 174.069 5.88702 173.39 5.88702L173.39 5.88702Z" id="Shape" fill="#FFFFFF" stroke="none" />
          <path d="M144.989 27.847L50.2746 27.847C49.8396 27.847 49.4806 28.139 49.4536 28.513L48.8746 36.567C48.8446 36.978 49.2256 37.324 49.7026 37.32L145.139 36.646C145.596 36.643 145.963 36.319 145.955 35.925L145.811 28.545C145.805 28.158 145.438 27.847 144.989 27.847L144.989 27.847Z" id="Shape" fill="#FFFFFF" stroke="none" />
          <path d="M159.067 28.061L148.765 28.061C148.04 28.061 147.455 28.574 147.467 29.199L147.594 35.733C147.606 36.347 148.19 36.838 148.903 36.834L159.347 36.76C160.078 36.755 160.66 36.23 160.634 35.601L160.365 29.141C160.34 28.538 159.766 28.061 159.067 28.061L159.067 28.061Z" id="Shape" fill="#FFFFFF" stroke="none" />
          <path d="M46.2236 27.847L36.8456 27.847C36.0596 27.847 35.4006 28.361 35.3226 29.035L34.5145 35.964C34.4235 36.746 35.1395 37.423 36.0506 37.416L45.7435 37.348C46.5475 37.342 47.2095 36.801 47.2595 36.109L47.7525 29.249C47.8066 28.489 47.1066 27.847 46.2236 27.847L46.2236 27.847Z" id="Shape" fill="#FFFFFF" stroke="none" />
          <path d="M21.9956 17.699L22.5676 14.167C22.6965 13.373 21.9805 12.664 21.0516 12.664L6.64656 12.664C5.91556 12.664 5.28557 13.11 5.14456 13.729L4.33656 17.261C4.14957 18.077 4.87456 18.837 5.83856 18.837L20.4796 18.837C21.2436 18.836 21.8906 18.351 21.9956 17.699L21.9956 17.699Z" id="Shape" fill="#FFFFFF" stroke="none" />
          <path d="M175.342 28.061L163.312 28.061C162.577 28.061 161.988 28.587 162.015 29.22L162.282 35.65C162.307 36.256 162.887 36.734 163.59 36.729L175.917 36.642C176.669 36.637 177.258 36.084 177.201 35.437L176.637 29.094C176.584 28.511 176.02 28.061 175.342 28.061L175.342 28.061Z" id="Shape" fill="#FFFFFF" stroke="none" />
          <path d="M32.8256 36.262L33.6376 29.3C33.7286 28.523 33.0206 27.848 32.1146 27.848L23.3466 27.848C22.5826 27.848 21.9356 28.333 21.8306 28.986L20.6926 36.012C20.5636 36.81 21.2866 37.521 22.2216 37.515L31.3166 37.451C32.0956 37.444 32.7476 36.932 32.8256 36.262L32.8256 36.262Z" id="Shape" fill="#FFFFFF" stroke="none" />
          <path d="M32.9996 20.255L24.5755 20.255C23.8115 20.255 23.1645 20.74 23.0596 21.393L22.4876 24.925C22.3586 25.719 23.0736 26.428 24.0036 26.428L32.5876 26.428C33.3736 26.428 34.0326 25.915 34.1106 25.24L34.5226 21.708C34.6136 20.93 33.9056 20.255 32.9996 20.255L32.9996 20.255Z" id="Shape" fill="#FFFFFF" stroke="none" />
          <path d="M20.7656 25.29L21.3376 21.758C21.4666 20.964 20.7506 20.255 19.8216 20.255L4.90958 20.255C4.17857 20.255 3.54858 20.701 3.40758 21.32L2.59958 24.852C2.41258 25.668 3.13757 26.428 4.10158 26.428L19.2496 26.428C20.0136 26.428 20.6606 25.943 20.7656 25.29L20.7656 25.29Z" id="Shape" fill="#FFFFFF" stroke="none" />
          <path d="M18.5916 27.847L3.17256 27.847C2.44156 27.847 1.81157 28.293 1.67056 28.912L0.0295563 36.084C-0.158447 36.904 0.574554 37.666 1.54456 37.66L17.4606 37.548C18.2196 37.543 18.8596 37.059 18.9646 36.41L20.1086 29.35C20.2376 28.556 19.5216 27.847 18.5916 27.847L18.5916 27.847Z" id="Shape" fill="#FFFFFF" stroke="none" />
          <path d="M190.419 27.847L179.596 27.847C178.84 27.847 178.244 28.402 178.302 29.052L178.863 35.365C178.915 35.952 179.485 36.404 180.168 36.399L191.367 36.32C192.146 36.315 192.744 35.723 192.644 35.057L191.706 28.823C191.622 28.265 191.071 27.847 190.419 27.847L190.419 27.847Z" id="Shape" fill="#FFFFFF" stroke="none" />
          <path d="M213.475 34.928L212.56 28.949C212.464 28.318 211.84 27.847 211.102 27.847L211.102 27.847L194.696 27.847C193.913 27.847 193.308 28.44 193.409 29.11L194.342 35.314C194.427 35.875 194.984 36.294 195.64 36.289L212.196 36.172C212.966 36.167 213.561 35.588 213.475 34.928L213.475 34.928Z" id="Shape" fill="#FFFFFF" stroke="none" />
          <path d="M24.3236 3.33002L24.4566 2.509C24.5856 1.71201 23.8645 1.00101 22.9306 1.00601L9.28656 1.08002C8.55856 1.08401 7.93456 1.52902 7.79356 2.14502L7.62256 2.89203C7.43556 3.70804 8.16055 4.46802 9.12456 4.46802L22.8066 4.46802C23.5706 4.46802 24.2176 3.98203 24.3236 3.33002L24.3236 3.33002Z" id="Shape" fill="#FFFFFF" stroke="none" />
          <path d="M177.627 21.46L177.977 25.394C178.029 25.977 178.593 26.428 179.271 26.428L189.868 26.428C190.651 26.428 191.256 25.834 191.155 25.165L190.563 21.231C190.479 20.673 189.928 20.256 189.276 20.256L178.921 20.256C178.166 20.255 177.57 20.81 177.627 21.46L177.627 21.46Z" id="Shape" fill="#FFFFFF" stroke="none" />
          <path d="M193.003 18.836L209.912 18.836C210.687 18.836 211.289 18.255 211.202 17.591L210.686 13.657C210.612 13.091 210.057 12.6631 209.396 12.6631L192.411 12.6631C191.628 12.6631 191.023 13.257 191.124 13.9261L191.716 17.86C191.8 18.419 192.351 18.836 193.003 18.836L193.003 18.836Z" id="Shape" fill="#FFFFFF" stroke="none" />
          <path d="M191.861 11.244L208.917 11.244C209.692 11.244 210.294 10.663 210.207 9.99902L209.798 6.88004C209.724 6.31403 209.169 5.88605 208.508 5.88605L191.392 5.88605C190.609 5.88605 190.004 6.48004 190.105 7.14905L190.574 10.268C190.658 10.827 191.209 11.244 191.861 11.244L191.861 11.244Z" id="Shape" fill="#FFFFFF" stroke="none" />
          <path d="M77.5446 4.46802L88.8676 4.46802C89.3226 4.46802 89.6906 4.15002 89.6906 3.759L89.6906 1.35699C89.6906 0.962982 89.3186 0.644989 88.8626 0.647003L77.5396 0.709015C77.0876 0.712006 76.7216 1.02802 76.7216 1.41901L76.7216 3.76001C76.7216 4.15002 77.0896 4.46802 77.5446 4.46802L77.5446 4.46802Z" id="Shape" fill="#FFFFFF" stroke="none" />
          <path d="M120.132 4.46802L131.669 4.46802C132.118 4.46802 132.484 4.15802 132.492 3.77002L132.543 1.13403C132.551 0.736023 132.177 0.410034 131.715 0.413025L120.127 0.476013C119.675 0.479004 119.309 0.795013 119.309 1.186L119.309 3.759C119.309 4.15002 119.677 4.46802 120.132 4.46802L120.132 4.46802Z" id="Shape" fill="#FFFFFF" stroke="none" />
          <path d="M134.961 4.46802L144.506 4.46802C144.966 4.46802 145.337 4.14301 145.329 3.74701L145.276 1.04202C145.268 0.653015 144.899 0.34201 144.448 0.344025L135.006 0.396027C134.559 0.398041 134.196 0.708038 134.188 1.09402L134.137 3.74802C134.131 4.14301 134.501 4.46802 134.961 4.46802L134.961 4.46802Z" id="Shape" fill="#FFFFFF" stroke="none" />
          <path d="M92.1586 4.46802L102.338 4.46802C102.792 4.46802 103.161 4.15002 103.161 3.759L103.161 1.28299C103.161 0.888977 102.789 0.570984 102.333 0.572998L92.1535 0.628998C91.7016 0.631012 91.3356 0.947998 91.3356 1.33801L91.3356 3.75803C91.3356 4.15002 91.7046 4.46802 92.1586 4.46802L92.1586 4.46802Z" id="Shape" fill="#FFFFFF" stroke="none" />
          <path d="M105.63 4.46802L116.84 4.46802C117.294 4.46802 117.663 4.15002 117.663 3.759L117.663 1.20401C117.663 0.809998 117.291 0.492004 116.835 0.494019L105.625 0.555023C105.173 0.558014 104.807 0.875031 104.807 1.26501L104.807 3.759C104.807 4.15002 105.175 4.46802 105.63 4.46802L105.63 4.46802Z" id="Shape" fill="#FFFFFF" stroke="none" />
          <path d="M175.842 1.37003L176.025 3.43402C176.077 4.01703 176.641 4.46802 177.319 4.46802L186.564 4.46802C187.347 4.46802 187.952 3.87503 187.851 3.20502L187.533 1.091C187.449 0.531006 186.893 0.112 186.237 0.115997L177.126 0.165985C176.375 0.170013 175.785 0.723022 175.842 1.37003L175.842 1.37003Z" id="Shape" fill="#FFFFFF" stroke="none" />
          <path d="M148.266 4.68103L158.002 4.68103C158.737 4.68103 159.326 4.15503 159.299 3.52203L159.217 1.56302C159.192 0.958008 158.614 0.480011 157.912 0.484009L148.221 0.537018C147.499 0.541016 146.919 1.05203 146.931 1.67502L146.968 3.58102C146.98 4.19202 147.558 4.68103 148.266 4.68103L148.266 4.68103Z" id="Shape" fill="#FFFFFF" stroke="none" />
          <path d="M162.246 4.46802L173.065 4.46802C173.821 4.46802 174.417 3.91302 174.359 3.26303L174.178 1.22205C174.126 0.636047 173.557 0.184052 172.875 0.188049L162.155 0.24704C161.423 0.251038 160.84 0.776031 160.866 1.40604L160.948 3.38803C160.974 3.99103 161.547 4.46802 162.246 4.46802L162.246 4.46802Z" id="Shape" fill="#FFFFFF" stroke="none" />
          <path d="M52.8106 4.46802L59.6486 4.46802C60.4846 4.46802 61.1656 3.89001 61.1796 3.17001L61.1996 2.14801C61.2136 1.40701 60.5186 0.801025 59.6586 0.806L52.8706 0.842987C52.0656 0.846985 51.4016 1.38898 51.3526 2.082L51.2816 3.06699C51.2276 3.82602 51.9276 4.46802 52.8106 4.46802L52.8106 4.46802Z" id="Shape" fill="#FFFFFF" stroke="none" />
          <path d="M39.8806 4.46802L48.0936 4.46802C48.9026 4.46802 49.5716 3.92603 49.6216 3.229L49.6906 2.26999C49.7456 1.50699 49.0396 0.862976 48.1526 0.867981L39.9766 0.912994C39.1936 0.916992 38.5416 1.42999 38.4626 2.10098L38.3556 3.01498C38.2666 3.79303 38.9746 4.46802 39.8806 4.46802L39.8806 4.46802Z" id="Shape" fill="#FFFFFF" stroke="none" />
          <path d="M27.5606 4.46802L35.1476 4.46802C35.9336 4.46802 36.5926 3.95502 36.6706 3.28003L36.7746 2.39102C36.8656 1.61002 36.1516 0.934021 35.2416 0.939026L27.6876 0.980011C26.9276 0.984009 26.2866 1.46802 26.1806 2.11801L26.0436 2.965C25.9156 3.75903 26.6306 4.46802 27.5606 4.46802L27.5606 4.46802Z" id="Shape" fill="#FFFFFF" stroke="none" />
          <path d="M35.8816 10.056L36.1986 7.33902C36.2896 6.56201 35.5816 5.88702 34.6746 5.88702L26.9026 5.88702C26.1386 5.88702 25.4916 6.37201 25.3866 7.02502L24.9466 9.74203C24.8176 10.536 25.5336 11.245 26.4626 11.245L34.3576 11.245C35.1446 11.244 35.8026 10.731 35.8816 10.056L35.8816 10.056Z" id="Shape" fill="#FFFFFF" stroke="none" />
          <path d="M7.57457 11.244L21.7086 11.244C22.4726 11.244 23.1196 10.759 23.2246 10.106L23.6646 7.38901C23.7936 6.595 23.0776 5.88602 22.1486 5.88602L8.19557 5.88602C7.46457 5.88602 6.83458 6.33203 6.69357 6.95102L6.07257 9.66803C5.88657 10.485 6.61057 11.244 7.57457 11.244L7.57457 11.244Z" id="Shape" fill="#FFFFFF" stroke="none" />
          <path d="M63.6376 4.46802L74.2525 4.46802C74.7066 4.46802 75.0755 4.15002 75.0755 3.759L75.0755 1.436C75.0755 1.04199 74.7035 0.723999 74.2475 0.726013L63.6765 0.784027C63.2295 0.786041 62.8665 1.09604 62.8585 1.48203L62.8145 3.74704C62.8076 4.14301 63.1776 4.46802 63.6376 4.46802L63.6376 4.46802Z" id="Shape" fill="#FFFFFF" stroke="none" />
          <path d="M176.35 7.09201L176.627 10.211C176.679 10.794 177.243 11.245 177.921 11.245L187.583 11.245C188.366 11.245 188.971 10.651 188.87 9.98199L188.401 6.86301C188.317 6.30499 187.766 5.888 187.114 5.888L177.644 5.888C176.889 5.88702 176.293 6.44202 176.35 7.09201L176.35 7.09201Z" id="Shape" fill="#FFFFFF" stroke="none" />
        </g>
        <path d="M203.441 7.81601L219.567 7.81601C220.478 7.81601 221.187 7.323 221.085 6.759L220.862 5.535C220.774 5.052 220.116 4.689 219.335 4.69202L203.19 4.755C202.272 4.759 201.567 5.26102 201.685 5.827L201.927 6.98801C202.025 7.46201 202.673 7.81601 203.441 7.81601L203.441 7.81601Z" id="Shape" fill="#000000" fill-opacity="0.2" stroke="none" />
        <path d="M41.7608 7.021L41.8898 6.44699C42.0148 5.88898 41.3158 5.39301 40.4098 5.396L27.1808 5.448C26.4748 5.45099 25.8698 5.76199 25.7338 6.19299L25.5678 6.715C25.3868 7.285 26.0888 7.81699 27.0238 7.81699L40.2888 7.81699C41.0308 7.81601 41.6578 7.47699 41.7608 7.021L41.7608 7.021Z" id="Shape" fill="#000000" fill-opacity="0.2" stroke="none" />
        <path d="M93.3598 7.81601L104.338 7.81601C104.779 7.81601 105.136 7.59402 105.136 7.32001L105.136 5.64001C105.136 5.36502 104.776 5.14203 104.333 5.14401L93.3548 5.18701C92.9158 5.18903 92.5618 5.41 92.5618 5.68301L92.5618 7.32001C92.5618 7.59399 92.9188 7.81601 93.3598 7.81601L93.3598 7.81601Z" id="Shape" fill="#000000" fill-opacity="0.2" stroke="none" />
        <path d="M134.649 7.81601L145.835 7.81601C146.27 7.81601 146.626 7.599 146.633 7.328L146.682 5.48502C146.689 5.20602 146.327 4.979 145.879 4.98102L134.644 5.02502C134.205 5.02704 133.851 5.24802 133.851 5.52103L133.851 7.32004C133.851 7.59399 134.208 7.81601 134.649 7.81601L134.649 7.81601Z" id="Shape" fill="#000000" fill-opacity="0.2" stroke="none" />
        <path d="M149.027 7.81601L158.281 7.81601C158.727 7.81601 159.086 7.58902 159.079 7.31201L159.028 5.42001C159.021 5.14801 158.663 4.93002 158.225 4.93201L149.071 4.96802C148.637 4.97003 148.285 5.186 148.278 5.45602L148.229 7.31201C148.222 7.58899 148.581 7.81601 149.027 7.81601L149.027 7.81601Z" id="Shape" fill="#000000" fill-opacity="0.2" stroke="none" />
        <path d="M107.529 7.81601L117.398 7.81601C117.839 7.81601 118.196 7.59402 118.196 7.32001L118.196 5.58902C118.196 5.31403 117.836 5.09103 117.393 5.09302L107.524 5.13202C107.085 5.13403 106.731 5.35501 106.731 5.62802L106.731 7.32001C106.731 7.59399 107.088 7.81601 107.529 7.81601L107.529 7.81601Z" id="Shape" fill="#000000" fill-opacity="0.2" stroke="none" />
        <path d="M120.589 7.81601L131.457 7.81601C131.898 7.81601 132.255 7.59402 132.255 7.32001L132.255 5.534C132.255 5.259 131.895 5.03601 131.452 5.03799L120.584 5.08099C120.145 5.08301 119.791 5.30399 119.791 5.577L119.791 7.32098C119.791 7.59399 120.148 7.81601 120.589 7.81601L120.589 7.81601Z" id="Shape" fill="#000000" fill-opacity="0.2" stroke="none" />
        <path d="M188.662 5.64999L188.84 7.09299C188.89 7.50098 189.437 7.81598 190.095 7.81598L199.059 7.81598C199.818 7.81598 200.405 7.40097 200.307 6.93298L199.999 5.45499C199.917 5.06299 199.379 4.76999 198.743 4.77298L189.91 4.80798C189.179 4.81 188.606 5.198 188.662 5.64999L188.662 5.64999Z" id="Shape" fill="#000000" fill-opacity="0.2" stroke="none" />
        <path d="M161.926 7.965L171.365 7.965C172.078 7.965 172.648 7.59698 172.623 7.15399L172.544 5.784C172.519 5.36099 171.959 5.02701 171.278 5.02899L161.882 5.06598C161.182 5.06897 160.62 5.42596 160.632 5.86197L160.668 7.19498C160.679 7.62302 161.239 7.965 161.926 7.965L161.926 7.965Z" id="Shape" fill="#000000" fill-opacity="0.2" stroke="none" />
        <path d="M175.48 7.81601L185.97 7.81601C186.703 7.81601 187.281 7.42801 187.225 6.974L187.049 5.547C186.999 5.13699 186.447 4.82199 185.786 4.82401L175.392 4.86499C174.682 4.86798 174.117 5.23499 174.142 5.67599L174.222 7.06198C174.247 7.483 174.803 7.81601 175.48 7.81601L175.48 7.81601Z" id="Shape" fill="#000000" fill-opacity="0.2" stroke="none" />
        <path d="M69.3798 7.81601L76.0098 7.81601C76.8198 7.81601 77.4808 7.41202 77.4938 6.90802L77.5128 6.19403C77.5268 5.67603 76.8528 5.25204 76.0188 5.25504L69.4378 5.28104C68.6568 5.28403 68.0138 5.66302 67.9659 6.14703L67.8969 6.83603C67.8448 7.367 68.5238 7.81601 69.3798 7.81601L69.3798 7.81601Z" id="Shape" fill="#000000" fill-opacity="0.2" stroke="none" />
        <path d="M56.8428 7.81601L64.8058 7.81601C65.5898 7.81601 66.2388 7.43701 66.2878 6.95001L66.3548 6.27902C66.4078 5.74503 65.7238 5.29501 64.8638 5.29901L56.9378 5.33002C56.1788 5.33301 55.5458 5.69101 55.4698 6.16101L55.3668 6.80002C55.2778 7.34399 55.9648 7.81601 56.8428 7.81601L56.8428 7.81601Z" id="Shape" fill="#000000" fill-opacity="0.2" stroke="none" />
        <path d="M44.8988 7.81601L52.2548 7.81601C53.0168 7.81601 53.6558 7.457 53.7318 6.98502L53.8318 6.36401C53.9198 5.81802 53.2278 5.345 52.3458 5.34802L45.0218 5.37701C44.2848 5.38 43.6628 5.71902 43.5608 6.17203L43.4278 6.76501C43.3038 7.32001 43.9978 7.81601 44.8988 7.81601L44.8988 7.81601Z" id="Shape" fill="#000000" fill-opacity="0.2" stroke="none" />
        <path d="M79.8768 7.81601L90.1688 7.81601C90.6098 7.81601 90.9668 7.59402 90.9668 7.32001L90.9668 5.69601C90.9668 5.42102 90.6068 5.19803 90.1638 5.20001L79.9158 5.24002C79.4828 5.24203 79.1308 5.45801 79.1228 5.72803L79.0798 7.31204C79.0708 7.58899 79.4308 7.81601 79.8768 7.81601L79.8768 7.81601Z" id="Shape" fill="#000000" fill-opacity="0.2" stroke="none" />
        <path d="M335.918 52.646C331.048 54.298 321.48 55.148 310.163 54.878C296.318 54.547 254.313 52.332 209.774 53.48C160.632 54.746 16.7648 54.172 9.94577 53.48C6.23978 53.104 3.01677 51.809 0.773773 50.542C0.573776 51.369 0.378769 52.177 0.19577 52.944C-0.991226 57.904 3.39078 62.553 9.26376 62.564C43.6238 62.633 145.233 62.81 163.734 62.54C186.072 62.213 233.776 59.928 250.813 60.581C263.447 61.065 305.645 61.908 326.613 62.312C332.623 62.427 337.141 57.682 335.918 52.646L335.918 52.646Z" id="Shape" fill="#000000" fill-opacity="0.3" stroke="none" />
      </g>
    </g>
    <g id="Mouse" transform="translate(579.04535 392.00336)" clip-path="url(#clip_1)">
      <g id="Group">
        <path d="M0.762634 12.2706C0.762634 12.2706 -1.40936 4.79865 1.57764 2.39362C4.56561 -0.0113831 21.5826 -0.0933838 30.1467 1.50961C38.7107 3.11362 46.3907 8.80762 49.5767 16.1846C52.7637 23.5606 55.5297 44.4496 36.6307 45.3696C14.6237 46.4406 3.72168 23.9356 0.762634 12.2706L0.762634 12.2706Z" id="Shape" fill="#FC4850" stroke="none" />
        <path d="M14.8896 0.432648C14.8896 0.432648 18.5007 2.96664 19.8976 4.84064C21.2946 6.71463 24.4366 9.61963 27.1136 8.87064C29.7906 8.12064 28.1216 4.48465 22.7676 0.651642C22.7687 0.651642 18.4327 -0.655365 14.8896 0.432648L14.8896 0.432648Z" id="Shape" fill="#FFFFFF" stroke="none" />
      </g>
    </g>
    <g id="CPU" transform="translate(72.774 112.72)" clip-path="url(#clip_1)">
      <g id="Group">
        <path d="M119.96 264.458L7.862 264.458C3.52 264.458 0 260.938 0 256.596L0 7.862C0 3.52 3.52 0 7.862 0L119.96 0C124.302 0 127.822 3.52 127.822 7.862L127.822 256.597C127.822 260.939 124.302 264.458 119.96 264.458L119.96 264.458Z" id="Shape" fill="#FC4850" stroke="none" />
        <path d="M114.016 239.197L13.036 239.197C9.326 239.197 6.308 236.179 6.308 232.47L6.308 14.391C6.308 10.681 9.326 7.663 13.036 7.663L114.016 7.663C117.726 7.663 120.744 10.681 120.744 14.391L120.744 232.47C120.744 236.179 117.725 239.197 114.016 239.197L114.016 239.197ZM13.036 8.663C9.878 8.663 7.308 11.233 7.308 14.391L7.308 232.47C7.308 235.628 9.877 238.197 13.036 238.197L114.016 238.197C117.174 238.197 119.744 235.628 119.744 232.47L119.744 14.391C119.744 11.233 117.175 8.663 114.016 8.663L13.036 8.663L13.036 8.663Z" id="Shape" fill="#000000" fill-opacity="0.3" fill-rule="evenodd" stroke="none" />
        <path d="M7.874 52.045C37.013 52.045 66.153 52.045 95.292 52.045C103.511 52.045 111.73 52.045 119.948 52.045C120.913 52.045 120.915 50.545 119.948 50.545C90.809 50.545 61.669 50.545 32.53 50.545C24.311 50.545 16.092 50.545 7.87402 50.545C6.909 50.545 6.907 52.045 7.874 52.045L7.874 52.045L7.874 52.045Z" id="Shape" fill="#000000" fill-opacity="0.3" stroke="none" />
        <path d="M7.874 93.116C37.013 93.116 66.153 93.116 95.292 93.116C103.511 93.116 111.73 93.116 119.948 93.116C120.913 93.116 120.915 91.616 119.948 91.616C90.809 91.616 61.669 91.616 32.53 91.616C24.311 91.616 16.092 91.616 7.87402 91.616C6.909 91.616 6.907 93.116 7.874 93.116L7.874 93.116L7.874 93.116Z" id="Shape" fill="#000000" fill-opacity="0.3" stroke="none" />
        <path d="M59.5626 200.611C56.8155 197.575 57.0495 192.887 60.0852 190.14C63.121 187.393 67.809 187.627 70.5561 190.662C73.3032 193.698 73.0692 198.386 70.0335 201.133C66.9977 203.88 62.3097 203.646 59.5626 200.611Z" id="Oval" fill="#FFFFFF" fill-rule="evenodd" stroke="none" />
        <path d="M17.734 103.791L29.64 103.791L29.64 108.041L17.734 108.041L17.734 103.791Z" id="Rectangle" fill="#000000" fill-opacity="0.3" fill-rule="evenodd" stroke="none" />
        <path d="M37.455 103.791L110.384 103.791L110.384 108.041L37.455 108.041L37.455 103.791Z" id="Rectangle" fill="#000000" fill-opacity="0.3" fill-rule="evenodd" stroke="none" />
        <path d="M17.734 111.109L29.64 111.109L29.64 115.359L17.734 115.359L17.734 111.109Z" id="Rectangle" fill="#000000" fill-opacity="0.3" fill-rule="evenodd" stroke="none" />
        <path d="M86.309 115.359C86.309 116.845 85.104 118.05 83.618 118.05C82.132 118.05 80.927 116.845 80.927 115.359C80.927 113.873 82.132 112.668 83.618 112.668C85.105 112.668 86.309 113.873 86.309 115.359L86.309 115.359Z" id="Shape" fill="#FFFFFF" stroke="none" />
        <path d="M98.02 115.359C98.02 116.845 96.815 118.05 95.329 118.05C93.843 118.05 92.638 116.845 92.638 115.359C92.638 113.873 93.843 112.668 95.329 112.668C96.816 112.668 98.02 113.873 98.02 115.359L98.02 115.359Z" id="Shape" fill="#000000" fill-opacity="0.1" stroke="none" />
        <path d="M109.849 115.359C109.849 116.845 108.644 118.05 107.159 118.05C105.673 118.05 104.468 116.845 104.468 115.359C104.468 113.873 105.673 112.668 107.159 112.668C108.645 112.668 109.849 113.873 109.849 115.359L109.849 115.359Z" id="Shape" fill="#000000" fill-opacity="0.3" stroke="none" />
      </g>
    </g>
    <g id="Monitor" transform="translate(226.47302 109.673996)" clip-path="url(#clip_1)">
      <g id="Group">
        <path d="M332.729 228.989L209.508 228.989L4.009 228.989C1.795 228.989 0 227.194 0 224.979L0 4.01C0 1.79601 1.795 0 4.009 0L332.729 0C334.943 0 336.739 1.795 336.739 4.01L336.739 224.979C336.739 227.194 334.944 228.989 332.729 228.989L332.729 228.989Z" id="Shape" fill="#FC4850" stroke="none" />
        <path d="M126.948 223.191L114.305 262.371C113.538 264.748 115.31 267.182 117.808 267.182L218.785 267.182C221.324 267.182 223.101 264.671 222.256 262.277L208.461 223.192L126.948 223.192L126.948 223.191Z" id="Shape" fill="#FC4850" stroke="none" />
        <path d="M8.06598 6.98901L328.673 6.98901L328.673 194.118L8.06598 194.118L8.06598 6.98901Z" id="Rectangle" fill="#000000" fill-opacity="0.3" fill-rule="evenodd" stroke="none" />
        <path d="M13.996 11.787L322.742 11.787L322.742 194.118L13.996 194.118L13.996 11.787Z" id="Rectangle" fill="#FFFFFF" fill-rule="evenodd" stroke="none" />
        <path d="M125.493 228.989C125.493 228.989 210.923 228.989 210.923 228.989C210.923 228.989 214.685 239.649 214.685 239.649C214.685 239.649 122.053 239.649 122.053 239.649C122.053 239.649 125.493 228.989 125.493 228.989Z" id="Polygon" fill="#000000" fill-opacity="0.3" fill-rule="evenodd" stroke="none" />
        <path d="M8.06598 91.577C8.06598 91.577 163.88 145.75 175.191 122.533C186.502 99.316 101.968 77.885 147.211 56.454C192.454 35.023 328.672 17.164 328.672 17.164L328.672 68.36C328.672 68.36 179.358 63.002 181.739 77.29C184.12 91.577 277.584 118.962 215.076 145.155C152.569 171.348 8.06502 157.061 8.06502 157.061L8.06502 91.577L8.06598 91.577Z" id="Shape" fill="#853131" fill-opacity="0.1" stroke="none" />
        <path d="M205.201 125.229L131.538 125.229C129.334 125.229 127.547 123.442 127.547 121.238L127.547 120.495C127.547 118.291 129.334 116.504 131.538 116.504L205.201 116.504C207.405 116.504 209.192 118.291 209.192 120.495L209.192 121.238C209.192 123.442 207.405 125.229 205.201 125.229L205.201 125.229Z" id="Shape" fill="#0E1394" stroke="none" />
        <g id="Group" transform="translate(146.90698 63.94699)">
          <path d="M0 21.462C0 9.60886 9.60886 0 21.462 0C33.3151 0 42.924 9.60886 42.924 21.462C42.924 33.3151 33.3151 42.924 21.462 42.924C9.60886 42.924 0 33.3151 0 21.462Z" id="Circle" fill="#0E1394" fill-rule="evenodd" stroke="none" />
          <path d="M12.783 15.728C12.783 10.9347 16.6687 7.04901 21.462 7.04901C26.2553 7.04901 30.141 10.9347 30.141 15.728C30.141 20.5213 26.2553 24.407 21.462 24.407C16.6687 24.407 12.783 20.5213 12.783 15.728Z" id="Circle" fill="#FFFFFF" fill-rule="evenodd" stroke="none" />
          <path d="M10.36 35.996C7.75998 33.841 8.26398 29.723 11.27 28.186C13.812 26.886 17.223 25.721 21.284 25.721C27.111 25.721 31.062 27.092 33.587 28.507C35.935 29.822 36.324 33.04 34.347 34.866C31.591 37.412 27.086 40.501 21.463 40.484C16.885 40.471 13.041 38.218 10.36 35.996L10.36 35.996Z" id="Shape" fill="#FFFFFF" stroke="none" />
        </g>
      </g>
    </g>
  </g>
</svg>