<?xml version="1.0" encoding="utf-8"?>
<svg width="500px" height="500px" viewBox="0 0 500 500" version="1.1" xmlns:xlink="http://www.w3.org/1999/xlink" xmlns="http://www.w3.org/2000/svg">
  <defs>
    <path d="M500 0L500 0L500 500L0 500L0 0L500 0Z" id="path_1" />
    <clipPath id="clip_1">
      <use xlink:href="#path_1" clip-rule="evenodd" fill-rule="evenodd" />
    </clipPath>
  </defs>
  <g id="12977732_5120180">
    <path d="M500 0L500 0L500 500L0 500L0 0L500 0Z" id="12977732_5120180" fill="none" stroke="none" />
    <g id="Graphics" transform="translate(27.699001 22.576303)" clip-path="url(#clip_1)">
      <g id="Contacts" transform="translate(388.8321 281.44485)">
        <path d="M13.3689 30.4239C17.6579 27.9469 21.1359 20.5858 21.1359 13.9819C21.1359 7.37787 17.6589 4.03186 13.3689 6.50888C9.0799 8.98587 5.6019 16.3469 5.6019 22.9509C5.6019 29.5539 9.0799 32.9008 13.3689 30.4239L13.3689 30.4239ZM25.9559 33.3689C25.6169 30.2039 23.7379 28.8099 21.5299 30.0849L5.20691 39.5089C3.00092 40.7829 1.12289 44.3429 0.785919 47.8929L0.0229187 55.8749C-0.15509 57.7319 0.726929 58.8079 1.88092 58.1419L22.4959 46.2399L22.8369 42.6529C23.1429 39.4749 24.3689 36.3249 26.0359 34.1169L25.9559 33.3689L25.9559 33.3689Z" id="Group" fill="#FC4850" fill-rule="evenodd" stroke="none" />
        <path d="M36.7539 24.7318C41.0439 22.2549 44.5209 14.8938 44.5209 8.28986C44.5209 1.68588 41.0439 -1.66016 36.7539 0.816864C32.4649 3.29385 28.9879 10.6549 28.9879 17.2589C28.9879 23.8628 32.4649 27.2079 36.7539 24.7318L36.7539 24.7318ZM50.1019 34.7668L49.3399 27.6718C48.9999 24.5118 47.1229 23.1208 44.9169 24.3948L28.5919 33.8198C26.3859 35.0938 24.5079 38.6528 24.1689 42.2048L23.4069 50.1798C23.2289 52.0368 24.1109 53.1129 25.2639 52.4468L48.2439 39.1788C49.3979 38.5128 50.2799 36.4189 50.1019 34.7668L50.1019 34.7668Z" id="Group" fill="#686868" fill-rule="evenodd" stroke="none" />
      </g>
      <path d="M209.842 29.5087C210.075 30.5837 213.253 37.5397 213.253 37.5397L210.319 54.9607C210.319 54.9607 196.925 52.7047 194.911 52.3657C192.897 52.0267 191.733 50.3287 191.979 48.8687C192.182 47.6597 192.738 46.8217 192.738 46.8217C191.429 46.6007 190.408 44.6687 190.578 43.6617C190.832 42.1507 191.555 41.5477 191.555 41.5477C190.196 41.0087 189.56 39.5547 189.764 38.3467C190.129 36.1817 192.068 36.0427 192.068 36.0427C191.616 35.6557 190.753 34.6307 191.016 33.0697C191.203 31.9617 192.314 30.2847 194.279 30.6157L203.592 32.1847C203.345 29.3477 203.853 26.9477 205.553 24.2307C207.254 21.5137 211.03 22.4597 210.894 23.2657C210.861 23.4593 210.77 23.8588 210.653 24.3689C210.285 25.9793 209.665 28.6923 209.842 29.5087ZM212.137 57.6827L215.557 37.4127L222.267 38.5427L218.857 58.8127L212.137 57.6827ZM214.447 54.9627C214.447 55.7427 215.077 56.3827 215.867 56.3827C216.647 56.3827 217.287 55.7427 217.287 54.9627C217.287 54.1727 216.647 53.5427 215.867 53.5427C215.077 53.5427 214.447 54.1727 214.447 54.9627Z" id="Like_1_" fill="#FC4850" fill-rule="evenodd" stroke="none" />
      <path d="M412.703 241.331C412.356 241.348 412.036 241.112 411.959 240.76L406.653 216.523C406.612 216.335 406.648 216.137 406.751 215.974C406.855 215.811 407.019 215.697 407.208 215.656L415.233 213.899C415.633 213.806 416.013 214.062 416.099 214.453L421.405 238.691C421.446 238.879 421.41 239.077 421.307 239.24C421.202 239.402 421.039 239.517 420.85 239.558L412.825 241.315C412.784 241.324 412.743 241.329 412.703 241.331L412.703 241.331ZM408.229 216.921L413.223 239.738L419.827 238.293L414.833 215.477L408.229 216.921L408.229 216.921ZM422.762 236.185C422.415 236.202 422.095 235.966 422.018 235.614L417.458 214.788C417.427 214.646 417.439 214.497 417.493 214.362C418.857 210.945 420.942 205.536 421.091 204.631C421.23 203.795 420.247 200.291 419.828 198.794C419.652 198.17 419.516 197.682 419.464 197.443C419.398 197.142 419.381 196.383 420.636 195.836C422.215 195.146 425.408 195.049 427.266 197.719C429.299 200.639 430.211 203.372 430.241 206.701L440.478 204.461C443.217 203.851 445.05 206.088 445.422 207.782C445.742 209.241 445.344 210.384 444.887 211.143C445.836 211.541 446.875 212.406 447.239 214.07C447.545 215.458 447.073 217.283 445.674 218.363C445.997 218.83 446.354 219.532 446.572 220.524C446.846 221.786 445.995 224.024 444.49 224.957C444.733 225.429 445.015 226.093 445.188 226.882C445.63 228.902 444.272 231.485 441.305 232.136L422.884 236.168C422.843 236.178 422.802 236.183 422.762 236.185L422.762 236.185ZM418.927 214.694L423.283 234.592L440.993 230.716C443.016 230.272 444.06 228.537 443.767 227.195C443.491 225.931 442.861 225.054 442.854 225.045C442.711 224.847 442.676 224.587 442.764 224.358C442.85 224.129 443.047 223.958 443.287 223.905C444.399 223.662 445.338 221.696 445.15 220.834C444.826 219.354 444.139 218.785 444.111 218.762C443.914 218.604 443.809 218.351 443.842 218.101C443.873 217.851 444.028 217.632 444.258 217.528C445.588 216.922 446.055 215.456 445.818 214.382C445.378 212.375 443.671 212.312 443.599 212.309C443.303 212.302 443.043 212.119 442.938 211.844C442.832 211.569 442.903 211.257 443.117 211.054C443.415 210.773 444.36 209.73 444.001 208.094C443.802 207.185 442.745 205.454 440.79 205.882L429.656 208.319C429.434 208.37 429.204 208.31 429.034 208.166C428.861 208.022 428.765 207.806 428.773 207.581C428.903 204.16 428.096 201.459 426.071 198.551C425.088 197.139 423.641 196.899 422.866 196.882C421.892 196.859 421.18 197.146 420.931 197.324C420.996 197.574 421.101 197.949 421.228 198.401C422.014 201.202 422.704 203.803 422.527 204.87C422.314 206.144 419.53 213.177 418.927 214.694L418.927 214.694Z" id="Like_4_" fill="#FC4850" fill-rule="evenodd" stroke="none" />
      <path d="M10.105 210.54C10.151 211.677 8.769 219.472 8.769 219.472L16.224 236.17C16.224 236.17 29.06 230.437 30.991 229.575C32.922 228.713 33.648 226.71 33.023 225.311C32.506 224.152 31.732 223.456 31.732 223.456C32.987 222.895 33.509 220.694 33.078 219.729C32.432 218.281 31.551 217.864 31.551 217.864C32.773 216.971 33.033 215.35 32.516 214.192C31.59 212.117 29.61 212.48 29.61 212.48C29.964 211.975 30.562 210.724 29.894 209.228C29.42 208.167 27.872 206.774 25.988 207.615L17.062 211.601C16.574 208.693 15.443 206.42 13.035 204.138C10.627 201.856 7.08799 203.784 7.43299 204.556C7.778 205.328 10.06 209.403 10.105 210.54ZM0 222.811L6.431 219.939L15.112 239.372L8.668 242.244L0 222.811ZM9.291 237.783C9.291 238.482 9.85 239.041 10.549 239.041C11.247 239.041 11.807 238.482 11.807 237.783C11.807 237.084 11.248 236.525 10.549 236.525C9.85 236.525 9.291 237.084 9.291 237.783Z" id="Like_2_" fill="#FC4850" fill-rule="evenodd" stroke="none" />
      <g id="Star_1_" transform="translate(11.747941 271.63577)">
        <path d="M9.74806 25.4169C9.59106 25.4169 9.43106 25.3919 9.27606 25.3429C8.70806 25.1639 8.30006 24.6869 8.21005 24.0989L7.15406 17.2059L0.876056 14.1679C0.341056 13.911 0.00505762 13.3799 5.65543e-05 12.786C-0.00494451 12.191 0.322055 11.6549 0.854057 11.3879L7.08506 8.25095L8.03306 1.34195C8.11306 0.753941 8.51506 0.269963 9.07806 0.0819439C9.64506 -0.108059 10.2531 0.0379375 10.6721 0.461949L15.5791 5.41794L22.4441 4.18595C23.0321 4.07795 23.6151 4.31495 23.9661 4.79294C24.3191 5.27195 24.3691 5.89594 24.0961 6.42493L20.9001 12.6219L24.1921 18.7699C24.4731 19.2939 24.4321 19.9219 24.0851 20.4049C23.7401 20.8879 23.1621 21.1249 22.5741 21.0329L15.6911 19.9079L10.8631 24.9409C10.5651 25.2489 10.1631 25.4169 9.74806 25.4169L9.74806 25.4169ZM9.57606 0.961949C9.51206 0.961949 9.44705 0.972935 9.38305 0.994938C9.16606 1.06693 9.01906 1.24393 8.98706 1.47193L7.97006 8.88294L1.28706 12.2459C1.08306 12.3499 0.962058 12.5469 0.964057 12.777C0.966056 13.0049 1.09006 13.201 1.29706 13.3009L8.03006 16.5589L9.16505 23.9529C9.19805 24.179 9.34905 24.355 9.56705 24.424C9.79005 24.498 10.0111 24.433 10.1681 24.2719L15.3481 18.8739L22.7331 20.0809C22.9571 20.1199 23.1711 20.0279 23.3041 19.8439C23.4371 19.6569 23.4511 19.4259 23.3431 19.2239L19.8121 12.6299L23.2411 5.98096C23.3461 5.77796 23.3271 5.54596 23.1921 5.36295C23.0561 5.17896 22.8361 5.09794 22.6151 5.13196L15.2511 6.45496L9.98906 1.13895C9.87406 1.02393 9.72806 0.961949 9.57606 0.961949L9.57606 0.961949ZM9.74806 25.4169C9.59106 25.4169 9.43106 25.3919 9.27606 25.3429C8.70806 25.1639 8.30006 24.6869 8.21005 24.0989L7.15406 17.2059L0.876056 14.1679C0.341056 13.911 0.00505762 13.3799 5.65543e-05 12.786C-0.00494451 12.191 0.322055 11.6549 0.854057 11.3879L7.08506 8.25095L8.03306 1.34195C8.11306 0.753941 8.51506 0.269963 9.07806 0.0819439C9.64506 -0.108059 10.2531 0.0379375 10.6721 0.461949L15.5791 5.41794L22.4441 4.18595C23.0321 4.07795 23.6151 4.31495 23.9661 4.79294C24.3191 5.27195 24.3691 5.89594 24.0961 6.42493L20.9001 12.6219L24.1921 18.7699C24.4731 19.2939 24.4321 19.9219 24.0851 20.4049C23.7401 20.8879 23.1621 21.1249 22.5741 21.0329L15.6911 19.9079L10.8631 24.9409C10.5651 25.2489 10.1631 25.4169 9.74806 25.4169L9.74806 25.4169ZM9.57606 0.961949C9.51206 0.961949 9.44705 0.972935 9.38305 0.994938C9.16606 1.06693 9.01906 1.24393 8.98706 1.47193L7.97006 8.88294L1.28706 12.2459C1.08306 12.3499 0.962058 12.5469 0.964057 12.777C0.966056 13.0049 1.09006 13.201 1.29706 13.3009L8.03006 16.5589L9.16505 23.9529C9.19805 24.179 9.34905 24.355 9.56705 24.424C9.79005 24.498 10.0111 24.433 10.1681 24.2719L15.3481 18.8739L22.7331 20.0809C22.9571 20.1199 23.1711 20.0279 23.3041 19.8439C23.4371 19.6569 23.4511 19.4259 23.3431 19.2239L19.8121 12.6299L23.2411 5.98096C23.3461 5.77796 23.3271 5.54596 23.1921 5.36295C23.0561 5.17896 22.8361 5.09794 22.6151 5.13196L15.2511 6.45496L9.98906 1.13895C9.87406 1.02393 9.72806 0.961949 9.57606 0.961949L9.57606 0.961949Z" id="Shape" fill="#FC4850" fill-rule="evenodd" stroke="none" />
        <path d="M9.74806 25.4169C9.59106 25.4169 9.43106 25.3919 9.27606 25.3429C8.70806 25.1639 8.30006 24.6869 8.21005 24.0989L7.15406 17.2059L0.876056 14.1679C0.341056 13.911 0.00505762 13.3799 5.65543e-05 12.786C-0.00494451 12.191 0.322055 11.6549 0.854057 11.3879L7.08506 8.25095L8.03306 1.34195C8.11306 0.753941 8.51506 0.269963 9.07806 0.0819439C9.64506 -0.108059 10.2531 0.0379375 10.6721 0.461949L15.5791 5.41794L22.4441 4.18595C23.0321 4.07795 23.6151 4.31495 23.9661 4.79294C24.3191 5.27195 24.3691 5.89594 24.0961 6.42493L20.9001 12.6219L24.1921 18.7699C24.4731 19.2939 24.4321 19.9219 24.0851 20.4049C23.7401 20.8879 23.1621 21.1249 22.5741 21.0329L15.6911 19.9079L10.8631 24.9409C10.5651 25.2489 10.1631 25.4169 9.74806 25.4169L9.74806 25.4169ZM9.57606 0.961949C9.51206 0.961949 9.44705 0.972935 9.38305 0.994938C9.16606 1.06693 9.01906 1.24393 8.98706 1.47193L7.97006 8.88294L1.28706 12.2459C1.08306 12.3499 0.962058 12.5469 0.964057 12.777C0.966056 13.0049 1.09006 13.201 1.29706 13.3009L8.03006 16.5589L9.16505 23.9529C9.19805 24.179 9.34905 24.355 9.56705 24.424C9.79005 24.498 10.0111 24.433 10.1681 24.2719L15.3481 18.8739L22.7331 20.0809C22.9571 20.1199 23.1711 20.0279 23.3041 19.8439C23.4371 19.6569 23.4511 19.4259 23.3431 19.2239L19.8121 12.6299L23.2411 5.98096C23.3461 5.77796 23.3271 5.54596 23.1921 5.36295C23.0561 5.17896 22.8361 5.09794 22.6151 5.13196L15.2511 6.45496L9.98906 1.13895C9.87406 1.02393 9.72806 0.961949 9.57606 0.961949L9.57606 0.961949ZM9.74806 25.4169C9.59106 25.4169 9.43106 25.3919 9.27606 25.3429C8.70806 25.1639 8.30006 24.6869 8.21005 24.0989L7.15406 17.2059L0.876056 14.1679C0.341056 13.911 0.00505762 13.3799 5.65543e-05 12.786C-0.00494451 12.191 0.322055 11.6549 0.854057 11.3879L7.08506 8.25095L8.03306 1.34195C8.11306 0.753941 8.51506 0.269963 9.07806 0.0819439C9.64506 -0.108059 10.2531 0.0379375 10.6721 0.461949L15.5791 5.41794L22.4441 4.18595C23.0321 4.07795 23.6151 4.31495 23.9661 4.79294C24.3191 5.27195 24.3691 5.89594 24.0961 6.42493L20.9001 12.6219L24.1921 18.7699C24.4731 19.2939 24.4321 19.9219 24.0851 20.4049C23.7401 20.8879 23.1621 21.1249 22.5741 21.0329L15.6911 19.9079L10.8631 24.9409C10.5651 25.2489 10.1631 25.4169 9.74806 25.4169L9.74806 25.4169ZM9.57606 0.961949C9.51206 0.961949 9.44705 0.972935 9.38305 0.994938C9.16606 1.06693 9.01906 1.24393 8.98706 1.47193L7.97006 8.88294L1.28706 12.2459C1.08306 12.3499 0.962058 12.5469 0.964057 12.777C0.966056 13.0049 1.09006 13.201 1.29706 13.3009L8.03006 16.5589L9.16505 23.9529C9.19805 24.179 9.34905 24.355 9.56705 24.424C9.79005 24.498 10.0111 24.433 10.1681 24.2719L15.3481 18.8739L22.7331 20.0809C22.9571 20.1199 23.1711 20.0279 23.3041 19.8439C23.4371 19.6569 23.4511 19.4259 23.3431 19.2239L19.8121 12.6299L23.2411 5.98096C23.3461 5.77796 23.3271 5.54596 23.1921 5.36295C23.0561 5.17896 22.8361 5.09794 22.6151 5.13196L15.2511 6.45496L9.98906 1.13895C9.87406 1.02393 9.72806 0.961949 9.57606 0.961949L9.57606 0.961949Z" id="Shape" fill="#FFFFFF" fill-opacity="0.6" fill-rule="evenodd" stroke="none" />
      </g>
      <g id="Message_2_" transform="translate(244.78998 0)">
        <path d="M39.492 0.392696L3.28101 21.2987C1.47101 22.3437 0 25.1557 0 27.5687L0 56.3347C0 58.7467 1.47198 59.8597 3.28101 58.8147L39.492 37.9077C41.302 36.8627 42.773 34.0507 42.773 31.6377L42.773 2.8727C42.773 0.460697 41.301 -0.652304 39.492 0.392696L39.492 0.392696ZM28.739 25.3027L41.445 2.2297C41.617 2.5517 41.724 2.9667 41.724 3.4797L41.724 30.8437L28.739 25.3027L28.739 25.3027ZM3.28101 22.6977L39.492 1.79169C39.957 1.5227 40.39 1.46569 40.748 1.5857L22.763 34.2457C21.99 35.6487 20.781 36.3467 20.009 35.8357L2.02402 23.9427C2.38303 23.4087 2.815 22.9667 3.28101 22.6977L3.28101 22.6977ZM1.328 25.3897L14.034 33.7917L1.04901 54.3257L1.04901 26.9627C1.048 26.4497 1.15503 25.9117 1.328 25.3897L1.328 25.3897ZM39.492 36.5097L3.28101 57.4167C2.134 58.0787 1.19601 57.4547 1.07401 56.0387L14.815 34.3087L19.296 37.2717C19.882 37.6597 20.635 37.5887 21.387 37.1537C22.139 36.7197 22.892 35.9217 23.478 34.8567L27.959 26.7197L41.7 32.5827C41.576 34.1417 40.639 35.8477 39.492 36.5097L39.492 36.5097Z" id="Message" fill="#FC4850" fill-rule="evenodd" stroke="none" />
        <path d="M39.492 0.392696L3.28101 21.2987C1.47101 22.3437 0 25.1557 0 27.5687L0 56.3347C0 58.7467 1.47198 59.8597 3.28101 58.8147L39.492 37.9077C41.302 36.8627 42.773 34.0507 42.773 31.6377L42.773 2.8727C42.773 0.460697 41.301 -0.652304 39.492 0.392696L39.492 0.392696ZM28.739 25.3027L41.445 2.2297C41.617 2.5517 41.724 2.9667 41.724 3.4797L41.724 30.8437L28.739 25.3027L28.739 25.3027ZM3.28101 22.6977L39.492 1.79169C39.957 1.5227 40.39 1.46569 40.748 1.5857L22.763 34.2457C21.99 35.6487 20.781 36.3467 20.009 35.8357L2.02402 23.9427C2.38303 23.4087 2.815 22.9667 3.28101 22.6977L3.28101 22.6977ZM1.328 25.3897L14.034 33.7917L1.04901 54.3257L1.04901 26.9627C1.048 26.4497 1.15503 25.9117 1.328 25.3897L1.328 25.3897ZM39.492 36.5097L3.28101 57.4167C2.134 58.0787 1.19601 57.4547 1.07401 56.0387L14.815 34.3087L19.296 37.2717C19.882 37.6597 20.635 37.5887 21.387 37.1537C22.139 36.7197 22.892 35.9217 23.478 34.8567L27.959 26.7197L41.7 32.5827C41.576 34.1417 40.639 35.8477 39.492 36.5097L39.492 36.5097Z" id="Message_1_" fill="#FFFFFF" fill-opacity="0.6" fill-rule="evenodd" stroke="none" />
      </g>
      <g id="World_3_" transform="translate(328.447 223.0883)">
        <path d="M41.945 1.76538C37.208 -0.971619 31.185 -0.515625 24.991 3.06038C11.211 11.0154 0 32.3994 0 50.7294C0 60.5604 3.25601 68.0774 8.931 71.3544C10.975 72.5354 13.252 73.1214 15.681 73.1214C18.892 73.1214 22.363 72.0944 25.888 70.0604C39.668 62.1044 50.879 40.7194 50.879 22.3904C50.878 12.5594 47.622 5.04239 41.945 1.76538L41.945 1.76538ZM1.85199 49.1424C2.17099 40.0664 5.18799 30.3834 9.845 22.1184C10.955 22.6484 12.125 23.0174 13.348 23.2204C10.62 30.4684 9.05899 38.0324 8.98398 45.0244L1.85199 49.1424L1.85199 49.1424ZM26.336 37.0774L40.057 29.1554C39.841 35.7914 38.284 42.9044 35.667 49.7204C32.732 49.6264 29.57 50.4144 26.335 52.0524L26.335 37.0774L26.336 37.0774ZM26.336 35.0064L26.336 20.0874C29.766 18.0254 33.113 15.0794 36.191 11.4574C38.623 15.3224 40.015 20.6764 40.086 27.0684L26.336 35.0064L26.336 35.0064ZM26.336 17.9634L26.336 4.82738C29.856 5.26338 32.85 7.04637 35.133 9.94737C32.377 13.2524 29.393 15.9674 26.336 17.9634L26.336 17.9634ZM24.542 19.0524C21.539 20.7084 18.615 21.5564 15.911 21.6004C18.172 16.1474 21.1 10.9424 24.542 6.39841L24.542 19.0524L24.542 19.0524ZM15.197 23.4044C15.359 23.4094 15.517 23.4334 15.681 23.4334C18.482 23.4334 21.485 22.6064 24.542 21.0574L24.542 36.0424L10.806 43.9724C11.022 37.3354 12.58 30.2204 15.197 23.4044L15.197 23.4044ZM24.542 38.1134L24.542 53.0324C21.107 55.0964 17.754 58.0464 14.675 61.6734C12.242 57.8084 10.85 52.4524 10.778 46.0604L24.542 38.1134L24.542 38.1134ZM24.542 55.1574L24.542 68.3034C21.017 67.8704 18.019 66.0884 15.734 63.1854C18.491 59.8744 21.48 57.1564 24.542 55.1574L24.542 55.1574ZM26.336 54.0674C29.336 52.4124 32.255 51.5664 34.956 51.5204C32.698 56.9684 29.774 62.1694 26.336 66.7114L26.336 54.0674L26.336 54.0674ZM41.879 28.1034L49.025 23.9774C48.706 33.0574 45.686 42.7454 41.025 51.0124C39.912 50.4814 38.74 50.1094 37.515 49.9074C40.243 42.6594 41.804 35.0954 41.879 28.1034L41.879 28.1034ZM49.064 21.8844L41.85 26.0494C41.636 19.4794 40.062 13.9694 37.391 9.98341C38.907 8.06541 40.342 5.98741 41.678 3.76741C46.288 6.85539 48.96 13.3654 49.064 21.8844L49.064 21.8844ZM40.129 2.86839C38.924 4.86839 37.637 6.7464 36.284 8.49039C34.146 5.89439 31.449 4.14938 28.328 3.37439C30.712 2.32739 33.026 1.79839 35.191 1.79839C36.955 1.79839 38.608 2.16739 40.129 2.86839L40.129 2.86839ZM21.251 7.90239C18.403 12.0814 15.97 16.7024 14.03 21.4964C12.876 21.3444 11.778 21.0284 10.742 20.5494C13.738 15.5714 17.324 11.1974 21.251 7.90239L21.251 7.90239ZM1.81302 51.2354L9.01303 47.0784C9.22702 53.6514 10.802 59.1634 13.475 63.1494C11.962 65.0644 10.528 67.1364 9.19504 69.3513C4.58899 66.2654 1.918 59.7544 1.81302 51.2354L1.81302 51.2354ZM10.754 70.2414C11.954 68.2504 13.236 66.3814 14.583 64.6424C16.714 67.2274 19.4 68.9694 22.507 69.7474C18.202 71.6274 14.133 71.7974 10.754 70.2414L10.754 70.2414ZM29.608 65.2334C32.459 61.0504 34.895 56.4244 36.837 51.6254C37.994 51.7774 39.096 52.0924 40.136 52.5724C37.134 57.5564 33.542 61.9354 29.608 65.2334L29.608 65.2334Z" id="Shape" fill="#FC4850" fill-rule="evenodd" stroke="none" />
        <path d="M41.945 1.76538C37.208 -0.971619 31.185 -0.515625 24.991 3.06038C11.211 11.0154 0 32.3994 0 50.7294C0 60.5604 3.25601 68.0774 8.931 71.3544C10.975 72.5354 13.252 73.1214 15.681 73.1214C18.892 73.1214 22.363 72.0944 25.888 70.0604C39.668 62.1044 50.879 40.7194 50.879 22.3904C50.878 12.5594 47.622 5.04239 41.945 1.76538L41.945 1.76538ZM1.85199 49.1424C2.17099 40.0664 5.18799 30.3834 9.845 22.1184C10.955 22.6484 12.125 23.0174 13.348 23.2204C10.62 30.4684 9.05899 38.0324 8.98398 45.0244L1.85199 49.1424L1.85199 49.1424ZM26.336 37.0774L40.057 29.1554C39.841 35.7914 38.284 42.9044 35.667 49.7204C32.732 49.6264 29.57 50.4144 26.335 52.0524L26.335 37.0774L26.336 37.0774ZM26.336 35.0064L26.336 20.0874C29.766 18.0254 33.113 15.0794 36.191 11.4574C38.623 15.3224 40.015 20.6764 40.086 27.0684L26.336 35.0064L26.336 35.0064ZM26.336 17.9634L26.336 4.82738C29.856 5.26338 32.85 7.04637 35.133 9.94737C32.377 13.2524 29.393 15.9674 26.336 17.9634L26.336 17.9634ZM24.542 19.0524C21.539 20.7084 18.615 21.5564 15.911 21.6004C18.172 16.1474 21.1 10.9424 24.542 6.39841L24.542 19.0524L24.542 19.0524ZM15.197 23.4044C15.359 23.4094 15.517 23.4334 15.681 23.4334C18.482 23.4334 21.485 22.6064 24.542 21.0574L24.542 36.0424L10.806 43.9724C11.022 37.3354 12.58 30.2204 15.197 23.4044L15.197 23.4044ZM24.542 38.1134L24.542 53.0324C21.107 55.0964 17.754 58.0464 14.675 61.6734C12.242 57.8084 10.85 52.4524 10.778 46.0604L24.542 38.1134L24.542 38.1134ZM24.542 55.1574L24.542 68.3034C21.017 67.8704 18.019 66.0884 15.734 63.1854C18.491 59.8744 21.48 57.1564 24.542 55.1574L24.542 55.1574ZM26.336 54.0674C29.336 52.4124 32.255 51.5664 34.956 51.5204C32.698 56.9684 29.774 62.1694 26.336 66.7114L26.336 54.0674L26.336 54.0674ZM41.879 28.1034L49.025 23.9774C48.706 33.0574 45.686 42.7454 41.025 51.0124C39.912 50.4814 38.74 50.1094 37.515 49.9074C40.243 42.6594 41.804 35.0954 41.879 28.1034L41.879 28.1034ZM49.064 21.8844L41.85 26.0494C41.636 19.4794 40.062 13.9694 37.391 9.98341C38.907 8.06541 40.342 5.98741 41.678 3.76741C46.288 6.85539 48.96 13.3654 49.064 21.8844L49.064 21.8844ZM40.129 2.86839C38.924 4.86839 37.637 6.7464 36.284 8.49039C34.146 5.89439 31.449 4.14938 28.328 3.37439C30.712 2.32739 33.026 1.79839 35.191 1.79839C36.955 1.79839 38.608 2.16739 40.129 2.86839L40.129 2.86839ZM21.251 7.90239C18.403 12.0814 15.97 16.7024 14.03 21.4964C12.876 21.3444 11.778 21.0284 10.742 20.5494C13.738 15.5714 17.324 11.1974 21.251 7.90239L21.251 7.90239ZM1.81302 51.2354L9.01303 47.0784C9.22702 53.6514 10.802 59.1634 13.475 63.1494C11.962 65.0644 10.528 67.1364 9.19504 69.3513C4.58899 66.2654 1.918 59.7544 1.81302 51.2354L1.81302 51.2354ZM10.754 70.2414C11.954 68.2504 13.236 66.3814 14.583 64.6424C16.714 67.2274 19.4 68.9694 22.507 69.7474C18.202 71.6274 14.133 71.7974 10.754 70.2414L10.754 70.2414ZM29.608 65.2334C32.459 61.0504 34.895 56.4244 36.837 51.6254C37.994 51.7774 39.096 52.0924 40.136 52.5724C37.134 57.5564 33.542 61.9354 29.608 65.2334L29.608 65.2334Z" id="Shape" fill="#FFFFFF" fill-opacity="0.6" fill-rule="evenodd" stroke="none" />
      </g>
    </g>
    <g id="Device" transform="translate(46.598743 189.761)" clip-path="url(#clip_1)">
      <g id="Modem">
        <g id="Group" transform="translate(34.043247 0)">
          <g id="Group" transform="translate(0 63.63199)">
            <path d="M6.59701 29.867C6.59701 29.38 6.27501 28.892 5.631 28.52C4.343 27.776 2.25401 27.776 0.966003 28.52C0.322006 28.892 0 29.379 0 29.867C0 30.197 0 94.278 0 94.608C0 95.095 0.321999 95.583 0.966003 95.954C2.25401 96.698 4.343 96.698 5.631 95.954C6.275 95.582 6.59701 95.095 6.59701 94.608C6.59701 94.278 6.59701 30.196 6.59701 29.867L6.59701 29.867Z" id="Shape" fill="#FC4850" stroke="none" />
            <path d="M0.966011 31.213C2.25401 31.957 4.34301 31.957 5.63101 31.213C6.27501 30.841 6.59702 30.354 6.59702 29.866C6.59702 29.379 6.27502 28.891 5.63101 28.519C4.34301 27.775 2.25401 27.775 0.966011 28.519C0.322014 28.891 7.62939e-06 29.378 7.62939e-06 29.866C7.62939e-06 30.354 0.322006 30.841 0.966011 31.213L0.966011 31.213Z" id="Shape" fill="#FFFFFF" fill-opacity="0.3" stroke="none" />
            <path d="M4.75501 0.841003C4.75501 0.626007 4.61301 0.411011 4.32801 0.246002C3.75901 -0.0820007 2.83701 -0.0820007 2.26801 0.246002C1.98402 0.410004 1.84201 0.625 1.84201 0.839996C1.84201 0.985992 1.84201 29.28 1.84201 29.425C1.84201 29.64 1.98401 29.855 2.26801 30.02C2.83701 30.348 3.75901 30.348 4.32801 30.02C4.61201 29.856 4.75501 29.641 4.75501 29.425C4.75501 29.281 4.75501 0.987015 4.75501 0.841003L4.75501 0.841003Z" id="Shape" fill="#FC4850" stroke="none" />
            <path d="M2.26901 1.436C2.83801 1.76401 3.76001 1.76401 4.32901 1.436C4.61301 1.272 4.75601 1.05701 4.75601 0.842011C4.75601 0.627014 4.61401 0.412018 4.32901 0.247009C3.76001 -0.0809937 2.83801 -0.0809937 2.26901 0.247009C1.98502 0.411011 1.84301 0.626007 1.84301 0.841003C1.84201 1.05602 1.98501 1.272 2.26901 1.436L2.26901 1.436Z" id="Shape" fill="#FFFFFF" fill-opacity="0.3" stroke="none" />
          </g>
          <g id="Group" transform="translate(110.213005 0)">
            <path d="M6.597 29.867C6.597 29.38 6.27499 28.892 5.631 28.521C4.343 27.777 2.25499 27.777 0.966003 28.521C0.322006 28.893 0 29.38 0 29.867C0 30.197 0 94.278 0 94.608C0 95.095 0.322006 95.583 0.966003 95.955C2.254 96.699 4.343 96.699 5.631 95.955C6.27499 95.583 6.597 95.096 6.597 94.608C6.597 94.278 6.597 30.196 6.597 29.867L6.597 29.867Z" id="Shape" fill="#FC4850" stroke="none" />
            <path d="M0.966003 31.213C2.254 31.957 4.34201 31.957 5.631 31.213C6.27499 30.841 6.597 30.354 6.597 29.866C6.597 29.379 6.27499 28.891 5.631 28.52C4.343 27.776 2.25499 27.776 0.966003 28.52C0.322006 28.892 0 29.379 0 29.866C0 30.354 0.322006 30.841 0.966003 31.213L0.966003 31.213Z" id="Shape" fill="#FFFFFF" fill-opacity="0.3" stroke="none" />
            <path d="M4.755 0.841003C4.755 0.626007 4.61301 0.411011 4.32901 0.246002C3.76001 -0.0820007 2.83801 -0.0820007 2.26901 0.246002C1.98502 0.410004 1.84201 0.625 1.84201 0.841003C1.84201 0.987 1.84201 29.281 1.84201 29.426C1.84201 29.641 1.98401 29.856 2.26901 30.021C2.83801 30.349 3.76001 30.349 4.32901 30.021C4.61301 29.857 4.755 29.642 4.755 29.426C4.755 29.281 4.755 0.987 4.755 0.841003L4.755 0.841003Z" id="Shape" fill="#FC4850" stroke="none" />
            <path d="M2.269 1.436C2.838 1.76401 3.75999 1.76401 4.32899 1.436C4.61299 1.272 4.75499 1.05701 4.75499 0.842011C4.75499 0.627014 4.61299 0.412018 4.32899 0.247009C3.75999 -0.0809937 2.838 -0.0809937 2.269 0.247009C1.985 0.411011 1.842 0.626007 1.842 0.842011C1.84201 1.056 1.98401 1.271 2.269 1.436L2.269 1.436Z" id="Shape" fill="#FFFFFF" fill-opacity="0.3" stroke="none" />
          </g>
        </g>
        <g id="Group" transform="translate(0 80.501144)">
          <g id="Group" transform="translate(1.9663086 23.041077)">
            <path d="M99.541 164.311L5.88195 110.237C3.30495 108.749 0.736946 105.142 0.174946 102.22L0.111946 101.891C-0.460052 98.9158 1.21695 95.2438 3.84095 93.7288L158.102 4.66577C168.877 -1.55524 186.51 -1.55524 197.285 4.66577L296.268 61.8138C298.886 63.3258 300.65 67.0068 300.187 69.9948L300.187 69.9948C299.731 72.9398 297.246 76.5688 294.665 78.0588L145.272 164.311C132.695 171.572 112.117 171.572 99.541 164.311L99.541 164.311Z" id="Shape" fill="#FC4850" stroke="none" />
            <path d="M99.541 164.311L5.88195 110.237C3.30495 108.749 0.736946 105.142 0.174946 102.22L0.111946 101.891C-0.460052 98.9158 1.21695 95.2438 3.84095 93.7288L158.102 4.66577C168.877 -1.55524 186.51 -1.55524 197.285 4.66577L296.268 61.8138C298.886 63.3258 300.65 67.0068 300.187 69.9948L300.187 69.9948C299.731 72.9398 297.246 76.5688 294.665 78.0588L145.272 164.311C132.695 171.572 112.117 171.572 99.541 164.311L99.541 164.311Z" id="Shape" fill="#000000" fill-opacity="0.15" stroke="none" />
          </g>
          <g id="Group" transform="translate(0.00025558472 0.9315796)">
            <path d="M160.226 4.67328L8.605 92.2123C3.872 94.9453 0 101.652 0 107.117L0 112.621C0 118.086 3.872 124.793 8.605 127.526L101.286 181.035C113.879 188.306 134.485 188.306 147.078 181.035L295.425 95.3873C300.158 92.6543 304.03 85.9473 304.03 80.4823L304.03 74.9773C304.03 69.5123 300.158 62.8053 295.425 60.0723L199.471 4.67328C188.679 -1.55774 171.019 -1.55774 160.226 4.67328L160.226 4.67328Z" id="Shape" fill="#FC4850" stroke="none" />
            <path d="M160.226 4.67328L8.605 92.2123C3.872 94.9453 0 101.652 0 107.117L0 112.621C0 118.086 3.872 124.793 8.605 127.526L101.286 181.035C113.879 188.306 134.485 188.306 147.078 181.035L295.425 95.3873C300.158 92.6543 304.03 85.9473 304.03 80.4823L304.03 74.9773C304.03 69.5123 300.158 62.8053 295.425 60.0723L199.471 4.67328C188.679 -1.55774 171.019 -1.55774 160.226 4.67328L160.226 4.67328Z" id="Shape" fill="#FFFFFF" fill-opacity="0.4" stroke="none" />
          </g>
          <g id="Group" transform="translate(0 0.00012207031)">
            <path d="M0.0972557 100.851C0.616257 98.4377 3.06626 95.3107 5.57026 93.8647L160.067 4.66574C170.842 -1.55527 188.475 -1.55527 199.25 4.66574L298.46 61.9447C300.964 63.3908 303.527 66.4527 304.185 68.7847C304.843 71.1167 303.347 74.1797 300.843 75.6257L147.236 164.311C134.66 171.572 114.082 171.572 101.506 164.311L3.69126 107.837C1.18826 106.391 -0.421745 103.263 0.0972557 100.851L0.0972557 100.851Z" id="Shape" fill="#FC4850" stroke="none" />
            <path d="M0.0972557 100.851C0.616257 98.4377 3.06626 95.3107 5.57026 93.8647L160.067 4.66574C170.842 -1.55527 188.475 -1.55527 199.25 4.66574L298.46 61.9447C300.964 63.3908 303.527 66.4527 304.185 68.7847C304.843 71.1167 303.347 74.1797 300.843 75.6257L147.236 164.311C134.66 171.572 114.082 171.572 101.506 164.311L3.69126 107.837C1.18826 106.391 -0.421745 103.263 0.0972557 100.851L0.0972557 100.851Z" id="Shape" fill="#FFFFFF" fill-opacity="0.75" stroke="none" />
          </g>
          <g id="Group" transform="translate(4.0385056 0)">
            <path d="M156.03 4.66586L2.10675 93.5329C-0.702251 95.1549 -0.702251 97.8089 2.10675 99.4309L97.4687 154.488C110.045 161.749 130.623 161.749 143.199 154.488L293.849 67.5099C296.658 65.8879 296.658 63.2339 293.849 61.6119L195.213 4.66489C184.437 -1.55515 166.805 -1.55515 156.03 4.66586L156.03 4.66586Z" id="Shape" fill="#FC4850" stroke="none" />
            <path d="M156.03 4.66586L2.10675 93.5329C-0.702251 95.1549 -0.702251 97.8089 2.10675 99.4309L97.4687 154.488C110.045 161.749 130.623 161.749 143.199 154.488L293.849 67.5099C296.658 65.8879 296.658 63.2339 293.849 61.6119L195.213 4.66489C184.437 -1.55515 166.805 -1.55515 156.03 4.66586L156.03 4.66586Z" id="Shape" fill="#FFFFFF" fill-opacity="0.6" stroke="none" />
          </g>
          <g id="Group" transform="translate(158.39626 93.97388)">
            <path d="M32.959 48.35C32.372 48.69 31.896 49.552 31.896 50.275L31.897 58.271C31.897 58.994 32.373 59.304 32.96 58.963C33.547 58.623 34.023 57.761 34.023 57.038L34.023 49.042C34.022 48.32 33.546 48.009 32.959 48.35L32.959 48.35ZM39.338 44.641C38.751 44.981 38.275 45.843 38.275 46.566L38.276 54.562C38.276 55.285 38.752 55.595 39.339 55.254C39.926 54.914 40.402 54.052 40.402 53.329L40.402 45.333C40.401 44.611 39.925 44.301 39.338 44.641L39.338 44.641ZM1.063 66.892C0.475998 67.232 0 68.094 0 68.817L0.00100708 76.813C0.00100708 77.5359 0.477005 77.8459 1.06401 77.5049C1.65102 77.1649 2.12701 76.3029 2.12701 75.58L2.12701 67.584C2.12601 66.862 1.65001 66.552 1.063 66.892L1.063 66.892ZM52.096 37.224C51.509 37.564 51.033 38.426 51.033 39.149L51.034 47.145C51.034 47.868 51.51 48.1779 52.097 47.8369C52.684 47.4969 53.16 46.6349 53.16 45.912L53.16 37.916C53.159 37.194 52.683 36.884 52.096 37.224L52.096 37.224ZM45.717 40.933C45.13 41.273 44.654 42.135 44.654 42.858L44.655 50.854C44.655 51.577 45.131 51.887 45.718 51.546C46.305 51.206 46.781 50.344 46.781 49.621L46.781 41.625C46.78 40.902 46.304 40.592 45.717 40.933L45.717 40.933ZM13.821 59.475C13.234 59.815 12.758 60.677 12.758 61.4L12.759 69.396C12.759 70.119 13.235 70.429 13.822 70.088C14.409 69.748 14.885 68.886 14.885 68.163L14.885 60.167C14.884 59.445 14.408 59.135 13.821 59.475L13.821 59.475ZM7.442 63.184C6.855 63.524 6.379 64.386 6.379 65.109L6.38 73.105C6.38 73.828 6.856 74.138 7.44301 73.797C8.03001 73.457 8.50601 72.595 8.50601 71.872L8.50601 63.876C8.505 63.154 8.02901 62.844 7.442 63.184L7.442 63.184ZM20.2 55.767C19.613 56.107 19.137 56.969 19.137 57.692L19.138 65.688C19.138 66.4109 19.614 66.7209 20.201 66.3799C20.788 66.0399 21.264 65.1779 21.264 64.455L21.264 56.459C21.264 55.737 20.788 55.427 20.2 55.767L20.2 55.767ZM58.475 33.515C57.888 33.855 57.411 34.717 57.412 35.44L57.413 43.436C57.413 44.159 57.889 44.469 58.476 44.128C59.063 43.788 59.539 42.926 59.539 42.203L59.539 34.207C59.539 33.485 59.062 33.175 58.475 33.515L58.475 33.515ZM26.579 52.058C25.992 52.398 25.516 53.26 25.516 53.983L25.517 61.979C25.517 62.702 25.993 63.012 26.58 62.671C27.167 62.331 27.643 61.469 27.643 60.746L27.643 52.75C27.643 52.028 27.167 51.718 26.579 52.058L26.579 52.058ZM109.508 3.84698C108.921 4.18698 108.445 5.04898 108.445 5.77197L108.446 13.768C108.446 14.491 108.922 14.801 109.509 14.461C110.096 14.12 110.572 13.259 110.572 12.536L110.572 4.53998C110.572 3.81699 110.096 3.50699 109.508 3.84698L109.508 3.84698ZM64.854 29.807C64.267 30.147 63.791 31.009 63.791 31.732L63.792 39.728C63.792 40.451 64.268 40.761 64.855 40.42C65.442 40.08 65.918 39.218 65.918 38.495L65.918 30.499C65.918 29.777 65.441 29.467 64.854 29.807L64.854 29.807ZM103.129 7.55597C102.542 7.89597 102.066 8.75797 102.066 9.48096L102.067 17.477C102.067 18.2 102.543 18.5099 103.13 18.1689C103.717 17.8289 104.193 16.9669 104.193 16.244L104.193 8.24796C104.193 7.52496 103.716 7.21497 103.129 7.55597L103.129 7.55597ZM115.888 0.13797C115.301 0.477966 114.825 1.33997 114.825 2.06296L114.826 10.059C114.826 10.782 115.302 11.0919 115.889 10.752C116.476 10.412 116.952 9.54996 116.952 8.82697L116.952 0.830963C116.951 0.107971 116.475 -0.202026 115.888 0.13797L115.888 0.13797ZM96.75 11.264C96.163 11.604 95.686 12.466 95.687 13.189L95.688 21.185C95.688 21.908 96.164 22.218 96.751 21.877C97.338 21.537 97.814 20.675 97.814 19.952L97.814 11.956C97.814 11.234 97.337 10.924 96.75 11.264L96.75 11.264ZM71.233 26.098C70.646 26.438 70.17 27.3 70.17 28.023L70.171 36.019C70.171 36.742 70.647 37.052 71.234 36.711C71.821 36.371 72.297 35.509 72.297 34.786L72.297 26.79C72.297 26.068 71.821 25.758 71.233 26.098L71.233 26.098ZM77.613 22.39C77.026 22.73 76.55 23.592 76.55 24.315L76.551 32.311C76.551 33.034 77.027 33.344 77.614 33.003C78.201 32.663 78.677 31.801 78.677 31.078L78.677 23.082C78.676 22.36 78.2 22.049 77.613 22.39L77.613 22.39ZM90.371 14.973C89.784 15.313 89.308 16.175 89.308 16.898L89.309 24.894C89.309 25.617 89.785 25.927 90.372 25.586C90.959 25.246 91.435 24.384 91.435 23.661L91.435 15.665C91.434 14.942 90.958 14.632 90.371 14.973L90.371 14.973ZM83.992 18.681C83.405 19.021 82.929 19.883 82.929 20.606L82.93 28.602C82.93 29.325 83.406 29.6349 83.993 29.2939C84.58 28.9539 85.056 28.0919 85.056 27.369L85.056 19.373C85.055 18.651 84.579 18.341 83.992 18.681L83.992 18.681Z" id="Shape" fill="#FC4850" fill-rule="evenodd" stroke="none" />
            <path d="M45.717 40.933C45.13 41.273 44.654 42.135 44.654 42.858L44.655 50.854C44.655 51.577 45.131 51.887 45.718 51.546C46.305 51.206 46.781 50.344 46.781 49.621L46.781 41.625C46.78 40.902 46.304 40.592 45.717 40.933L45.717 40.933ZM32.959 48.35C32.372 48.69 31.896 49.552 31.896 50.275L31.897 58.271C31.897 58.994 32.373 59.304 32.96 58.963C33.547 58.623 34.023 57.761 34.023 57.038L34.023 49.042C34.022 48.32 33.546 48.009 32.959 48.35L32.959 48.35ZM39.338 44.641C38.751 44.981 38.275 45.843 38.275 46.566L38.276 54.562C38.276 55.285 38.752 55.595 39.339 55.254C39.926 54.914 40.402 54.052 40.402 53.329L40.402 45.333C40.401 44.611 39.925 44.301 39.338 44.641L39.338 44.641ZM1.063 66.892C0.475998 67.232 0 68.094 0 68.817L0.00100708 76.813C0.00100708 77.5359 0.477005 77.8459 1.06401 77.5049C1.65102 77.1649 2.12701 76.3029 2.12701 75.58L2.12701 67.584C2.12601 66.862 1.65001 66.552 1.063 66.892L1.063 66.892ZM52.096 37.224C51.509 37.564 51.033 38.426 51.033 39.149L51.034 47.145C51.034 47.868 51.51 48.1779 52.097 47.8369C52.684 47.4969 53.16 46.6349 53.16 45.912L53.16 37.916C53.159 37.194 52.683 36.884 52.096 37.224L52.096 37.224ZM58.475 33.515C57.888 33.855 57.411 34.717 57.412 35.44L57.413 43.436C57.413 44.159 57.889 44.469 58.476 44.128C59.063 43.788 59.539 42.926 59.539 42.203L59.539 34.207C59.539 33.485 59.062 33.175 58.475 33.515L58.475 33.515ZM13.821 59.475C13.234 59.815 12.758 60.677 12.758 61.4L12.759 69.396C12.759 70.119 13.235 70.429 13.822 70.088C14.409 69.748 14.885 68.886 14.885 68.163L14.885 60.167C14.884 59.445 14.408 59.135 13.821 59.475L13.821 59.475ZM20.2 55.767C19.613 56.107 19.137 56.969 19.137 57.692L19.138 65.688C19.138 66.4109 19.614 66.7209 20.201 66.3799C20.788 66.0399 21.264 65.1779 21.264 64.455L21.264 56.459C21.264 55.737 20.788 55.427 20.2 55.767L20.2 55.767ZM26.579 52.058C25.992 52.398 25.516 53.26 25.516 53.983L25.517 61.979C25.517 62.702 25.993 63.012 26.58 62.671C27.167 62.331 27.643 61.469 27.643 60.746L27.643 52.75C27.643 52.028 27.167 51.718 26.579 52.058L26.579 52.058ZM7.442 63.184C6.855 63.524 6.379 64.386 6.379 65.109L6.38 73.105C6.38 73.828 6.856 74.138 7.44301 73.797C8.03001 73.457 8.50601 72.595 8.50601 71.872L8.50601 63.876C8.505 63.154 8.02901 62.844 7.442 63.184L7.442 63.184ZM109.508 3.84698C108.921 4.18698 108.445 5.04898 108.445 5.77197L108.446 13.768C108.446 14.491 108.922 14.801 109.509 14.461C110.096 14.12 110.572 13.259 110.572 12.536L110.572 4.53998C110.572 3.81699 110.096 3.50699 109.508 3.84698L109.508 3.84698ZM103.129 7.55597C102.542 7.89597 102.066 8.75797 102.066 9.48096L102.067 17.477C102.067 18.2 102.543 18.5099 103.13 18.1689C103.717 17.8289 104.193 16.9669 104.193 16.244L104.193 8.24796C104.193 7.52496 103.716 7.21497 103.129 7.55597L103.129 7.55597ZM115.888 0.13797C115.301 0.477966 114.825 1.33997 114.825 2.06296L114.826 10.059C114.826 10.782 115.302 11.0919 115.889 10.752C116.476 10.412 116.952 9.54996 116.952 8.82697L116.952 0.830963C116.951 0.107971 116.475 -0.202026 115.888 0.13797L115.888 0.13797ZM96.75 11.264C96.163 11.604 95.686 12.466 95.687 13.189L95.688 21.185C95.688 21.908 96.164 22.218 96.751 21.877C97.338 21.537 97.814 20.675 97.814 19.952L97.814 11.956C97.814 11.234 97.337 10.924 96.75 11.264L96.75 11.264ZM64.854 29.807C64.267 30.147 63.791 31.009 63.791 31.732L63.792 39.728C63.792 40.451 64.268 40.761 64.855 40.42C65.442 40.08 65.918 39.218 65.918 38.495L65.918 30.499C65.918 29.777 65.441 29.467 64.854 29.807L64.854 29.807ZM77.613 22.39C77.026 22.73 76.55 23.592 76.55 24.315L76.551 32.311C76.551 33.034 77.027 33.344 77.614 33.003C78.201 32.663 78.677 31.801 78.677 31.078L78.677 23.082C78.676 22.36 78.2 22.049 77.613 22.39L77.613 22.39ZM90.371 14.973C89.784 15.313 89.308 16.175 89.308 16.898L89.309 24.894C89.309 25.617 89.785 25.927 90.372 25.586C90.959 25.246 91.435 24.384 91.435 23.661L91.435 15.665C91.434 14.942 90.958 14.632 90.371 14.973L90.371 14.973ZM71.233 26.098C70.646 26.438 70.17 27.3 70.17 28.023L70.171 36.019C70.171 36.742 70.647 37.052 71.234 36.711C71.821 36.371 72.297 35.509 72.297 34.786L72.297 26.79C72.297 26.068 71.821 25.758 71.233 26.098L71.233 26.098ZM83.992 18.681C83.405 19.021 82.929 19.883 82.929 20.606L82.93 28.602C82.93 29.325 83.406 29.6349 83.993 29.2939C84.58 28.9539 85.056 28.0919 85.056 27.369L85.056 19.373C85.055 18.651 84.579 18.341 83.992 18.681L83.992 18.681Z" id="Shape" fill="#000000" fill-opacity="0.15" fill-rule="evenodd" stroke="none" />
            <path d="M26.579 52.058C25.992 52.398 25.516 53.26 25.516 53.983L25.517 61.979C25.517 62.071 25.525 62.156 25.54 62.234C25.593 62.213 25.646 62.192 25.702 62.16C26.289 61.82 26.765 60.958 26.765 60.235L26.765 52.239C26.765 52.147 26.757 52.062 26.742 51.984C26.689 52.005 26.635 52.026 26.579 52.058L26.579 52.058ZM32.959 48.35C32.372 48.69 31.896 49.552 31.896 50.275L31.897 58.271C31.897 58.363 31.905 58.448 31.92 58.526C31.973 58.505 32.026 58.484 32.082 58.452C32.669 58.112 33.145 57.25 33.145 56.527L33.145 48.531C33.145 48.439 33.137 48.354 33.123 48.276C33.068 48.297 33.014 48.317 32.959 48.35L32.959 48.35ZM39.338 44.641C38.751 44.981 38.275 45.843 38.275 46.566L38.276 54.562C38.276 54.654 38.284 54.739 38.299 54.817C38.352 54.796 38.406 54.775 38.461 54.743C39.048 54.403 39.524 53.541 39.524 52.818L39.524 44.822C39.524 44.73 39.516 44.645 39.501 44.567C39.447 44.588 39.393 44.609 39.338 44.641L39.338 44.641ZM45.717 40.933C45.13 41.273 44.654 42.135 44.654 42.858L44.655 50.854C44.655 50.946 44.663 51.031 44.678 51.109C44.731 51.088 44.785 51.067 44.84 51.035C45.427 50.695 45.903 49.833 45.903 49.11L45.903 41.114C45.903 41.022 45.895 40.937 45.88 40.859C45.826 40.879 45.773 40.9 45.717 40.933L45.717 40.933ZM52.096 37.224C51.509 37.564 51.033 38.426 51.033 39.149L51.034 47.145C51.034 47.237 51.042 47.322 51.057 47.4C51.11 47.379 51.164 47.358 51.219 47.326C51.806 46.986 52.282 46.124 52.282 45.401L52.282 37.405C52.282 37.313 52.274 37.228 52.259 37.15C52.205 37.171 52.152 37.192 52.096 37.224L52.096 37.224ZM7.442 63.184C6.855 63.524 6.379 64.386 6.379 65.109L6.38 73.105C6.38 73.197 6.388 73.282 6.403 73.36C6.45599 73.339 6.50999 73.318 6.565 73.286C7.15201 72.946 7.62801 72.084 7.62801 71.361L7.62801 63.365C7.62801 63.273 7.62001 63.188 7.60501 63.11C7.55101 63.131 7.498 63.152 7.442 63.184L7.442 63.184ZM20.2 55.767C19.613 56.107 19.137 56.969 19.137 57.692L19.138 65.688C19.138 65.78 19.146 65.865 19.161 65.943C19.214 65.922 19.268 65.901 19.323 65.869C19.91 65.529 20.386 64.667 20.386 63.944L20.386 55.948C20.386 55.856 20.378 55.771 20.363 55.693C20.31 55.714 20.256 55.734 20.2 55.767L20.2 55.767ZM1.063 66.892C0.475998 67.232 0 68.094 0 68.817L0.00100708 76.813C0.00100708 76.905 0.00900269 76.99 0.0240021 77.068C0.0769958 77.047 0.130997 77.026 0.186005 76.994C0.77301 76.654 1.24901 75.792 1.24901 75.069L1.24901 67.073C1.24901 66.981 1.24101 66.896 1.22601 66.818C1.17201 66.839 1.11801 66.86 1.063 66.892L1.063 66.892ZM13.821 59.475C13.234 59.815 12.758 60.677 12.758 61.4L12.759 69.396C12.759 69.488 12.767 69.573 12.782 69.651C12.835 69.63 12.889 69.609 12.944 69.577C13.531 69.237 14.007 68.375 14.007 67.652L14.007 59.656C14.007 59.564 13.999 59.479 13.984 59.401C13.93 59.422 13.877 59.443 13.821 59.475L13.821 59.475ZM83.992 18.681C83.405 19.021 82.929 19.883 82.929 20.606L82.93 28.602C82.93 28.694 82.938 28.779 82.953 28.857C83.006 28.836 83.06 28.815 83.115 28.783C83.702 28.443 84.178 27.581 84.178 26.858L84.178 18.862C84.178 18.77 84.17 18.685 84.155 18.607C84.101 18.628 84.048 18.649 83.992 18.681L83.992 18.681ZM103.129 7.55597C102.542 7.89597 102.066 8.75797 102.066 9.48096L102.067 17.477C102.067 17.569 102.075 17.654 102.09 17.732C102.143 17.711 102.196 17.69 102.252 17.658C102.839 17.318 103.315 16.456 103.315 15.733L103.315 7.73697C103.315 7.64496 103.307 7.55997 103.293 7.48196C103.238 7.50198 103.185 7.52298 103.129 7.55597L103.129 7.55597ZM96.75 11.264C96.163 11.604 95.686 12.466 95.687 13.189L95.688 21.185C95.688 21.277 95.696 21.362 95.711 21.44C95.764 21.419 95.818 21.398 95.873 21.366C96.46 21.026 96.936 20.164 96.936 19.441L96.936 11.445C96.936 11.353 96.928 11.268 96.914 11.19C96.859 11.211 96.806 11.232 96.75 11.264L96.75 11.264ZM109.508 3.84698C108.921 4.18698 108.445 5.04898 108.445 5.77197L108.446 13.768C108.446 13.86 108.454 13.945 108.469 14.023C108.522 14.002 108.575 13.981 108.631 13.949C109.218 13.609 109.694 12.747 109.694 12.024L109.694 4.02798C109.694 3.93597 109.686 3.85098 109.671 3.77298C109.618 3.79398 109.564 3.81497 109.508 3.84698L109.508 3.84698ZM116.05 0.0639648C115.997 0.0849609 115.943 0.105957 115.887 0.13797C115.3 0.477966 114.824 1.33997 114.824 2.06296L114.825 10.059C114.825 10.151 114.833 10.236 114.848 10.314C114.901 10.293 114.955 10.272 115.01 10.24C115.597 9.89996 116.073 9.03796 116.073 8.31497L116.073 0.31897C116.073 0.227966 116.065 0.142975 116.05 0.0639648L116.05 0.0639648ZM77.613 22.39C77.026 22.73 76.55 23.592 76.55 24.315L76.551 32.311C76.551 32.403 76.559 32.488 76.574 32.566C76.627 32.545 76.681 32.524 76.736 32.492C77.323 32.151 77.799 31.29 77.799 30.567L77.799 22.571C77.799 22.479 77.791 22.394 77.776 22.316C77.722 22.337 77.668 22.358 77.613 22.39L77.613 22.39ZM90.371 14.973C89.784 15.313 89.308 16.175 89.308 16.898L89.309 24.894C89.309 24.986 89.317 25.071 89.332 25.149C89.385 25.128 89.439 25.107 89.494 25.075C90.081 24.735 90.557 23.873 90.557 23.15L90.557 15.154C90.557 15.062 90.549 14.977 90.534 14.899C90.48 14.919 90.427 14.94 90.371 14.973L90.371 14.973ZM64.854 29.807C64.267 30.147 63.791 31.009 63.791 31.732L63.792 39.728C63.792 39.82 63.8 39.905 63.815 39.983C63.868 39.962 63.921 39.941 63.977 39.909C64.564 39.569 65.04 38.707 65.04 37.984L65.04 29.988C65.04 29.896 65.032 29.811 65.018 29.733C64.963 29.754 64.91 29.775 64.854 29.807L64.854 29.807ZM71.233 26.098C70.646 26.438 70.17 27.3 70.17 28.023L70.171 36.019C70.171 36.111 70.179 36.196 70.194 36.274C70.247 36.253 70.3 36.232 70.356 36.2C70.943 35.86 71.419 34.998 71.419 34.275L71.419 26.279C71.419 26.187 71.411 26.102 71.396 26.024C71.343 26.045 71.289 26.066 71.233 26.098L71.233 26.098ZM58.475 33.515C57.888 33.855 57.411 34.717 57.412 35.44L57.413 43.436C57.413 43.528 57.421 43.613 57.436 43.691C57.489 43.67 57.543 43.649 57.598 43.617C58.185 43.277 58.661 42.415 58.661 41.692L58.661 33.696C58.661 33.604 58.653 33.519 58.639 33.441C58.584 33.462 58.531 33.483 58.475 33.515L58.475 33.515Z" id="Shape" fill="#000000" fill-opacity="0.3" fill-rule="evenodd" stroke="none" />
          </g>
        </g>
        <g id="Group" transform="translate(135.53427 151.50752)">
          <path d="M1.87799 64.9255L14.074 71.9675C16.578 73.4135 20.637 73.4135 23.141 71.9675L124.65 13.3615C127.154 11.9155 127.154 9.57248 124.65 8.1265L112.453 1.0845C109.949 -0.361511 105.89 -0.361511 103.386 1.0845L1.87804 59.6905C-0.626007 61.1365 -0.626007 63.4795 1.87799 64.9255L1.87799 64.9255Z" id="Shape" fill="#37474F" stroke="none" />
          <path d="M124.65 9.40247L112.453 2.36047C109.949 0.914459 105.89 0.914459 103.386 2.36047L1.87801 60.9665C0.909012 61.5265 0.325012 62.2205 0.106003 62.9455C0.324997 63.6705 0.908997 64.3655 1.87801 64.9245L14.075 71.9665C16.579 73.4125 20.638 73.4125 23.142 71.9665L124.651 13.3605C125.62 12.8005 126.204 12.1055 126.423 11.3815C126.203 10.6575 125.62 9.96246 124.65 9.40247L124.65 9.40247Z" id="Shape" fill="#455A64" stroke="none" />
          <g id="Group" transform="translate(10.613632 6.355713)">
            <path d="M101.914 6.26578C101.975 6.26877 102.031 6.25677 102.071 6.23376C102.111 6.21075 102.131 6.17776 102.126 6.14276L102.008 5.19376C101.999 5.12076 101.889 5.05676 101.762 5.05176C101.635 5.04675 101.54 5.10175 101.549 5.17474L101.627 5.80374L99.0154 4.29575C98.9193 4.23975 98.7744 4.23474 98.6913 4.28174C98.6083 4.32974 98.6183 4.41373 98.7144 4.46875L101.326 5.97675L100.235 5.93173C100.108 5.92673 100.013 5.98172 100.022 6.05472C100.031 6.12772 100.141 6.19171 100.268 6.19672L101.914 6.26578ZM103.809 4.77576C103.726 4.82376 103.736 4.90775 103.832 4.96277L104.747 5.49078L100.785 7.77777L99.8704 7.24976C99.7744 7.19376 99.6294 7.18875 99.5464 7.23676C99.4633 7.28476 99.4734 7.36874 99.5694 7.42377L100.657 8.05176C100.753 8.10776 100.898 8.11377 100.981 8.06476L105.244 5.60376C105.327 5.55576 105.317 5.47177 105.221 5.41675L104.133 4.78876C104.037 4.73376 103.892 4.72775 103.809 4.77576ZM90.4534 10.2398L88.5604 11.3328L88.1654 10.3578C88.1354 10.2848 88.0114 10.2307 87.8884 10.2378C87.7654 10.2438 87.6884 10.3088 87.7184 10.3818L88.1093 11.3478L86.4363 11.1218C86.3093 11.1048 86.1973 11.1488 86.1863 11.2198C86.1743 11.2908 86.2673 11.3628 86.3943 11.3798L88.0823 11.6078L86.1893 12.7007C86.1063 12.7487 86.1163 12.8327 86.2123 12.8878L89.5253 14.7997C89.6213 14.8557 89.7663 14.8618 89.8493 14.8138L94.1123 12.3528C94.1953 12.3047 94.1853 12.2208 94.0893 12.1657L90.7773 10.2527C90.6823 10.1978 90.5374 10.1918 90.4534 10.2398ZM93.6154 12.2388L89.6534 14.5258L86.6884 12.8138L90.6504 10.5268L93.6154 12.2388ZM79.3344 17.4898C79.0523 17.3448 78.7633 17.2358 78.4703 17.1648C78.1763 17.0938 77.8843 17.0608 77.5943 17.0658C77.3033 17.0708 77.0163 17.1128 76.7333 17.1898C76.4503 17.2668 76.1783 17.3808 75.9183 17.5308C75.7083 17.6518 75.5443 17.7908 75.4263 17.9478C75.3083 18.1048 75.2453 18.2678 75.2383 18.4358C75.2314 18.6048 75.2834 18.7768 75.3963 18.9528C75.5093 19.1288 75.6883 19.2957 75.9323 19.4548C75.9753 19.4838 76.0374 19.5218 76.1173 19.5698C76.1983 19.6178 76.2843 19.6678 76.3743 19.7208C76.4653 19.7728 76.5533 19.8238 76.6383 19.8708C76.7243 19.9178 76.7933 19.9557 76.8453 19.9828C77.1313 20.1268 77.4253 20.2298 77.7253 20.2928C78.0263 20.3557 78.3233 20.3848 78.6173 20.3798C78.9113 20.3748 79.1903 20.3378 79.4554 20.2698C79.7204 20.2018 79.9574 20.1068 80.1684 19.9848C80.3504 19.8798 80.4984 19.7768 80.6124 19.6758C80.7254 19.5748 80.8124 19.4778 80.8714 19.3838C80.9314 19.2898 80.9684 19.1978 80.9844 19.1088C80.9994 19.0198 81.0024 18.9348 80.9924 18.8538C80.9884 18.8268 80.9734 18.8048 80.9444 18.7888C80.9014 18.7598 80.8524 18.7458 80.7994 18.7458C80.7464 18.7458 80.7024 18.7548 80.6684 18.7748L80.4644 18.8928C80.4304 18.9128 80.4104 18.9328 80.4054 18.9528C80.3994 18.9728 80.3924 18.9998 80.3844 19.0338C80.3764 19.0928 80.3614 19.1498 80.3404 19.2038C80.3194 19.2578 80.2854 19.3118 80.2374 19.3668C80.1894 19.4218 80.1264 19.4788 80.0484 19.5388C79.9694 19.5988 79.8674 19.6648 79.7404 19.7388C79.5854 19.8278 79.4094 19.8998 79.2133 19.9538C79.0164 20.0078 78.8073 20.0368 78.5883 20.0428C78.3683 20.0478 78.1423 20.0268 77.9113 19.9788C77.6794 19.9308 77.4493 19.8508 77.2203 19.7398C77.1633 19.7148 77.0953 19.6798 77.0154 19.6348C76.9354 19.5908 76.8534 19.5438 76.7693 19.4948C76.6853 19.4467 76.6064 19.3987 76.5334 19.3528C76.4594 19.3068 76.4004 19.2687 76.3574 19.2408C76.1613 19.1068 76.0214 18.9717 75.9364 18.8368C75.8514 18.7018 75.8134 18.5708 75.8224 18.4438C75.8314 18.3167 75.8824 18.1967 75.9763 18.0828C76.0703 17.9688 76.1934 17.8678 76.3484 17.7778C76.7563 17.5418 77.1774 17.4188 77.6114 17.4068C78.0453 17.3948 78.4973 17.5038 78.9664 17.7308C79.1254 17.8088 79.2644 17.8838 79.3844 17.9558C79.5044 18.0288 79.5844 18.0788 79.6244 18.1048C79.6634 18.1278 79.6994 18.1538 79.7314 18.1858C79.7634 18.2168 79.7874 18.2498 79.8033 18.2838C79.8193 18.3177 79.8214 18.3517 79.8083 18.3857C79.7964 18.4197 79.7624 18.4527 79.7064 18.4847C79.6164 18.5367 79.5144 18.5567 79.3983 18.5447C79.2823 18.5338 79.1683 18.4948 79.0533 18.4287L77.9143 17.7717C77.8753 17.7487 77.8293 17.7367 77.7753 17.7347C77.7223 17.7327 77.6783 17.7417 77.6443 17.7607L77.4963 17.8467C77.4623 17.8667 77.4473 17.8918 77.4513 17.9227C77.4553 17.9537 77.4763 17.9797 77.5163 18.0027L77.5643 18.0307C77.4783 18.0237 77.3723 18.0257 77.2483 18.0357C77.1243 18.0457 76.9973 18.0887 76.8673 18.1637C76.7403 18.2367 76.6593 18.3177 76.6243 18.4057C76.5883 18.4937 76.5893 18.5847 76.6253 18.6767C76.6613 18.7687 76.7303 18.8627 76.8333 18.9577C76.9363 19.0527 77.0613 19.1427 77.2113 19.2297C77.3613 19.3157 77.5173 19.3877 77.6793 19.4467C77.8423 19.5048 78.0043 19.5447 78.1653 19.5667C78.3263 19.5887 78.4832 19.5887 78.6342 19.5667C78.7852 19.5457 78.9243 19.4977 79.0512 19.4247C79.1532 19.3658 79.2282 19.3127 79.2752 19.2647C79.3222 19.2167 79.3532 19.1727 79.3682 19.1307C79.3832 19.0898 79.3862 19.0508 79.3762 19.0147C79.3662 18.9787 79.3562 18.9437 79.3452 18.9088C79.4492 18.9188 79.5722 18.9117 79.7152 18.8897C79.8582 18.8667 79.9992 18.8147 80.1382 18.7347C80.2242 18.6848 80.2932 18.6277 80.3432 18.5638C80.3932 18.4998 80.4172 18.4327 80.4152 18.3618C80.4132 18.2907 80.3822 18.2158 80.3232 18.1367C80.2632 18.0577 80.1692 17.9778 80.0402 17.8958Q80.0087 17.8778 79.9352 17.8328C79.8872 17.8028 79.8312 17.7688 79.7692 17.7308C79.7062 17.6928 79.6372 17.6528 79.5612 17.6108C79.4852 17.5688 79.4084 17.5288 79.3344 17.4898ZM78.8184 18.8538C78.8784 18.9548 78.8293 19.0518 78.6684 19.1447C78.5914 19.1898 78.5064 19.2148 78.4144 19.2207C78.3224 19.2267 78.2284 19.2197 78.1314 19.2017C78.0344 19.1837 77.9414 19.1557 77.8504 19.1197C77.7604 19.0837 77.6774 19.0437 77.6024 19.0007C77.5274 18.9577 77.4574 18.9087 77.3934 18.8557C77.3284 18.8027 77.2804 18.7477 77.2484 18.6917C77.2164 18.6357 77.2054 18.5818 77.2154 18.5277C77.2254 18.4747 77.2694 18.4258 77.3464 18.3807C77.4264 18.3347 77.5094 18.3057 77.5934 18.2937C77.6784 18.2817 77.7664 18.2837 77.8574 18.2987C77.9484 18.3138 78.0404 18.3417 78.1334 18.3807C78.2254 18.4197 78.3224 18.4688 78.4224 18.5257C78.6254 18.6438 78.7574 18.7528 78.8184 18.8538ZM67.3444 23.6667L66.6944 24.0417L66.0344 23.6607C65.8294 23.5427 65.5184 23.5297 65.3404 23.6317L63.7514 24.5497C63.5734 24.6527 63.5964 24.8318 63.8014 24.9507L64.4614 25.3318L63.8114 25.7068C63.6334 25.8098 63.6564 25.9888 63.8614 26.1078L66.3463 27.5428C66.5513 27.6608 66.8623 27.6738 67.0403 27.5717L70.5743 25.5317C70.7523 25.4287 70.7293 25.2497 70.5244 25.1307L68.0394 23.6957C67.8324 23.5768 67.5214 23.5638 67.3444 23.6667ZM69.9354 25.3818C69.9804 25.4078 69.9884 25.4478 69.9464 25.4718L69.7234 25.6008C69.6844 25.6238 69.6124 25.6208 69.5674 25.5938L68.1544 24.7778C68.1093 24.7518 68.1074 24.7128 68.1464 24.6898L68.3694 24.5608C68.4113 24.5368 68.4763 24.5388 68.5214 24.5648L69.9354 25.3818ZM69.2393 25.7828C69.2844 25.8088 69.2893 25.8498 69.2503 25.8728L69.0273 26.0018C68.9854 26.0258 68.9174 26.0218 68.8713 25.9948L67.4583 25.1788C67.4133 25.1528 67.4084 25.1148 67.4503 25.0908L67.6733 24.9618C67.7123 24.9388 67.7803 24.9398 67.8253 24.9658L69.2393 25.7828ZM68.5414 26.1858C68.5864 26.2118 68.5913 26.2527 68.5523 26.2758L68.3293 26.4037C68.2903 26.4268 68.2184 26.4237 68.1733 26.3977L66.7603 25.5817C66.7153 25.5557 66.7133 25.5167 66.7523 25.4937L66.9753 25.3647C67.0143 25.3417 67.0823 25.3427 67.1273 25.3687L68.5414 26.1858ZM67.8434 26.5898C67.8884 26.6158 67.8964 26.6548 67.8543 26.6797L67.6313 26.8087C67.5923 26.8318 67.5204 26.8287 67.4753 26.8018L66.0623 25.9857C66.0173 25.9597 66.0154 25.9207 66.0544 25.8977L66.2773 25.7687C66.3193 25.7448 66.3843 25.7467 66.4294 25.7727L67.8434 26.5898ZM67.1474 26.9908C67.1924 27.0168 67.1974 27.0577 67.1584 27.0807L66.9354 27.2097C66.8934 27.2337 66.8254 27.2297 66.7794 27.2037L65.3664 26.3877C65.3214 26.3617 65.3164 26.3247 65.3584 26.2997L65.5814 26.1707C65.6204 26.1487 65.6884 26.1487 65.7334 26.1747L67.1474 26.9908ZM56.6714 31.5298C56.5384 31.2988 56.7404 31.0768 57.1244 31.0318L58.3464 30.8898C58.7294 30.8448 59.1484 30.9948 59.2814 31.2257L59.4104 31.4497C59.4333 31.4877 59.4464 31.5267 59.4503 31.5657C59.5023 32.0647 58.9724 32.4757 58.1534 32.5707L53.3313 33.1327C52.5123 33.2277 51.6033 32.9857 51.1063 32.5377C51.0673 32.5027 51.0363 32.4657 51.0143 32.4277L50.8853 32.2037C50.7523 31.9727 50.9554 31.7508 51.3383 31.7057L52.5603 31.5638C52.9434 31.5187 53.3624 31.6697 53.4964 31.8997C53.6294 32.1298 54.0494 32.2808 54.4324 32.2357L56.2184 32.0277C56.6024 31.9828 56.8054 31.7598 56.6714 31.5298ZM43.4654 36.2088C43.3384 36.1998 43.2364 36.2508 43.2394 36.3238C43.2414 36.3968 43.3454 36.4628 43.4724 36.4727C44.2584 36.5308 45.0194 36.7517 45.6144 37.0948C46.2094 37.4388 46.5924 37.8777 46.6924 38.3318C46.7084 38.4048 46.8234 38.4648 46.9494 38.4668C47.0074 38.4678 47.0584 38.4548 47.0944 38.4348C47.1354 38.4108 47.1574 38.3758 47.1484 38.3368C47.0344 37.8177 46.5964 37.3148 45.9154 36.9228C45.2344 36.5278 44.3643 36.2747 43.4654 36.2088ZM43.4834 36.9108C43.3553 36.9018 43.2543 36.9538 43.2574 37.0258C43.2594 37.0988 43.3634 37.1648 43.4904 37.1747C43.9754 37.2097 44.4434 37.3467 44.8104 37.5577C45.1774 37.7697 45.4124 38.0397 45.4734 38.3197C45.4894 38.3927 45.6044 38.4537 45.7304 38.4547C45.7884 38.4557 45.8394 38.4427 45.8754 38.4227C45.9164 38.3987 45.9384 38.3637 45.9294 38.3247C45.8534 37.9797 45.5624 37.6458 45.1104 37.3847C44.6594 37.1228 44.0814 36.9548 43.4834 36.9108ZM42.5564 37.7438C42.0943 38.0108 42.1523 38.4768 42.6853 38.7848C43.1593 39.0587 43.8474 39.1138 44.3194 38.9358L45.7664 39.7708C45.8624 39.8268 46.0074 39.8318 46.0904 39.7838C46.1734 39.7357 46.1634 39.6518 46.0674 39.5967L44.6204 38.7617C44.9284 38.4897 44.8314 38.0917 44.3584 37.8177C43.8254 37.5108 43.0184 37.4778 42.5564 37.7438ZM41.4304 39.5098C40.8354 39.1658 40.4524 38.7268 40.3534 38.2728C40.3374 38.1998 40.2214 38.1388 40.0954 38.1378C39.9714 38.1357 39.8814 38.1948 39.8964 38.2678C40.0104 38.7868 40.4484 39.2898 41.1284 39.6828C41.8094 40.0758 42.6794 40.3288 43.5784 40.3948C43.6463 40.3998 43.7074 40.3868 43.7484 40.3638C43.7843 40.3428 43.8054 40.3138 43.8044 40.2808C43.8024 40.2078 43.6974 40.1418 43.5714 40.1318C42.7854 40.0738 42.0254 39.8528 41.4304 39.5098ZM41.3114 38.1488C41.1864 38.1478 41.0964 38.2058 41.1124 38.2798C41.1884 38.6248 41.4794 38.9588 41.9314 39.2198C42.3833 39.4808 42.9613 39.6488 43.5583 39.6928C43.6263 39.6978 43.6873 39.6858 43.7283 39.6618C43.7643 39.6408 43.7854 39.6118 43.7843 39.5788C43.7823 39.5058 43.6783 39.4398 43.5513 39.4308C43.0674 39.3947 42.5983 39.2588 42.2323 39.0478C41.8653 38.8358 41.6303 38.5658 41.5683 38.2858C41.5534 38.2108 41.4374 38.1497 41.3114 38.1488ZM34.9034 42.7308C34.7593 42.6468 34.8044 42.5168 34.9843 42.4958L37.1234 42.2438C37.3054 42.2227 37.4874 42.3278 37.4483 42.4337L37.0123 43.6687C36.9753 43.7737 36.7493 43.7987 36.6053 43.7157L35.9273 43.3247L31.9153 45.6407L33.7733 45.9977C33.9143 46.0247 34.0603 46.0077 34.1543 45.9537L35.1753 45.3637L34.7013 45.0897C34.5843 45.0217 34.5713 44.9197 34.6733 44.8607L35.8283 44.1937C35.9293 44.1347 36.1073 44.1417 36.2243 44.2097L37.5583 44.9797C37.6763 45.0477 37.6893 45.1497 37.5873 45.2087L36.4323 45.8757C36.3313 45.9347 36.1534 45.9277 36.0363 45.8597L35.5244 45.5637L34.5034 46.1537C34.3024 46.2697 33.9893 46.3057 33.6884 46.2477L31.5704 45.8397L29.4444 47.0667C29.8233 47.3677 29.8253 47.7607 29.4153 47.9977C28.9533 48.2637 28.1463 48.2307 27.6133 47.9227C27.0803 47.6147 27.0223 47.1497 27.4843 46.8827C27.8943 46.6457 28.5764 46.6467 29.0974 46.8657L30.1163 46.2767L29.4104 45.0537C29.3103 44.8797 29.3723 44.6997 29.5733 44.5837L30.5334 44.0297C30.1384 43.7277 30.1293 43.3267 30.5453 43.0867C31.0074 42.8207 31.8143 42.8537 32.3474 43.1617C32.8804 43.4698 32.9384 43.9348 32.4763 44.2018C32.0714 44.4358 31.4014 44.4388 30.8833 44.2288L29.9203 44.7848C29.8263 44.8387 29.7973 44.9228 29.8443 45.0038L30.4633 46.0768L35.5813 43.1218L34.9034 42.7308ZM25.0524 50.2118C25.1494 50.1558 25.3194 50.1628 25.4324 50.2278L26.6754 50.9458C26.7874 51.0108 26.7994 51.1088 26.7023 51.1638L24.2713 52.5677C24.1733 52.6237 24.0033 52.6168 23.8913 52.5518L22.6483 51.8338C22.5363 51.7688 22.5244 51.6708 22.6214 51.6148L23.6864 50.9998L23.1143 50.6698L19.3083 52.8678L19.8793 53.1978L20.9444 52.5828C21.0424 52.5268 21.2113 52.5338 21.3244 52.5988L22.5674 53.3168C22.6794 53.3818 22.6913 53.4798 22.5943 53.5358L20.1633 54.9398C20.0663 54.9958 19.8963 54.9888 19.7833 54.9238L18.5403 54.2058C18.4283 54.1408 18.4164 54.0428 18.5134 53.9868L19.5784 53.3718L19.0074 53.0418L18.1404 53.5418C18.0573 53.5898 17.9123 53.5848 17.8163 53.5288C17.7204 53.4738 17.7104 53.3898 17.7934 53.3418L18.8103 52.7548L20.7314 51.6458L20.1604 51.3158L19.0954 51.9308C18.9973 51.9868 18.8273 51.9798 18.7153 51.9148L17.4724 51.1968C17.3604 51.1318 17.3484 51.0338 17.4454 50.9778L19.8764 49.5738C19.9734 49.5178 20.1444 49.5248 20.2564 49.5898L21.4994 50.3078C21.6114 50.3728 21.6234 50.4708 21.5264 50.5268L20.4613 51.1418L21.0323 51.4718L23.9713 49.7748C24.0544 49.7268 24.1994 49.7318 24.2953 49.7878C24.3913 49.8428 24.4013 49.9268 24.3183 49.9748L23.4153 50.4968L23.9874 50.8268L25.0524 50.2118ZM8.55336 56.4888C8.43736 56.5068 8.38136 56.5798 8.43036 56.6508C8.47935 56.7218 8.61436 56.7638 8.73135 56.7458C9.73836 56.5868 10.9314 56.7968 11.7684 57.2808C12.9874 57.9848 13.1204 59.0538 12.0644 59.6628C11.0084 60.2727 9.15736 60.1957 7.93736 59.4918C7.09537 59.0058 6.74336 58.3347 7.01636 57.7397C7.04736 57.6718 6.97235 57.5948 6.84935 57.5667C6.72635 57.5387 6.60036 57.5717 6.57034 57.6387C6.25435 58.3267 6.66234 59.1027 7.63535 59.6657C9.04634 60.4807 11.1883 60.5688 12.4103 59.8637C13.6323 59.1577 13.4783 57.9218 12.0673 57.1068C11.1014 56.5478 9.72035 56.3047 8.55336 56.4888ZM10.1514 58.5578C10.2343 58.5098 10.2243 58.4258 10.1284 58.3708L7.17036 56.6628C7.07437 56.6078 6.92937 56.6007 6.84636 56.6497C6.76337 56.6978 6.77336 56.7817 6.86935 56.8368L9.82735 58.5448C9.92336 58.5998 10.0684 58.6058 10.1514 58.5578Z" id="Group" fill="#FAFAFA" fill-rule="evenodd" stroke="none" />
            <g id="Group">
              <path d="M3.58936 53.1298C4.49536 53.6528 4.59335 54.4438 3.80936 54.8968C3.02536 55.3498 1.65436 55.2928 0.749359 54.7697C-0.156647 54.2467 -0.254639 53.4557 0.529358 53.0027C1.31436 52.5498 2.68436 52.6068 3.58936 53.1298L3.58936 53.1298Z" id="Shape" fill="#FC4850" stroke="none" />
              <path d="M14.9994 46.5428C15.9054 47.0658 16.0034 47.8568 15.2194 48.3098C14.4354 48.7628 13.0654 48.7057 12.1594 48.1827C11.2534 47.6597 11.1554 46.8687 11.9394 46.4157C12.7234 45.9628 14.0934 46.0198 14.9994 46.5428L14.9994 46.5428Z" id="Shape" fill="#FC4850" stroke="none" />
              <path d="M26.4084 39.9557C27.3144 40.4788 27.4124 41.2697 26.6284 41.7227C25.8444 42.1758 24.4743 42.1187 23.5684 41.5957C22.6624 41.0727 22.5644 40.2817 23.3484 39.8287C24.1324 39.3758 25.5023 39.4328 26.4084 39.9557L26.4084 39.9557Z" id="Shape" fill="#263238" stroke="none" />
              <path d="M37.8174 33.3688C38.7234 33.8918 38.8214 34.6828 38.0374 35.1358C37.2534 35.5888 35.8833 35.5318 34.9774 35.0088C34.0714 34.4857 33.9734 33.6948 34.7574 33.2418C35.5414 32.7888 36.9114 32.8458 37.8174 33.3688L37.8174 33.3688Z" id="Shape" fill="#FC4850" stroke="none" />
              <path d="M49.2274 26.7808C50.1334 27.3038 50.2314 28.0948 49.4474 28.5478C48.6634 29.0008 47.2934 28.9438 46.3874 28.4207C45.4814 27.8977 45.3834 27.1068 46.1674 26.6537C46.9514 26.2018 48.3214 26.2588 49.2274 26.7808L49.2274 26.7808Z" id="Shape" fill="#263238" stroke="none" />
              <path d="M60.6364 20.1938C61.5424 20.7168 61.6404 21.5078 60.8564 21.9608C60.0724 22.4138 58.7014 22.3568 57.7964 21.8337C56.8904 21.3107 56.7924 20.5197 57.5764 20.0667C58.3604 19.6148 59.7304 19.6708 60.6364 20.1938L60.6364 20.1938Z" id="Shape" fill="#FC4850" stroke="none" />
              <path d="M72.0453 13.6068C72.9514 14.1298 73.0493 14.9207 72.2654 15.3737C71.4814 15.8268 70.1104 15.7697 69.2054 15.2467C68.2993 14.7237 68.2014 13.9327 68.9854 13.4797C69.7693 13.0268 71.1393 13.0838 72.0453 13.6068L72.0453 13.6068Z" id="Shape" fill="#FC4850" stroke="none" />
              <path d="M83.4543 7.01978C84.3604 7.54279 84.4583 8.33377 83.6743 8.78677C82.8904 9.23978 81.5193 9.18277 80.6143 8.65976C79.7083 8.13675 79.6104 7.34576 80.3943 6.89276C81.1794 6.43976 82.5493 6.49677 83.4543 7.01978L83.4543 7.01978Z" id="Shape" fill="#263238" stroke="none" />
              <path d="M94.8643 0.43277C95.7704 0.95578 95.8683 1.74677 95.0844 2.19977C94.3004 2.65277 92.9294 2.59576 92.0244 2.07275C91.1183 1.54974 91.0204 0.758759 91.8044 0.305756C92.5883 -0.147247 93.9583 -0.0902405 94.8643 0.43277L94.8643 0.43277Z" id="Shape" fill="#263238" stroke="none" />
            </g>
          </g>
        </g>
      </g>
    </g>
    <g id="WiFi_Icon" transform="translate(39.91183 82.50253)" clip-path="url(#clip_1)">
      <g id="WiFi">
        <g id="XMLID_3816_">
          <path d="M104.2 105.844C101.545 103.96 98.0512 103.719 94.0612 105.538C84.2182 110.025 75.1232 125.298 73.7432 139.651C72.9222 148.186 75.0192 154.46 78.9222 157.204C80.6252 158.401 87.2902 163.145 89.0442 164.37C91.6922 166.221 95.1672 166.447 99.1322 164.64C108.972 160.152 118.07 144.88 119.45 130.527C120.265 122.051 118.203 115.806 114.353 113.032C112.634 111.794 105.93 107.072 104.2 105.844L104.2 105.844Z" id="XMLID_3824_" fill="#FC4850" stroke="none" />
          <path d="M104.2 105.844C101.545 103.96 98.0512 103.719 94.0612 105.538C84.2182 110.025 75.1232 125.298 73.7432 139.651C72.9222 148.186 75.0192 154.46 78.9222 157.204C80.6252 158.401 87.2902 163.145 89.0442 164.37C91.6922 166.221 95.1672 166.447 99.1322 164.64C108.972 160.152 118.07 144.88 119.45 130.527C120.265 122.051 118.203 115.806 114.353 113.032C112.634 111.794 105.93 107.072 104.2 105.844L104.2 105.844Z" id="XMLID_3823_" fill="#000000" fill-opacity="0.3" stroke="none" />
          <path d="M120.524 56.2425C112.182 50.3755 101.221 49.6335 88.7122 55.3365C67.3122 65.0935 50.5982 87.1295 38.7112 117.131C36.2992 123.216 36.6462 129.273 39.4902 131.457L39.5212 131.481C42.8652 134.048 48.6512 137.761 51.4942 139.946L51.5252 139.971C55.1122 142.725 61.2262 138.316 64.2402 130.636C72.5802 109.388 83.3312 95.0064 98.3772 88.1474C104.164 85.5094 109.481 84.8404 114.116 85.8575C115.774 88.2745 117.159 91.1174 118.194 94.3985C118.618 95.7435 119.281 96.6974 120.105 97.2805C121.927 98.5685 131.304 105.219 132.147 105.806C134.726 107.603 138.859 105.827 142.236 100.947L142.278 100.89C145.804 95.7955 147.385 88.8805 145.983 84.5465C143.133 75.7395 138.593 69.0345 132.751 64.8615C130.701 63.3955 122.555 57.6715 120.524 56.2425L120.524 56.2425Z" id="XMLID_3821_" fill="#FC4850" stroke="none" />
          <path d="M120.524 56.2425C112.182 50.3755 101.221 49.6335 88.7122 55.3365C67.3122 65.0935 50.5982 87.1295 38.7112 117.131C36.2992 123.216 36.6462 129.273 39.4902 131.457L39.5212 131.481C42.8652 134.048 48.6512 137.761 51.4942 139.946L51.5252 139.971C55.1122 142.725 61.2262 138.316 64.2402 130.636C72.5802 109.388 83.3312 95.0064 98.3772 88.1474C104.164 85.5094 109.481 84.8404 114.116 85.8575C115.774 88.2745 117.159 91.1174 118.194 94.3985C118.618 95.7435 119.281 96.6974 120.105 97.2805C121.927 98.5685 131.304 105.219 132.147 105.806C134.726 107.603 138.859 105.827 142.236 100.947L142.278 100.89C145.804 95.7955 147.385 88.8805 145.983 84.5465C143.133 75.7395 138.593 69.0345 132.751 64.8615C130.701 63.3955 122.555 57.6715 120.524 56.2425L120.524 56.2425Z" id="XMLID_3819_" fill="#000000" fill-opacity="0.3" stroke="none" />
          <path d="M162.606 40.4715C158.066 29.7525 151.773 22.0295 144.003 16.4855C141.938 15.0135 133.146 9.13046 131.048 7.83946C117.639 -0.40654 91.6202 -3.86053 71.8802 6.06546C39.5462 22.3235 17.6042 45.0345 1.81617 88.7605C-2.04082 99.4435 0.987175 104.86 4.04117 107.245L4.10117 107.289C7.56517 109.995 12.9932 113.349 16.0462 115.734L16.1052 115.778C19.5692 118.483 25.3422 114.391 28.5882 107.064C44.4522 71.2305 64.2302 50.3395 90.2372 38.4835C103.663 32.3635 115.742 31.9505 125.697 36.2455C129.562 40.3425 132.83 45.4735 135.392 51.5475C135.846 52.6215 136.462 53.4095 137.195 53.9185C138.946 55.1375 148.453 61.8815 149.176 62.3935C151.784 64.2425 155.875 62.5465 159.263 57.6505C163.071 52.1505 164.43 44.7805 162.606 40.4715L162.606 40.4715Z" id="XMLID_3818_" fill="#FC4850" stroke="none" />
          <path d="M162.606 40.4715C158.066 29.7525 151.773 22.0295 144.003 16.4855C141.938 15.0135 133.146 9.13046 131.048 7.83946C117.639 -0.40654 91.6202 -3.86053 71.8802 6.06546C39.5462 22.3235 17.6042 45.0345 1.81617 88.7605C-2.04082 99.4435 0.987175 104.86 4.04117 107.245L4.10117 107.289C7.56517 109.995 12.9932 113.349 16.0462 115.734L16.1052 115.778C19.5692 118.483 25.3422 114.391 28.5882 107.064C44.4522 71.2305 64.2302 50.3395 90.2372 38.4835C103.663 32.3635 115.742 31.9505 125.697 36.2455C129.562 40.3425 132.83 45.4735 135.392 51.5475C135.846 52.6215 136.462 53.4095 137.195 53.9185C138.946 55.1375 148.453 61.8815 149.176 62.3935C151.784 64.2425 155.875 62.5465 159.263 57.6505C163.071 52.1505 164.43 44.7805 162.606 40.4715L162.606 40.4715Z" id="XMLID_555_" fill="#000000" fill-opacity="0.3" stroke="none" />
        </g>
        <path d="M119.45 130.528C118.07 144.881 108.972 160.154 99.1322 164.641C89.2902 169.126 82.4322 161.127 83.8122 146.772C85.1922 132.419 94.2892 117.146 104.13 112.659C113.97 108.173 120.83 116.173 119.45 130.528L119.45 130.528ZM100.716 63.8255C71.4782 75.1675 58.1922 96.1115 48.9882 124.564C46.9732 130.791 46.7622 136.588 51.4942 139.946L51.5252 139.971C57.1792 143.422 61.2262 138.316 64.2402 130.636C72.5812 109.388 83.3312 95.0065 98.3782 88.1475C113.46 81.2725 125.396 87.6625 130.199 102.888C131.947 108.433 137.757 107.421 142.236 100.948L142.278 100.89C145.804 95.7955 147.386 88.8805 145.982 84.5465C139.046 63.1085 122.652 55.3165 100.716 63.8255L100.716 63.8255ZM92.5742 14.1645C66.2742 22.3245 34.6012 44.6815 14.5472 96.1115C11.9822 102.689 9.90116 111.411 16.0452 115.735L16.1052 115.779C20.5122 118.478 25.3422 114.392 28.5882 107.065C44.4522 71.2315 64.2302 50.3405 90.2372 38.4845C116.248 26.6265 137.271 36.0445 147.397 60.0365C149.464 64.9365 154.936 63.9025 159.262 57.6505L159.262 57.6505C163.071 52.1485 164.431 44.7785 162.607 40.4705C150.203 11.1915 126.046 3.77946 92.5742 14.1645L92.5742 14.1645Z" id="XMLID_3790_" fill="#FC4850" fill-rule="evenodd" stroke="none" />
      </g>
    </g>
    <g id="www" transform="translate(272.16986 369.59387)" clip-path="url(#clip_1)">
      <g id="Box_1_">
        <g id="Box_17_">
          <path d="M158.51 31.4001L41.1901 99.0001C40.1831 99.5821 38.5491 99.5821 37.5421 99.0011L1.80212 78.3511C0.794128 77.7691 -0.0108643 76.3551 0.00012207 75.1921L0.0301209 71.1971C0.0411072 70.0341 0.867126 68.6191 1.87411 68.0381L119.276 0.438141C120.283 -0.142853 121.917 -0.142853 122.924 0.438141L158.581 21.0871C159.588 21.6681 160.396 23.0831 160.385 24.2461L160.355 28.2411C160.343 29.4041 159.517 30.8191 158.51 31.4001L158.51 31.4001Z" id="XMLID_581_" fill="#FC4850" stroke="none" />
          <path d="M1.87415 68.0371C0.901154 68.5961 -0.00286865 70.1231 0.0251465 71.1971L0.00314331 75.1921C-0.013855 76.3501 0.794128 77.7691 1.80115 78.3501L37.5411 99.0001C38.0661 99.3031 38.7561 99.4401 39.4441 99.4281L39.4362 91.2231C38.7791 91.2332 38.1161 91.0831 37.6122 90.7921L1.87714 70.1451C0.955139 69.6131 0.798126 68.6561 1.87415 68.0371L1.87415 68.0371Z" id="XMLID_561_" fill="#000000" fill-opacity="0.3" stroke="none" />
          <path d="M158.855 21.2731C159.579 21.8561 159.489 22.6701 158.581 23.1971L41.2621 90.7902C40.7542 91.0802 40.0962 91.2262 39.4352 91.2242L39.4391 99.4372C40.0782 99.4262 40.7051 99.2832 41.1902 98.9982L158.513 31.3982C159.518 30.8202 160.342 29.4091 160.356 28.2402L160.386 24.2492C160.394 23.1921 159.734 21.9261 158.855 21.2731L158.855 21.2731Z" id="XMLID_321_" fill="#000000" fill-opacity="0.2" stroke="none" />
          <path d="M158.581 23.1931L41.2601 90.7931C40.2531 91.3751 38.6191 91.3751 37.6121 90.7931L19.2531 80.1771L1.87411 70.1431C0.866119 69.5611 0.867126 68.6181 1.87411 68.0361L119.276 0.436127C120.283 -0.145874 121.917 -0.144867 122.924 0.436127L158.581 21.0851C159.588 21.6681 159.589 22.6111 158.581 23.1931L158.581 23.1931Z" id="Shape" fill="#FC4850" stroke="none" />
        </g>
        <path d="M91.7971 31.9521L97.7771 38.5741L86.1232 35.2261C85.9202 35.1571 85.6622 35.1181 85.3462 35.1121C85.0302 35.1061 84.7612 35.1681 84.5372 35.2971L82.2192 36.6351C81.9962 36.7651 81.8892 36.9201 81.9002 37.1021C81.9092 37.2841 81.9752 37.4341 82.0972 37.5511L87.8932 44.2791L76.4232 40.8271C76.1992 40.7691 75.9501 40.7251 75.6761 40.6951C75.4012 40.6671 75.1212 40.7341 74.8372 40.8981L72.5192 42.2371C72.2942 42.3661 72.1832 42.5241 72.1832 42.7121C72.1832 42.9011 72.2942 43.0591 72.5192 43.1891C72.6002 43.2351 72.6812 43.2711 72.7632 43.2941L91.4312 48.7531C91.6761 48.8251 91.9412 48.8721 92.2242 48.8941C92.5092 48.9181 92.7942 48.8481 93.0792 48.6831L95.3972 47.3451C95.6822 47.1801 95.7992 47.0191 95.7472 46.8611C95.6971 46.7031 95.6212 46.5461 95.5182 46.3941L90.3332 39.9831L101.436 42.9771C101.702 43.0361 101.971 43.0801 102.245 43.1091C102.52 43.1391 102.8 43.0711 103.085 42.9071L105.403 41.5681C105.688 41.4041 105.809 41.2401 105.768 41.0751C105.728 40.9111 105.647 40.7591 105.524 40.6171L96.0681 29.8391Q96.0081 29.7686 95.8851 29.6981C95.6611 29.5681 95.3871 29.5041 95.0621 29.5041C94.7351 29.5041 94.4621 29.5691 94.2381 29.6981L91.9201 31.0361C91.6351 31.2011 91.5171 31.3621 91.5691 31.5201C91.6201 31.6801 91.6961 31.8231 91.7971 31.9521ZM72.4572 53.1921L66.4771 46.5701C66.3771 46.4411 66.3001 46.2981 66.2502 46.1381C66.1982 45.9801 66.3152 45.8191 66.6012 45.6541L68.9192 44.3161C69.1432 44.1871 69.4171 44.1221 69.7432 44.1221C70.0682 44.1221 70.3432 44.1861 70.5672 44.3161C70.6472 44.3631 70.7092 44.4101 70.7492 44.4571L80.2052 55.2351C80.3282 55.3771 80.4092 55.5291 80.4492 55.6931C80.4901 55.8571 80.3692 56.0221 80.0842 56.1861L77.7662 57.5251C77.4822 57.6891 77.2012 57.7561 76.9262 57.7271C76.6522 57.6981 76.3822 57.6541 76.1182 57.5951L65.0142 54.6011L70.1992 61.0111C70.3022 61.1642 70.3781 61.3201 70.4282 61.4781C70.4792 61.6371 70.3632 61.7982 70.0771 61.9622L67.7592 63.3011C67.4752 63.4662 67.1902 63.5361 66.9052 63.5121C66.6212 63.4901 66.3561 63.4431 66.1122 63.3712L47.4421 57.9112C47.3622 57.8892 47.2802 57.8522 47.1991 57.8062C46.9741 57.6772 46.8631 57.5192 46.8631 57.3301C46.8631 57.1422 46.9741 56.9841 47.1991 56.8551L49.5171 55.5171C49.8011 55.3531 50.0811 55.2841 50.3561 55.3141C50.6311 55.3441 50.8791 55.3881 51.1021 55.4461L62.5731 58.8981L56.7771 52.1701C56.6551 52.0531 56.5891 51.9031 56.5791 51.7211C56.5691 51.5391 56.6761 51.3841 56.8991 51.2541L59.2171 49.9161C59.4411 49.7871 59.7101 49.7251 60.0261 49.7301C60.3421 49.7361 60.6001 49.7741 60.8031 49.8441L72.4572 53.1921ZM47.1382 67.8101L41.1591 61.1881C41.0581 61.0581 40.9821 60.9161 40.9312 60.7561C40.8792 60.5981 40.9962 60.4371 41.2822 60.2721L43.6002 58.9331C43.8242 58.8041 44.0972 58.7401 44.4242 58.7401C44.7492 58.7401 45.0232 58.8051 45.2472 58.9331C45.3292 58.9801 45.3902 59.0281 45.4302 59.0751L54.8862 69.8531C55.0092 69.9941 55.0902 70.1461 55.1302 70.3111C55.1711 70.4751 55.0502 70.6401 54.7652 70.8041L52.4472 72.1421C52.1632 72.3071 51.8822 72.3741 51.6072 72.3451C51.3332 72.3161 51.0642 72.2721 50.7982 72.2121L39.6952 69.2191L44.8802 75.6291C44.9832 75.7821 45.0592 75.9381 45.1092 76.0961C45.1612 76.2551 45.0442 76.4161 44.7592 76.5801L42.4412 77.9191C42.1572 78.0831 41.8712 78.1541 41.5862 78.1301C41.3022 78.1071 41.0372 78.0601 40.7922 77.9891L22.1242 72.5291C22.0422 72.5071 21.9612 72.4702 21.8802 72.4241C21.6552 72.2951 21.5442 72.1371 21.5442 71.9481C21.5442 71.7601 21.6552 71.6021 21.8802 71.4721L24.1982 70.1341C24.4822 69.9691 24.7622 69.9021 25.0372 69.9311C25.3112 69.9611 25.5602 70.0041 25.7842 70.0631L37.2542 73.5151L31.4582 66.7871C31.3362 66.6701 31.2702 66.5201 31.2612 66.3381C31.2502 66.1561 31.3572 66.0011 31.5802 65.8711L33.8982 64.5331C34.1222 64.4041 34.3912 64.342 34.7072 64.3481C35.0232 64.3541 35.2812 64.3921 35.4842 64.4621L47.1382 67.8101Z" id="Group" fill="#FAFAFA" fill-rule="evenodd" stroke="none" />
        <path d="M124.596 33.8901C124.596 33.8901 120.621 36.1821 120.621 36.1821C120.621 36.1821 95.8922 21.8531 95.8922 21.8531C95.8922 21.8531 99.8681 19.5621 99.8681 19.5621C99.8681 19.5621 124.596 33.8901 124.596 33.8901Z" id="Group" fill="#FAFAFA" fill-rule="evenodd" stroke="none" />
      </g>
    </g>
    <g id="Cursor" transform="translate(394.06 380.13867)" clip-path="url(#clip_1)">
      <g id="Arrow_1_">
        <g id="Group" transform="translate(0.0020141602 0.0077209473)">
          <path d="M68.053 0.00759888L2.45599 5.13461C1.10001 5.2406 0 6.42862 0 7.78961L0 12.1226C0 13.4826 0.98999 15.0726 2.20999 15.6726L43.915 36.1796C45.136 36.7796 46.264 36.1726 46.435 34.8226L47.286 28.1156C47.457 26.7666 48.687 25.8326 50.033 26.0306L70.077 28.9816C71.423 29.1796 73.235 28.5066 74.125 27.4776L77.163 23.9656C78.053 22.9366 78.774 20.9996 78.774 19.6396L78.774 15.3056C78.774 13.9456 77.683 12.6816 76.337 12.4836L66.911 11.0956C66.911 11.0956 67.716 10.6436 68.709 10.0846C69.702 9.52661 70.507 7.97162 70.507 6.61063L70.507 2.27762C70.508 0.91861 69.409 -0.0983887 68.053 0.00759888L68.053 0.00759888Z" id="XMLID_610_" fill="#FC4850" stroke="none" />
          <path d="M68.053 0.00759888L2.45599 5.13461C1.10001 5.2406 0 6.42862 0 7.78961L0 12.1226C0 13.4826 0.98999 15.0726 2.20999 15.6726L43.915 36.1796C45.136 36.7796 46.264 36.1726 46.435 34.8226L47.286 28.1156C47.457 26.7666 48.687 25.8326 50.033 26.0306L70.077 28.9816C71.423 29.1796 73.235 28.5066 74.125 27.4776L77.163 23.9656C78.053 22.9366 78.774 20.9996 78.774 19.6396L78.774 15.3056C78.774 13.9456 77.683 12.6816 76.337 12.4836L66.911 11.0956C66.911 11.0956 67.716 10.6436 68.709 10.0846C69.702 9.52661 70.507 7.97162 70.507 6.61063L70.507 2.27762C70.508 0.91861 69.409 -0.0983887 68.053 0.00759888L68.053 0.00759888Z" id="XMLID_605_" fill="#FFFFFF" fill-opacity="0.25" stroke="none" />
        </g>
        <path d="M72.042 19.5163L72.042 28.7553C71.38 28.9693 70.679 29.0764 70.075 28.9893L50.039 26.0393C49.513 25.9613 49.036 26.0974 48.608 26.3123L48.608 17.0053C49.037 16.7914 49.533 16.7033 50.039 16.7813L70.075 19.7314C70.679 19.8173 71.38 19.7303 72.042 19.5163L72.042 19.5163Z" id="Shape" fill="#FFFFFF" fill-opacity="0.2" stroke="none" />
        <path d="M45.164 27.1243L45.164 36.3833C44.784 36.4613 44.356 36.4033 43.918 36.1883L2.20999 15.6843C0.992981 15.0803 0 13.4943 0 12.1313L0 7.79932C0 6.77731 0.613007 5.86133 1.48999 5.40433C1.18799 5.65732 1.43198 6.03732 2.20999 6.42633L43.918 26.9293C44.356 27.1443 44.784 27.2023 45.164 27.1243L45.164 27.1243Z" id="Shape" fill="#FFFFFF" fill-opacity="0.2" stroke="none" />
        <path d="M68.055 0.0153198L2.45801 5.14233C1.10202 5.24832 0.992004 5.82034 2.21301 6.42133L43.918 26.9283C45.139 27.5283 46.267 26.9213 46.438 25.5713L47.289 18.8643C47.46 17.5143 48.69 16.5813 50.036 16.7793L70.08 19.7303C71.4261 19.9283 73.238 19.2553 74.1281 18.2263L77.166 14.7143C78.0561 13.6853 77.686 12.6903 76.3401 12.4923L56.2961 9.54135C54.95 9.34335 54.82 8.64236 56.006 7.97534L68.363 1.03033C69.549 0.364319 69.411 -0.0906677 68.055 0.0153198L68.055 0.0153198Z" id="XMLID_584_" fill="#FFFFFF" fill-opacity="0.45" stroke="none" />
      </g>
    </g>
    <g id="Speech_Bubble" transform="translate(239.494 20.84148)" clip-path="url(#clip_1)">
      <g id="Speech_Bubble_25_">
        <g id="XMLID_1388_">
          <g id="XMLID_1390_" transform="translate(0.7679901 0)">
            <path d="M13.111 115C13.201 114.802 13.291 114.603 13.399 114.423L13.417 114.423C13.309 114.604 13.201 114.802 13.111 115L13.111 115Z" id="Shape" fill="#EBEBEB" stroke="none" />
            <path d="M198.378 8.80752C198.18 8.17652 197.729 7.81552 197.152 7.81552C196.828 7.81552 196.449 7.92352 196.07 8.15852L15.112 112.62C14.445 112.999 13.85 113.666 13.399 114.423L0 106.759C0.432999 106.038 1.00999 105.425 1.64101 105.046L182.598 0.583519C183.932 -0.191481 186.096 -0.191481 187.431 0.565519L196.05 5.39852C197.188 6.02952 198.126 7.45452 198.378 8.80752L198.378 8.80752Z" id="Shape" fill="#37474F" fill-opacity="0.5" stroke="none" />
          </g>
          <g id="XMLID_1389_" transform="translate(0 106.76552)" opacity="0.9">
            <path d="M15.881 170.358C14.599 171.102 12.258 171.128 11.047 170.386L2.425 165.421C1.09 164.676 0 162.818 0 161.283L0 2.458C0 1.65701 0.300995 0.778008 0.768005 0L14.184 7.66C13.739 8.40499 13.472 9.262 13.472 10.029L13.472 168.968C13.473 170.375 14.463 171.179 15.881 170.358L15.881 170.358Z" id="Shape" fill="#263238" stroke="none" />
            <path d="M25.717 185.797C24.823 185.299 17.226 180.895 16.569 180.533C16.173 180.307 15.878 179.888 15.878 179.31L15.878 170.361L25.083 165.051L25.083 184.619C25.083 185.163 25.354 185.57 25.717 185.797L25.717 185.797Z" id="Shape" fill="#263238" stroke="none" />
          </g>
        </g>
        <g id="Group" transform="translate(13.473984 7.8235207)" opacity="0.85">
          <path d="M184.437 0C184.114 0 183.748 0.106001 183.362 0.329L2.408 104.799C1.078 105.567 0 107.434 0 108.97L0 267.909C0 268.998 0.542999 269.628 1.33299 269.628C1.657 269.628 2.02199 269.522 2.409 269.299L183.362 164.829C184.692 164.061 185.77 162.194 185.77 160.658L185.77 1.719C185.77 0.629999 185.227 0 184.437 0L184.437 0L184.437 0Z" id="Shape" fill="#37474F" stroke="none" />
          <path d="M11.605 258.679L11.605 283.56C11.605 285.105 13.731 285.526 14.32 284.098L34.598 245.404L11.605 258.679L11.605 258.679Z" id="Shape" fill="#37474F" stroke="none" />
        </g>
      </g>
    </g>
    <g id="Text_1_" transform="translate(266.923 69.154)" clip-path="url(#clip_1)">
      <g id="Text">
        <path d="M158.421 0C158.421 0 121.862 21.107 121.862 21.107C121.862 21.107 121.862 25.798 121.862 25.798C121.862 25.798 158.42 4.691 158.42 4.691C158.42 4.691 158.421 0 158.421 0ZM36.56 70.357C36.56 70.357 0 91.464 0 91.464C0 91.464 0 96.155 0 96.155C0 96.155 36.558 75.048 36.558 75.048C36.558 75.048 36.56 70.357 36.56 70.357ZM158.421 99.069C158.421 99.069 105.614 129.557 105.614 129.557C105.614 129.557 105.614 134.248 105.614 134.248C105.614 134.248 158.42 103.76 158.42 103.76C158.42 103.76 158.421 99.069 158.421 99.069ZM52.809 160.045C52.809 160.045 0.00198364 190.533 0.00198364 190.533C0.00198364 190.533 0.00198364 195.224 0.00198364 195.224C0.00198364 195.224 52.808 164.736 52.808 164.736C52.808 164.736 52.809 160.045 52.809 160.045Z" id="Group" fill="#263238" fill-rule="evenodd" stroke="none" />
        <g id="Group" transform="translate(3.6029968 25.165993)">
          <path d="M143.025 16.256L137.905 19.212L137.905 9.539L154.426 0L154.426 9.673L149.307 12.628L149.307 56.696L143.025 60.323L143.025 16.256ZM135.392 20.663L127.246 25.366L127.246 36.115L134.135 32.138L134.135 41.811L127.246 45.788L127.246 59.761L135.392 55.058L135.392 64.732L120.963 73.062L120.963 19.32L135.392 10.99L135.392 20.663ZM114.169 23.243L114.169 76.984L109.514 79.672L103.231 55.784L103.231 83.3L97.414 86.659L97.414 32.918L102.068 30.231L108.351 54.119L108.351 26.603L114.169 23.243ZM91.176 75.21C91.176 72.129 90.338 70.177 88.802 69.416C90.338 66.164 91.176 62.385 91.176 58.372L91.176 49.774C91.176 41.82 87.826 38.452 82.566 41.489L73.956 46.46L73.956 100.2L80.24 96.572L80.24 77.941L82.566 76.598C84.055 75.738 84.893 76.688 84.893 78.837L84.893 93.885L91.176 90.258L91.176 75.21ZM68.51 59.277L60.367 63.979L60.367 74.728L67.255 70.751L67.255 80.424L60.367 84.401L60.367 98.374L68.51 93.672L68.51 103.346L54.082 111.676L54.082 57.935L68.51 49.605L68.51 59.277ZM38.817 76.42L33.697 79.376L33.697 69.703L50.219 60.164L50.219 69.837L45.1 72.793L45.1 116.861L38.817 120.488L38.817 76.42ZM29.834 71.933L29.834 125.674L25.18 128.362L18.897 104.474L18.897 131.99L13.08 135.349L13.08 81.608L17.733 78.921L24.017 102.809L24.017 75.293L29.834 71.933ZM6.28299 139.272L0 142.899L0 89.158L6.28299 85.531L6.28299 139.272Z" id="Group" fill="#FC4850" fill-rule="evenodd" stroke="none" />
          <g id="Group" opacity="0.2">
            <path d="M0 142.899L0 89.158L6.28299 85.531L6.28299 139.272L0 142.899L0 142.899Z" id="Shape" fill="#FFFFFF" stroke="none" />
            <path d="M29.834 71.933L29.834 125.674L25.18 128.362L18.897 104.474L18.897 131.99L13.08 135.349L13.08 81.608L17.733 78.921L24.017 102.809L24.017 75.293L29.834 71.933L29.834 71.933Z" id="Shape" fill="#FFFFFF" stroke="none" />
            <path d="M38.817 76.42L33.697 79.376L33.697 69.703L50.219 60.164L50.219 69.837L45.1 72.793L45.1 116.861L38.817 120.488L38.817 76.42L38.817 76.42Z" id="Shape" fill="#FFFFFF" stroke="none" />
            <path d="M68.51 59.277L60.367 63.979L60.367 74.728L67.255 70.751L67.255 80.424L60.367 84.401L60.367 98.374L68.51 93.672L68.51 103.346L54.082 111.676L54.082 57.935L68.51 49.605L68.51 59.277L68.51 59.277Z" id="Shape" fill="#FFFFFF" stroke="none" />
            <path d="M91.176 58.372C91.176 62.385 90.338 66.164 88.802 69.416C90.338 70.177 91.176 72.129 91.176 75.21L91.176 90.258L84.893 93.885L84.893 78.837C84.893 76.688 84.055 75.738 82.566 76.598L80.24 77.941L80.24 96.572L73.956 100.2L73.956 46.46L82.566 41.489C87.826 38.452 91.176 41.82 91.176 49.774L91.176 58.372L91.176 58.372ZM84.893 53.401C84.893 51.252 84.055 50.302 82.566 51.162L80.24 52.505L80.24 68.27L82.566 66.927C84.055 66.067 84.893 64.15 84.893 62L84.893 53.401L84.893 53.401Z" id="Shape" fill="#FFFFFF" fill-rule="evenodd" stroke="none" />
            <path d="M114.169 23.243L114.169 76.984L109.514 79.672L103.231 55.784L103.231 83.3L97.414 86.659L97.414 32.918L102.068 30.231L108.351 54.119L108.351 26.603L114.169 23.243L114.169 23.243Z" id="Shape" fill="#FFFFFF" stroke="none" />
            <path d="M135.392 20.663L127.246 25.366L127.246 36.115L134.135 32.138L134.135 41.811L127.246 45.788L127.246 59.761L135.392 55.058L135.392 64.732L120.963 73.062L120.963 19.32L135.392 10.99L135.392 20.663L135.392 20.663Z" id="Shape" fill="#FFFFFF" stroke="none" />
            <path d="M143.025 16.256L137.905 19.212L137.905 9.539L154.426 0L154.426 9.673L149.307 12.628L149.307 56.696L143.025 60.323L143.025 16.256L143.025 16.256Z" id="Shape" fill="#FFFFFF" stroke="none" />
          </g>
        </g>
      </g>
    </g>
  </g>
</svg>