<?xml version="1.0" encoding="utf-8"?>
<svg width="750px" height="500px" viewBox="0 0 750 500" version="1.1" xmlns:xlink="http://www.w3.org/1999/xlink" xmlns="http://www.w3.org/2000/svg">
  <defs>
    <path d="M750 0L750 0L750 500L0 500L0 0L750 0Z" id="path_1" />
    <clipPath id="clip_1">
      <use xlink:href="#path_1" clip-rule="evenodd" fill-rule="evenodd" />
    </clipPath>
  </defs>
  <g id="33756688_8106253">
    <path d="M750 0L750 0L750 500L0 500L0 0L750 0Z" id="33756688_8106253" fill="none" stroke="none" />
    <path d="M719.148 370.352C719.148 370.496 565.056 370.612 375.017 370.612C184.912 370.612 30.853 370.495 30.853 370.352C30.853 370.208 184.912 370.092 375.017 370.092C565.055 370.092 719.148 370.208 719.148 370.352L719.148 370.352Z" id="Table" fill="#263238" stroke="none" clip-path="url(#clip_1)" />
    <g id="Mouse" transform="translate(559.18774 414.47595)" clip-path="url(#clip_1)">
      <g id="Group">
        <path d="M2.28625 21.4651C1.28125 18.735 -0.364746 13.989 0.0722656 13.334L1.19226 12.2451L0.287231 10.507C0.287231 10.507 25.8192 -6.28595 48.7672 3.09406C71.7152 12.4741 74.7302 37.4321 72.7202 38.6041C70.7102 39.7771 50.9452 45.3041 23.1402 39.7771C23.1402 39.7771 21.8002 40.1121 15.2672 32.7421C10.8662 27.7771 6.83319 25.2571 4.67023 24.1401C3.56726 23.571 2.71326 22.627 2.28625 21.4651L2.28625 21.4651Z" id="Shape" fill="#455A64" stroke="none" />
        <path d="M1.19128 12.244C1.19128 12.244 5.4433 10.937 11.7813 13.333C15.3623 14.687 18.3593 18.523 18.3593 18.523C18.3593 18.523 16.8843 8.30905 0.286316 10.506L1.19128 12.244L1.19128 12.244Z" id="Shape" fill="#000000" fill-opacity="0.3" stroke="none" />
        <path d="M17.6453 33.355L17.8782 32.669C17.8782 32.669 29.2703 37.331 40.3192 37.315C51.3682 37.299 52.7432 37.789 58.9932 37.008C65.2432 36.227 69.0842 35.212 70.7752 34.486C72.4672 33.759 72.8312 32.867 72.8312 32.867L72.8002 33.293C72.8002 33.293 74.6483 36.036 58.9932 37.933C48.9912 39.1451 38.1652 38.2281 31.6512 37.407C28.0182 36.949 24.4642 36.0381 21.0563 34.6971L17.4853 33.2921" id="Shape" fill="#FC4850" stroke="none" />
        <path d="M17.4852 32.367C17.4922 32.35 17.6852 32.408 18.0482 32.532C18.4622 32.681 18.9842 32.869 19.6252 33.1C20.9922 33.601 22.9432 34.386 25.4503 35.047C26.7003 35.384 28.0853 35.695 29.5853 35.951C31.0833 36.207 32.7053 36.379 34.4133 36.561C37.8282 36.912 41.5953 37.19 45.5543 37.293C49.5143 37.394 53.2903 37.297 56.7062 37.003C60.1193 36.697 63.1873 36.251 65.7292 35.756C68.2712 35.262 70.2982 34.662 71.5593 33.974C72.1843 33.631 72.6103 33.251 72.7532 32.913C72.9033 32.572 72.7792 32.369 72.8002 32.368C72.8062 32.3459 72.9832 32.554 72.8522 32.95C72.7252 33.34 72.2902 33.7679 71.6622 34.149C70.3912 34.913 68.3542 35.572 65.8052 36.116C63.2512 36.662 60.1852 37.146 56.7502 37.481C53.3152 37.804 49.5192 37.9149 45.5422 37.814C41.5662 37.711 37.7872 37.417 34.3643 37.038C32.6553 36.8419 31.0262 36.654 29.5123 36.376C28.0002 36.099 26.6072 35.764 25.3533 35.402C22.8383 34.69 20.8923 33.845 19.5533 33.289C18.9273 33.021 18.4173 32.803 18.0123 32.63C17.6592 32.4741 17.4792 32.384 17.4852 32.367L17.4852 32.367Z" id="Group" fill="#263238" stroke="none" />
        <path d="M0.071228 13.334C0.071228 13.334 11.7302 16.209 15.2312 19.6371C21.6492 25.9221 17.0682 34.7241 17.0682 34.7241C17.0682 34.7241 11.7552 28.9431 9.03717 26.9301C6.31915 24.916 3.67719 24.0291 2.72119 22.343C1.58728 20.343 -0.000732422 15.942 0.071228 13.334L0.071228 13.334Z" id="Shape" fill="#000000" fill-opacity="0.3" stroke="none" />
        <path d="M13.5292 4.11404C13.5292 4.11404 13.2783 2.01004 16.1273 1.15805C17.9523 0.612061 24.8022 -1.56995 28.9913 2.01105C30.6873 3.46106 31.2183 5.77106 30.2183 4.91406C29.2183 4.05707 26.3622 2.77606 23.2203 2.70306C20.0773 2.62906 13.5292 4.11404 13.5292 4.11404L13.5292 4.11404Z" id="Shape" fill="#263238" stroke="none" />
      </g>
    </g>
    <g id="Computer_Tower" transform="translate(602.7951 114.16699)" clip-path="url(#clip_1)">
      <g id="Group">
        <path d="M0.000915527 242.199C0.000915527 242.199 0.000915527 6.67801 0.000915527 6.67801C0.000915527 6.67801 6.03192 0.00100708 6.03192 0.00100708C6.03192 0.00100708 94.0929 0.00100708 94.0929 0.00100708C94.0929 0.00100708 99.6239 5.923 99.6239 5.923C99.6239 5.923 99.6239 241.542 99.6239 241.542C99.6239 241.542 86.3869 255.716 86.3869 255.716C86.3869 255.716 9.65088 255.716 9.65088 255.716C9.65088 255.716 0.000915527 242.199 0.000915527 242.199Z" id="Polygon" fill="#263238" fill-rule="evenodd" stroke="none" />
        <g id="Group" transform="translate(24.008911 54.228012)">
          <path d="M0 27.629C0 12.3699 11.5524 0 25.803 0C40.0536 0 51.606 12.3699 51.606 27.629C51.606 42.8881 40.0536 55.258 25.803 55.258C11.5524 55.258 0 42.8881 0 27.629Z" id="Oval" fill="#FC4850" fill-rule="evenodd" stroke="none" />
          <path d="M18.501 27.629C18.501 23.3107 21.7702 19.81 25.803 19.81C29.8358 19.81 33.105 23.3107 33.105 27.629C33.105 31.9473 29.8358 35.448 25.803 35.448C21.7702 35.448 18.501 31.9473 18.501 27.629Z" id="Oval" fill="#263238" fill-rule="evenodd" stroke="none" />
          <path d="M28.125 35.039C27.715 35.167 34.728 53.56 34.728 53.56C34.856 53.561 42.564 50.62 47.625 42.377L31.522 32.486L28.125 35.039L28.125 35.039Z" id="Shape" fill="#FFFFFF" fill-opacity="0.3" stroke="none" />
        </g>
        <g id="Group" transform="translate(24.008911 117.331024)">
          <path d="M0 27.629C0 12.3699 11.5524 0 25.803 0C40.0536 0 51.606 12.3699 51.606 27.629C51.606 42.8881 40.0536 55.258 25.803 55.258C11.5524 55.258 0 42.8881 0 27.629Z" id="Oval" fill="#FC4850" fill-rule="evenodd" stroke="none" />
          <path d="M19.866 32.029C19.626 31.65 5.38397 44.522 5.38397 44.522C5.43597 44.609 9.92798 51.888 19.126 54.323L23.176 34.71L19.866 32.029L19.866 32.029Z" id="Shape" fill="#FFFFFF" fill-opacity="0.3" stroke="none" />
          <path d="M18.501 27.629C18.501 23.3107 21.7702 19.81 25.803 19.81C29.8358 19.81 33.105 23.3107 33.105 27.629C33.105 31.9473 29.8358 35.448 25.803 35.448C21.7702 35.448 18.501 31.9473 18.501 27.629Z" id="Oval" fill="#263238" fill-rule="evenodd" stroke="none" />
        </g>
        <g id="Group" transform="translate(22.266907 184.23901)">
          <path d="M0 27.629C0 12.3699 11.5524 0 25.803 0C40.0536 0 51.606 12.3699 51.606 27.629C51.606 42.8881 40.0536 55.258 25.803 55.258C11.5524 55.258 0 42.8881 0 27.629Z" id="Oval" fill="#FC4850" fill-rule="evenodd" stroke="none" />
          <path d="M21.694 21.272C22.048 21.015 10.027 5.76501 10.027 5.76501C9.94598 5.82101 3.14697 10.631 0.873962 20.479L19.191 24.816L21.694 21.272L21.694 21.272Z" id="Shape" fill="#FFFFFF" fill-opacity="0.3" stroke="none" />
          <path d="M18.501 27.63C18.501 23.3117 21.7702 19.811 25.803 19.811C29.8358 19.811 33.105 23.3117 33.105 27.63C33.105 31.9483 29.8358 35.449 25.803 35.449C21.7702 35.449 18.501 31.9483 18.501 27.63Z" id="Oval" fill="#263238" fill-rule="evenodd" stroke="none" />
        </g>
        <path d="M23.1399 255.716C23.1399 255.716 34.8589 216.134 34.8589 216.134C34.8589 216.134 99.6239 156.905 99.6239 156.905C99.6239 156.905 99.6239 228.371 99.6239 228.371C99.6239 228.371 29.0259 255.716 29.0259 255.716C29.0259 255.716 23.1399 255.716 23.1399 255.716Z" id="Polygon" fill="#000000" fill-opacity="0.3" fill-rule="evenodd" stroke="none" />
        <path d="M0.000915527 6.67801L47.1849 65.397L56.5319 36.037L94.0939 0L6.03296 0C4.51392 1.68201 0.000915527 6.67801 0.000915527 6.67801L0.000915527 6.67801Z" id="Shape" fill="#455A64" stroke="none" />
        <path d="M47.1839 65.397C47.3209 66.598 7.08392 252.119 7.08392 252.119L0.000915527 242.198L0.000915527 6.67801L47.1839 65.397L47.1839 65.397Z" id="Shape" fill="#455A64" stroke="none" />
        <path d="M0.000915527 67.126C0.000915527 67.126 8.38391 77.673 8.38391 77.673C8.38391 77.673 8.38391 175.726 8.38391 175.726C8.38391 175.726 0.000915527 187.698 0.000915527 187.698C0.000915527 187.698 0.000915527 67.126 0.000915527 67.126Z" id="Polygon" fill="#263238" fill-rule="evenodd" stroke="none" />
        <path d="M27.6829 255.716C27.6829 255.716 37.7199 224.161 37.7199 224.161C37.7199 224.161 99.6239 168.021 99.6239 168.021C99.6239 168.021 99.6239 241.542 99.6239 241.542C99.6239 241.542 86.3869 255.716 86.3869 255.716C86.3869 255.716 27.6829 255.716 27.6829 255.716Z" id="Polygon" fill="#455A64" fill-rule="evenodd" stroke="none" />
        <path d="M37.7199 224.161C37.7199 224.161 39.2459 218.944 39.2459 218.944C39.2459 218.944 99.6239 163.078 99.6239 163.078C99.6239 163.078 99.6239 168.021 99.6239 168.021C99.6239 168.021 37.7199 224.161 37.7199 224.161Z" id="Polygon" fill="#FC4850" fill-rule="evenodd" stroke="none" />
        <path d="M0.000915527 6.67801L47.3219 65.397L56.6689 36.037L94.2309 0L6.03192 0C4.51392 1.68201 0.000915527 6.67801 0.000915527 6.67801L0.000915527 6.67801Z" id="Shape" fill="#FFFFFF" fill-opacity="0.2" stroke="none" />
        <path d="M2.85089 144.96L4.19289 144.96L4.19289 166.511L2.85089 166.511L2.85089 144.96Z" id="Rectangle" fill="#FC4850" fill-rule="evenodd" stroke="none" />
        <path d="M8.38391 105.723C8.38391 105.723 0.000915527 115.879 0.000915527 115.879C0.000915527 115.879 0.000915527 125.823 0.000915527 125.823C0.000915527 125.823 8.38391 115.773 8.38391 115.773C8.38391 115.773 8.38391 105.723 8.38391 105.723Z" id="Polygon" fill="#000000" fill-opacity="0.3" fill-rule="evenodd" stroke="none" />
        <path d="M8.38391 102.579C8.38391 102.579 0.000915527 112.656 0.000915527 112.656C0.000915527 112.656 0.000915527 108.45 0.000915527 108.45C0.000915527 108.45 8.38391 98.345 8.38391 98.345C8.38391 98.345 8.38391 102.579 8.38391 102.579Z" id="Polygon" fill="#000000" fill-opacity="0.3" fill-rule="evenodd" stroke="none" />
        <path d="M99.6239 83.951C99.6239 83.951 31.4419 139.471 31.4419 139.471C31.4419 139.471 8.38391 127.187 8.38391 127.187C8.38391 127.187 8.38391 144.96 8.38391 144.96C8.38391 144.96 27.6829 156.905 27.6829 156.905C27.6829 156.905 99.6239 95.784 99.6239 95.784C99.6239 95.784 99.6239 83.951 99.6239 83.951Z" id="Polygon" fill="#FFFFFF" fill-opacity="0.2" fill-rule="evenodd" stroke="none" />
        <path d="M99.6239 103.414C99.6239 103.414 25.2829 168.021 25.2829 168.021C25.2829 168.021 8.38391 154.541 8.38391 154.541C8.38391 154.541 8.38391 159.448 8.38391 159.448C8.38391 159.448 24.2969 172.588 24.2969 172.588C24.2969 172.588 99.6239 107.882 99.6239 107.882C99.6239 107.882 99.6239 103.414 99.6239 103.414Z" id="Polygon" fill="#FFFFFF" fill-opacity="0.2" fill-rule="evenodd" stroke="none" />
        <path d="M77.6509 90.641C77.6099 90.622 77.8779 90.008 78.2999 88.881C78.7228 87.755 79.2479 86.089 79.6509 83.98C80.4769 79.803 80.5709 73.632 78.1299 67.53C76.9209 64.492 75.1919 61.856 73.3329 59.723C71.4499 57.608 69.4639 55.968 67.6529 54.821C64.0179 52.507 61.3329 51.958 61.3859 51.83C61.3909 51.813 61.5549 51.845 61.8639 51.924C62.1699 52.013 62.6359 52.103 63.2029 52.318C64.3589 52.687 65.9859 53.383 67.8489 54.509C69.7119 55.632 71.7569 57.269 73.6929 59.404C75.6049 61.557 77.3799 64.237 78.6129 67.335C81.1019 73.559 80.9409 79.841 80.0109 84.05C79.5558 86.176 78.9719 87.842 78.4869 88.953C78.2639 89.517 78.0309 89.929 77.8939 90.217C77.7499 90.504 77.6669 90.649 77.6509 90.641L77.6509 90.641Z" id="Group" fill="#FC4850" stroke="none" />
        <path d="M0.000915527 205.414C0.000915527 205.414 14.8329 216.353 14.8329 216.353C14.8329 216.353 99.6239 140.793 99.6239 140.793C99.6239 140.793 99.6239 149.126 99.6239 149.126C99.6239 149.126 13.1419 224.161 13.1419 224.161C13.1419 224.161 0.000915527 214.678 0.000915527 214.678C0.000915527 214.678 0.000915527 205.414 0.000915527 205.414Z" id="Polygon" fill="#FFFFFF" fill-opacity="0.1" fill-rule="evenodd" stroke="none" />
        <path d="M9.65088 255.716C9.65088 255.716 52.1169 65.397 52.1169 65.397C52.1169 65.397 61.3819 38.871 61.3819 38.871C61.3819 38.871 96.8929 2.99801 96.8929 2.99801C96.8929 2.99801 94.2309 0.00100708 94.2309 0.00100708C94.2309 0.00100708 56.6689 36.038 56.6689 36.038C56.6689 36.038 47.3219 65.397 47.3219 65.397C47.3219 65.397 7.08392 252.12 7.08392 252.12C7.08392 252.12 9.65088 255.716 9.65088 255.716Z" id="Polygon" fill="#000000" fill-opacity="0.3" fill-rule="evenodd" stroke="none" />
        <path d="M47.3219 65.397C47.2099 65.487 36.5249 52.415 23.4599 36.202C10.3899 19.984 -0.111084 6.768 0.000915527 6.67699C0.112915 6.587 10.7949 19.657 23.8659 35.875C36.9309 52.088 47.4339 65.307 47.3219 65.397L47.3219 65.397Z" id="Group" fill="#FC4850" stroke="none" />
      </g>
    </g>
    <g id="Keyboard" transform="translate(191.057 400.515)" clip-path="url(#clip_1)">
      <g id="Group">
        <path d="M335.167 56.153L2.17899 56.153C1.01698 56.153 0.0709839 55.219 0.0549927 54.057L0 49.888L337.749 49.27L337.749 53.571C337.749 54.996 336.593 56.153 335.167 56.153L335.167 56.153Z" id="Shape" fill="#455A64" stroke="none" />
        <path d="M335.167 56.153L2.17899 56.153C1.01698 56.153 0.0709839 55.219 0.0549927 54.057L0 49.888L337.749 49.27L337.749 53.571C337.749 54.996 336.593 56.153 335.167 56.153L335.167 56.153Z" id="Shape" fill="#000000" fill-opacity="0.3" stroke="none" />
        <path d="M320.56 0L14.73 0C13.548 0 12.515 0.800995 12.221 1.94601L0.0830078 49.269C-0.33699 50.908 0.901001 52.503 2.593 52.502L335.159 52.288C336.903 52.287 338.147 50.597 337.631 48.932L323.033 1.82303C322.698 0.738983 321.695 0 320.56 0L320.56 0Z" id="Shape" fill="#455A64" stroke="none" />
        <path d="M234.928 10.135C235.077 11.809 235.226 13.482 235.375 15.156C239.907 15.156 244.439 15.156 248.971 15.156C248.961 15.046 248.951 14.935 248.941 14.825C248.793 13.159 248.645 11.493 248.497 9.827C243.965 9.827 239.433 9.827 234.901 9.827C234.91 9.92999 234.919 10.033 234.928 10.135L234.928 10.135ZM161.809 23.833C154.466 23.833 147.122 23.833 139.779 23.833L139.961 30.153C147.567 30.153 155.173 30.153 162.779 30.153L161.809 23.833L161.809 23.833ZM222.898 16.609C215.718 16.609 208.537 16.609 201.357 16.609L202.027 22.38C209.147 22.38 216.267 22.38 223.387 22.38L222.898 16.609L222.898 16.609ZM186.537 23.833C178.781 23.833 171.025 23.833 163.269 23.833L164.239 30.153C172.07 30.153 179.901 30.153 187.732 30.153L186.537 23.833L186.537 23.833ZM245.436 16.609C238.408 16.609 231.38 16.609 224.351 16.609L224.839 22.38C231.949 22.38 239.059 22.38 246.169 22.38L245.436 16.609L245.436 16.609ZM314.079 16.609C306.837 16.609 299.594 16.609 292.351 16.609L292.952 22.38C300.289 22.38 307.626 22.38 314.963 22.38L314.079 16.609L314.079 16.609ZM280.075 10.135C280.224 11.809 280.373 13.482 280.521 15.156C285.053 15.156 289.585 15.156 294.117 15.156C294.107 15.046 294.097 14.935 294.087 14.825C293.939 13.159 293.791 11.493 293.643 9.827C289.111 9.827 284.579 9.827 280.047 9.827C280.057 9.92999 280.066 10.033 280.075 10.135L280.075 10.135ZM287.96 23.833L276.689 23.833C276.461 23.833 276.287 24.037 276.323 24.263L277.223 29.842C277.252 30.022 277.407 30.154 277.589 30.154L288.861 30.154C289.089 30.154 289.263 29.95 289.227 29.724L288.326 24.145C288.297 23.965 288.142 23.833 287.96 23.833L287.96 23.833ZM290.899 16.609C283.863 16.609 276.827 16.609 269.791 16.609L270.391 22.38C277.427 22.38 284.464 22.38 291.5 22.38L290.899 16.609L290.899 16.609ZM322.893 16.609C320.442 16.609 317.991 16.609 315.54 16.609L316.424 22.38C319.142 22.38 321.86 22.38 324.578 22.38L322.893 16.609L322.893 16.609ZM268.338 16.609L246.889 16.609L247.623 22.38C254.728 22.38 261.833 22.38 268.938 22.38L268.338 16.609L268.338 16.609ZM177.539 16.609C170.613 16.609 163.687 16.609 156.761 16.609L157.297 22.38C164.296 22.38 171.296 22.38 178.295 22.38L177.539 16.609L177.539 16.609ZM155.308 16.609C148.588 16.609 141.867 16.609 135.147 16.609L134.822 22.38C141.829 22.38 148.836 22.38 155.844 22.38L155.308 16.609L155.308 16.609ZM138.326 23.833C131.628 23.833 124.93 23.833 118.232 23.833L117.931 30.153C124.79 30.153 131.649 30.153 138.508 30.153L138.326 23.833L138.326 23.833ZM265.026 10.135C265.175 11.809 265.324 13.482 265.472 15.156C270.004 15.156 274.536 15.156 279.068 15.156C279.058 15.046 279.048 14.935 279.039 14.825C278.891 13.159 278.743 11.493 278.595 9.827C274.063 9.827 269.531 9.827 264.999 9.827C265.008 9.92999 265.017 10.033 265.026 10.135L265.026 10.135ZM199.904 16.609C192.933 16.609 185.963 16.609 178.992 16.609L179.747 22.38L200.574 22.38L199.904 16.609L199.904 16.609ZM117.629 16.609C115.89 16.609 114.151 16.609 112.411 16.609L111.681 22.38C118.91 22.38 126.14 22.38 133.369 22.38L133.694 16.609C128.339 16.609 122.984 16.609 117.629 16.609L117.629 16.609ZM71.85 23.833L70.812 30.153C78.392 30.153 85.972 30.153 93.553 30.153L94.41 23.833C86.889 23.833 79.37 23.833 71.85 23.833L71.85 23.833ZM90.396 16.609C90.399 16.675 90.404 16.742 90.393 16.81C90.351 17.065 90.31 17.321 90.268 17.576C90.006 19.177 89.744 20.779 89.482 22.3799C96.397 22.3799 103.313 22.3799 110.228 22.3799L110.958 16.6089C104.105 16.609 97.25 16.609 90.396 16.609L90.396 16.609ZM95.743 23.833L94.886 30.153C102.044 30.153 109.201 30.153 116.358 30.153L116.659 23.833C109.688 23.833 102.715 23.833 95.743 23.833L95.743 23.833ZM68.065 16.609L67.547 22.38C74.371 22.38 81.195 22.38 88.018 22.38L88.962 16.609C81.996 16.609 75.03 16.609 68.065 16.609L68.065 16.609ZM198.256 31.606L171.659 31.606C171.196 31.606 170.836 32.008 170.885 32.468L171.539 38.534C171.582 38.929 171.915 39.229 172.313 39.229L198.91 39.229C199.373 39.229 199.733 38.827 199.684 38.367L199.03 32.301C198.987 31.905 198.654 31.606 198.256 31.606L198.256 31.606ZM286.322 3.18399C286.413 4.914 286.505 6.64499 286.596 8.375C293.163 8.375 299.73 8.375 306.297 8.375C306.295 8.33301 306.293 8.29099 306.29 8.25C306.188 6.32199 306.086 4.39301 305.985 2.465L286.283 2.44501C286.296 2.68997 286.309 2.93698 286.322 3.18399L286.322 3.18399ZM37.765 3.612C37.49 5.19901 37.215 6.78699 36.94 8.37399C44.21 8.37399 51.48 8.37399 58.749 8.37399C58.89 8.37399 59.031 8.37399 59.172 8.37399C59.176 8.32498 59.18 8.276 59.184 8.228C59.347 6.22198 59.51 4.216 59.672 2.20999L37.785 2.18799C37.898 2.35898 37.944 2.57498 37.906 2.79199C37.86 3.06497 37.812 3.33899 37.765 3.612L37.765 3.612ZM325.002 23.833C317.786 23.833 310.57 23.833 303.353 23.833L304.379 30.153L326.847 30.153L325.002 23.833L325.002 23.833ZM298.769 31.606L285.24 31.606C284.889 31.606 284.616 31.913 284.658 32.262L285.427 38.712C285.462 39.007 285.712 39.229 286.009 39.229L299.538 39.229C299.89 39.229 300.162 38.922 300.121 38.573L299.352 32.123C299.317 31.828 299.066 31.606 298.769 31.606L298.769 31.606ZM282.76 31.606L264.325 31.606C263.973 31.606 263.701 31.913 263.743 32.262L264.512 38.712C264.547 39.007 264.797 39.229 265.094 39.229L283.529 39.229C283.88 39.229 284.153 38.922 284.111 38.573L283.341 32.123C283.307 31.828 283.057 31.606 282.76 31.606L282.76 31.606ZM268.454 40.682L251.619 40.682C251.351 40.682 251.14 40.91 251.161 41.177L251.655 47.657C251.673 47.897 251.873 48.082 252.113 48.082L269.026 48.082C269.296 48.082 269.508 47.851 269.484 47.582L268.912 41.102C268.891 40.864 268.693 40.682 268.454 40.682L268.454 40.682ZM314.021 40.682L295.544 40.682C295.043 40.682 294.651 41.115 294.702 41.614L295.28 47.32C295.324 47.752 295.688 48.081 296.122 48.081L314.471 48.081C314.965 48.081 315.354 47.66 315.315 47.168L314.865 41.462C314.83 41.021 314.462 40.682 314.021 40.682L314.021 40.682ZM232.095 23.833L213.128 23.833C212.767 23.833 212.491 24.157 212.549 24.514L213.385 29.661C213.431 29.945 213.676 30.154 213.964 30.154L232.931 30.154C233.293 30.154 233.568 29.83 233.51 29.473L232.674 24.326C232.628 24.041 232.383 23.833 232.095 23.833L232.095 23.833ZM215.203 41.561C215.143 41.059 214.717 40.682 214.212 40.682L136.946 40.682L104.161 40.682C103.588 40.682 103.133 41.163 103.165 41.735L103.466 47.138C103.496 47.667 103.933 48.08 104.462 48.08L214.859 48.08C215.457 48.08 215.921 47.557 215.85 46.964L215.203 41.561L215.203 41.561ZM241.473 31.606L222.166 31.606C221.817 31.606 221.546 31.909 221.583 32.255L222.278 38.705C222.31 39.003 222.562 39.229 222.861 39.229L242.243 39.229C242.595 39.229 242.867 38.922 242.825 38.573L242.056 32.123C242.02 31.828 241.77 31.606 241.473 31.606L241.473 31.606ZM66.562 16.609C63.353 16.609 48.614 16.609 45.802 16.609C45.512 16.609 45.273 16.809 45.224 17.095C44.97 18.56 44.686 20.205 44.429 21.686C44.366 22.052 44.642 22.38 45.014 22.38C48.737 22.38 65.936 22.38 65.936 22.38L66.562 16.609L66.562 16.609ZM96.126 10.135C95.976 11.809 95.825 13.482 95.675 15.156C100.331 15.156 104.987 15.156 109.642 15.156C109.652 15.046 109.662 14.935 109.672 14.825C109.822 13.159 109.971 11.493 110.121 9.827C105.465 9.827 100.81 9.827 96.154 9.827C96.145 9.92999 96.135 10.033 96.126 10.135L96.126 10.135ZM80.706 10.135C80.556 11.809 80.405 13.482 80.255 15.156C84.911 15.156 89.567 15.156 94.222 15.156C94.232 15.046 94.242 14.935 94.252 14.825C94.402 13.159 94.551 11.493 94.701 9.827C90.045 9.827 85.389 9.827 80.734 9.827C80.724 9.92999 80.715 10.033 80.706 10.135L80.706 10.135ZM58.75 15.156C65.434 15.156 72.118 15.156 78.802 15.156C78.812 15.046 78.822 14.935 78.832 14.825C78.982 13.159 79.131 11.493 79.281 9.827C71.902 9.827 64.523 9.827 57.144 9.827C57.138 9.897 57.132 9.96701 57.125 10.038C56.972 11.744 56.818 13.45 56.665 15.156C57.36 15.156 58.055 15.156 58.75 15.156L58.75 15.156ZM142.387 10.135C142.237 11.809 142.086 13.482 141.936 15.156C146.844 15.156 151.752 15.156 156.661 15.156C156.657 15.046 156.652 14.935 156.648 14.825C156.58 13.159 156.513 11.493 156.445 9.827C151.768 9.827 147.092 9.827 142.415 9.827C142.405 9.92999 142.396 10.033 142.387 10.135L142.387 10.135ZM157.91 10.135C157.978 11.809 158.046 13.482 158.114 15.156C162.937 15.156 167.76 15.156 172.582 15.156C172.568 15.049 172.555 14.941 172.541 14.834C172.329 13.165 172.118 11.496 171.906 9.827C167.236 9.827 162.567 9.827 157.897 9.827C157.901 9.92999 157.906 10.033 157.91 10.135L157.91 10.135ZM82.737 32.647L81.868 37.77C81.739 38.533 82.326 39.229 83.1 39.229L101.63 39.229C102.302 39.229 102.854 38.698 102.879 38.026L103.072 32.903C103.099 32.195 102.532 31.606 101.823 31.606L83.969 31.606C83.36 31.606 82.839 32.046 82.737 32.647L82.737 32.647ZM188.839 9.944C189.162 11.681 189.485 13.419 189.808 15.156C190.624 15.156 191.44 15.156 192.255 15.156C195.918 15.156 199.58 15.156 203.243 15.156C203.233 15.046 203.222 14.935 203.211 14.825C203.051 13.159 202.891 11.493 202.731 9.82703C198.093 9.82703 193.455 9.82703 188.817 9.82703C188.825 9.866 188.832 9.905 188.839 9.944L188.839 9.944ZM56.565 32.254L55.536 38.32C55.455 38.795 55.822 39.229 56.303 39.229L79.497 39.229C79.877 39.229 80.201 38.955 80.264 38.581L81.293 32.515C81.374 32.04 81.008 31.607 80.526 31.607L57.332 31.607C56.952 31.606 56.628 31.88 56.565 32.254L56.565 32.254ZM249.95 9.827C249.959 9.92999 249.968 10.032 249.977 10.135C250.126 11.809 250.275 13.482 250.423 15.156C254.955 15.156 259.487 15.156 264.019 15.156C264.009 15.046 263.999 14.935 263.99 14.825C263.842 13.159 263.694 11.493 263.546 9.82703C259.409 9.82703 255.272 9.82703 251.135 9.82703C250.74 9.827 250.345 9.827 249.95 9.827L249.95 9.827ZM43.519 16.609L12.652 16.609C12.464 16.609 12.301 16.739 12.259 16.922L11.125 21.887C11.067 22.139 11.259 22.379 11.518 22.379L43.017 22.379C43.019 22.337 43.012 22.297 43.019 22.255C43.066 21.982 43.114 21.708 43.161 21.434C43.412 19.982 43.664 18.5309 43.915 17.0789C43.959 16.834 43.769 16.609 43.519 16.609L43.519 16.609ZM254.226 23.914C254.222 23.886 254.227 23.86 254.225 23.832L234.058 23.832L235.084 30.152C241.803 30.152 248.521 30.152 255.239 30.152C254.901 28.074 254.564 25.994 254.226 23.914L254.226 23.914ZM28.401 41.178L27.175 47.343C27.099 47.725 27.391 48.08 27.78 48.08L48.136 48.08C48.433 48.08 48.687 47.869 48.742 47.577L49.906 41.412C49.978 41.032 49.686 40.68 49.3 40.68L29.006 40.68C28.712 40.682 28.458 40.89 28.401 41.178L28.401 41.178ZM51.453 41.338L50.254 47.086C50.147 47.599 50.538 48.08 51.062 48.08L71.397 48.08C71.811 48.08 72.16 47.774 72.215 47.364L72.984 41.616C73.05 41.121 72.665 40.681 72.166 40.681L52.261 40.681C51.87 40.682 51.533 40.956 51.453 41.338L51.453 41.338ZM74.482 41.313L73.728 47.268C73.673 47.699 74.01 48.081 74.444 48.081L85.543 48.081C85.915 48.081 86.226 47.798 86.262 47.4279L86.835 41.473C86.876 41.049 86.542 40.682 86.116 40.682L75.198 40.682C74.835 40.682 74.528 40.952 74.482 41.313L74.482 41.313ZM27.797 32.133L26.188 38.349C26.073 38.794 26.409 39.229 26.869 39.229L53.322 39.229C53.665 39.229 53.958 38.982 54.015 38.644C54.352 36.656 54.693 34.669 55.159 32.681C55.281 31.918 54.908 31.606 54.319 31.606L28.479 31.606C28.157 31.606 27.877 31.823 27.797 32.133L27.797 32.133ZM100.651 40.682L89.677 40.682C89.095 40.682 88.609 41.123 88.551 41.702L88.044 46.839C87.978 47.504 88.501 48.081 89.17 48.081L100.721 48.081C101.352 48.081 101.86 47.565 101.852 46.935L101.781 41.798C101.773 41.179 101.269 40.682 100.651 40.682L100.651 40.682ZM219.533 31.606L201.061 31.606C200.712 31.606 200.441 31.909 200.478 32.255L201.173 38.705C201.205 39.003 201.457 39.229 201.756 39.229L220.228 39.229C220.577 39.229 220.849 38.926 220.811 38.58L220.116 32.13C220.084 31.832 219.832 31.606 219.533 31.606L219.533 31.606ZM34.948 9.827C34.923 9.97198 34.898 10.117 34.873 10.263C34.591 11.894 34.308 13.525 34.026 15.156C41.088 15.156 48.151 15.156 55.213 15.156C55.226 15.013 55.239 14.87 55.251 14.727C55.398 13.093 55.544 11.46 55.691 9.82703C48.777 9.827 41.862 9.827 34.948 9.827L34.948 9.827ZM8.786 32.136L7.35699 38.394C7.25999 38.821 7.584 39.228 8.02199 39.228L23.93 39.228C24.241 39.228 24.513 39.018 24.591 38.717L26.211 32.459C26.323 32.027 25.997 31.606 25.55 31.606L9.44998 31.606C9.133 31.606 8.85699 31.826 8.786 32.136L8.786 32.136ZM83.081 3.05499C82.902 4.828 82.723 6.60098 82.544 8.37399C89.278 8.37399 96.013 8.37399 102.747 8.37399C102.761 8.233 102.775 8.09198 102.79 7.95099C102.982 6.052 103.173 4.15298 103.365 2.254L83.164 2.233C83.136 2.508 83.109 2.78198 83.081 3.05499L83.081 3.05499ZM12.948 15.156L32.365 15.156C32.45 15.085 32.505 15.038 32.59 14.967C32.871 13.343 33.152 11.718 33.434 10.094C33.458 9.95499 33.351 9.827 33.209 9.827L14.061 9.827C13.955 9.827 13.862 9.901 13.839 10.004L12.727 14.877C12.694 15.02 12.802 15.156 12.948 15.156L12.948 15.156ZM10.531 24.492L9.47499 29.117C9.35399 29.648 9.75699 30.154 10.302 30.154L45.884 30.154C46.297 30.154 46.65 29.857 46.72 29.45L47.516 24.825C47.605 24.3069 47.206 23.8329 46.68 23.8329L11.357 23.8329C10.962 23.833 10.619 24.106 10.531 24.492L10.531 24.492ZM61.058 3.03699C60.914 4.81598 60.769 6.595 60.625 8.37399C67.447 8.37399 74.269 8.37399 81.091 8.37399C81.105 8.233 81.12 8.09198 81.134 7.95099C81.327 6.04498 81.519 4.138 81.711 2.23199L61.125 2.211C61.103 2.487 61.081 2.76199 61.058 3.03699L61.058 3.03699ZM219.852 9.827C219.861 9.92999 219.87 10.032 219.879 10.135C220.028 11.809 220.177 13.482 220.326 15.156C224.858 15.156 229.39 15.156 233.922 15.156C233.912 15.046 233.902 14.935 233.893 14.825C233.745 13.159 233.597 11.493 233.449 9.82703C228.916 9.827 224.384 9.827 219.852 9.827L219.852 9.827ZM6.95999 41.141L5.53999 47.359C5.45599 47.729 5.737 48.081 6.116 48.081L25.325 48.081C25.608 48.081 25.851 47.881 25.905 47.603L27.115 41.385C27.186 41.02 26.907 40.682 26.535 40.682L7.53601 40.682C7.25999 40.682 7.021 40.872 6.95999 41.141L6.95999 41.141ZM15.545 2.52798L14.341 7.80399C14.274 8.09598 14.496 8.375 14.796 8.375L35.472 8.375C35.489 8.27899 35.505 8.18399 35.522 8.08801C35.85 6.194 36.178 4.30002 36.506 2.40601C36.52 2.323 36.561 2.25201 36.608 2.18701L16.001 2.16602C15.783 2.16498 15.594 2.31497 15.545 2.52798L15.545 2.52798ZM262.057 31.606C261.608 31.606 261.16 31.606 260.711 31.606L244.106 31.606C243.755 31.606 243.482 31.913 243.524 32.262L244.293 38.712C244.328 39.007 244.578 39.229 244.875 39.229L262.305 39.229C262.656 39.229 262.929 38.922 262.887 38.573L262.057 31.606L262.057 31.606ZM329.572 40.68L316.758 40.619C316.485 40.618 316.268 40.85 316.289 41.123L316.778 47.536C316.796 47.779 316.998 47.967 317.241 47.968L331.452 48.076C331.765 48.078 331.993 47.778 331.905 47.477L330.019 41.017C329.961 40.818 329.779 40.681 329.572 40.68L329.572 40.68ZM248.841 40.682L235.977 40.682C235.43 40.682 235.003 41.157 235.062 41.701L235.661 47.26C235.711 47.727 236.106 48.082 236.576 48.082L249.417 48.082C249.963 48.082 250.389 47.61 250.332 47.067L249.757 41.508C249.708 41.038 249.313 40.682 248.841 40.682L248.841 40.682ZM292.64 40.682L271.07 40.682C270.739 40.682 270.481 40.968 270.514 41.297L271.149 47.579C271.178 47.864 271.418 48.082 271.705 48.082L293.165 48.082C293.492 48.082 293.749 47.803 293.722 47.477L293.197 41.1949C293.173 40.904 292.931 40.682 292.64 40.682L292.64 40.682ZM315.385 31.606L301.403 31.606C301.052 31.606 300.779 31.913 300.821 32.262L301.59 38.712C301.625 39.007 301.875 39.229 302.172 39.229L316.153 39.229C316.505 39.229 316.777 38.922 316.735 38.573L315.966 32.123C315.932 31.828 315.682 31.606 315.385 31.606L315.385 31.606ZM326.832 31.606L318.009 31.606C317.657 31.606 317.384 31.914 317.427 32.263L318.206 38.713C318.242 39.008 318.492 39.229 318.788 39.229L328.716 39.229C329.107 39.229 329.389 38.853 329.279 38.478L327.396 32.028C327.322 31.778 327.092 31.606 326.832 31.606L326.832 31.606ZM307.476 3.18399C307.567 4.914 307.659 6.64499 307.75 8.375C311.996 8.375 316.242 8.375 320.488 8.375L318.766 2.47699L307.438 2.465C307.451 2.70499 307.464 2.944 307.476 3.18399L307.476 3.18399ZM232.456 40.682L217.818 40.682C217.137 40.682 216.602 41.266 216.661 41.945L217.108 47.022C217.161 47.622 217.663 48.081 218.265 48.081L233.003 48.081C233.693 48.081 234.231 47.482 234.157 46.796L233.61 41.719C233.547 41.129 233.05 40.682 232.456 40.682L232.456 40.682ZM126.589 32.355L126.36 38.421C126.343 38.862 126.696 39.229 127.138 39.229L146.17 39.229C146.588 39.229 146.932 38.898 146.948 38.48L147.177 32.414C147.194 31.973 146.841 31.606 146.399 31.606L127.367 31.606C126.948 31.606 126.605 31.937 126.589 32.355L126.589 32.355ZM49.129 23.833L48.06 30.153L69.347 30.153L70.385 23.833C63.3 23.833 56.215 23.833 49.129 23.833L49.129 23.833ZM104.546 32.355L104.317 38.421C104.3 38.862 104.653 39.229 105.095 39.229L124.127 39.229C124.545 39.229 124.889 38.898 124.905 38.48L125.134 32.414C125.151 31.973 124.798 31.606 124.356 31.606L105.324 31.606C104.906 31.606 104.562 31.937 104.546 32.355L104.546 32.355ZM169.34 31.606C162.447 31.606 155.553 31.606 148.66 31.606L148.372 39.229C155.635 39.229 162.898 39.229 170.161 39.229L169.34 31.606L169.34 31.606ZM210.477 23.833L188.719 23.833C188.351 23.833 188.074 24.167 188.143 24.529L189.117 29.676C189.169 29.953 189.411 30.154 189.693 30.154L201.833 30.154L211.313 30.154C211.675 30.154 211.95 29.83 211.892 29.473L211.056 24.326C211.009 24.041 210.764 23.833 210.477 23.833L210.477 23.833ZM126.967 10.135C126.817 11.809 126.666 13.482 126.516 15.156C131.172 15.156 135.828 15.156 140.483 15.156C140.493 15.046 140.503 14.935 140.513 14.825C140.663 13.159 140.812 11.493 140.962 9.827C136.306 9.827 131.65 9.827 126.995 9.827C126.985 9.92999 126.976 10.033 126.967 10.135L126.967 10.135ZM204.214 10.135C204.375 11.809 204.535 13.482 204.696 15.156C209.422 15.156 214.147 15.156 218.873 15.156C218.863 15.046 218.853 14.935 218.844 14.825C218.696 13.159 218.548 11.493 218.4 9.827C213.662 9.827 208.924 9.827 204.186 9.827C204.194 9.92999 204.204 10.033 204.214 10.135L204.214 10.135ZM173.397 10.126C173.609 11.803 173.822 13.48 174.035 15.156C178.802 15.156 183.569 15.156 188.336 15.156C188.327 15.109 188.319 15.062 188.31 15.016C187.989 13.2859 187.667 11.5569 187.346 9.82697C182.684 9.82697 178.022 9.82697 173.36 9.82697C173.372 9.92697 173.384 10.026 173.397 10.126L173.397 10.126ZM111.574 9.827C111.565 9.92999 111.556 10.032 111.546 10.135C111.396 11.809 111.245 13.482 111.095 15.156C115.751 15.156 120.407 15.156 125.062 15.156C125.072 15.046 125.082 14.935 125.092 14.825C125.242 13.159 125.391 11.493 125.541 9.82703C122.904 9.82703 120.266 9.82703 117.629 9.82703C115.611 9.827 113.592 9.827 111.574 9.827L111.574 9.827ZM274.291 23.833L256.366 23.833C256.004 23.833 255.729 24.157 255.787 24.514L256.623 29.661C256.669 29.945 256.914 30.154 257.202 30.154L275.127 30.154C275.488 30.154 275.764 29.83 275.706 29.473L274.87 24.326C274.824 24.041 274.579 23.833 274.291 23.833L274.291 23.833ZM126.393 3.05499C126.214 4.828 126.035 6.60098 125.856 8.37399C132.907 8.37399 139.958 8.37399 147.009 8.37399C147.009 8.237 147.009 8.10001 147.009 7.96399C147.009 6.07599 147.009 4.18799 147.009 2.29999L126.471 2.27899C126.445 2.53799 126.419 2.79599 126.393 3.05499L126.393 3.05499ZM220.411 3.18399C220.502 4.914 220.594 6.64499 220.685 8.375C228.068 8.375 235.452 8.375 242.835 8.375C242.833 8.33301 242.831 8.29099 242.828 8.25C242.725 6.29999 242.622 4.349 242.519 2.39899L220.368 2.37598C220.383 2.64499 220.397 2.91397 220.411 3.18399L220.411 3.18399ZM170.194 2.33197C170.209 2.61597 170.224 2.89996 170.239 3.18396C170.33 4.91397 170.422 6.64496 170.513 8.37497C177.761 8.37497 185.008 8.37497 192.256 8.37497C192.854 8.37497 193.452 8.37497 194.05 8.37497C193.699 6.36896 193.349 4.36398 192.998 2.35797C192.997 2.35498 192.998 2.35098 192.998 2.34796L170.192 2.32495C170.192 2.327 170.194 2.32898 170.194 2.33197L170.194 2.33197ZM194.552 2.84698C194.874 4.68997 195.196 6.53198 195.518 8.375C203.423 8.375 211.327 8.375 219.232 8.375C219.23 8.33301 219.228 8.29099 219.225 8.25C219.122 6.29199 219.018 4.33301 218.915 2.375L194.464 2.35001C194.494 2.51498 194.523 2.681 194.552 2.84698L194.552 2.84698ZM148.462 2.30099C148.462 2.548 148.462 2.79498 148.462 3.04199C148.462 4.819 148.462 6.59698 148.462 8.37399C155.328 8.37399 162.194 8.37399 169.06 8.37399C169.058 8.332 169.056 8.28998 169.053 8.24899C168.949 6.27701 168.845 4.30399 168.741 2.332C168.741 2.32901 168.743 2.32599 168.743 2.32199L148.462 2.30099L148.462 2.30099ZM104.737 3.05499C104.558 4.828 104.379 6.60098 104.2 8.37399C110.934 8.37399 117.669 8.37399 124.403 8.37399C124.417 8.233 124.432 8.09198 124.446 7.95099C124.637 6.05899 124.828 4.168 125.019 2.27698L104.818 2.25598C104.791 2.52298 104.764 2.78897 104.737 3.05499L104.737 3.05499ZM301.39 23.833L290.424 23.833C290.063 23.833 289.787 24.157 289.845 24.514L290.681 29.661C290.727 29.945 290.972 30.154 291.26 30.154L302.226 30.154C302.588 30.154 302.863 29.83 302.805 29.473L301.969 24.326C301.923 24.041 301.678 23.833 301.39 23.833L301.39 23.833ZM310.174 10.135C310.323 11.809 310.472 13.482 310.621 15.156C314.571 15.156 318.52 15.156 322.47 15.156L320.914 9.82697C317.325 9.82697 313.736 9.82697 310.148 9.82697C310.155 9.92999 310.164 10.033 310.174 10.135L310.174 10.135ZM295.097 9.827C295.106 9.92999 295.115 10.032 295.124 10.135C295.273 11.809 295.422 13.482 295.571 15.156C300.103 15.156 304.635 15.156 309.167 15.156C309.157 15.046 309.147 14.935 309.138 14.825C308.99 13.159 308.842 11.493 308.694 9.82703C304.161 9.827 299.629 9.827 295.097 9.827L295.097 9.827ZM265.168 3.18399C265.259 4.914 265.351 6.64499 265.442 8.375C272.009 8.375 278.576 8.375 285.143 8.375C285.141 8.33301 285.139 8.29099 285.136 8.25C285.034 6.314 284.932 4.379 284.83 2.44299L265.128 2.423C265.141 2.67599 265.155 2.92999 265.168 3.18399L265.168 3.18399ZM244.014 3.18399C244.105 4.914 244.197 6.64499 244.288 8.375C250.855 8.375 257.422 8.375 263.989 8.375C263.987 8.33301 263.985 8.29099 263.982 8.25C263.879 6.30701 263.777 4.36401 263.674 2.42099L243.972 2.401C243.986 2.66098 244 2.922 244.014 3.18399L244.014 3.18399Z" id="Group" fill="#263238" stroke="none" />
        <path d="M235.125 8.60498C235.274 10.279 235.423 11.952 235.571 13.626C240.103 13.626 244.635 13.626 249.167 13.626C249.157 13.516 249.147 13.405 249.138 13.295C248.99 11.629 248.842 9.96298 248.694 8.297C244.162 8.297 239.63 8.297 235.098 8.297C235.107 8.39999 235.116 8.50198 235.125 8.60498L235.125 8.60498ZM162.006 22.302C154.663 22.302 147.319 22.302 139.976 22.302L140.158 28.622C147.764 28.622 155.37 28.622 162.976 28.622L162.006 22.302L162.006 22.302ZM223.095 15.079C215.915 15.079 208.734 15.079 201.554 15.079L202.224 20.85C209.344 20.85 216.464 20.85 223.584 20.85L223.095 15.079L223.095 15.079ZM186.733 22.302C178.977 22.302 171.221 22.302 163.465 22.302L164.435 28.622C172.266 28.622 180.097 28.622 187.928 28.622L186.733 22.302L186.733 22.302ZM245.632 15.079C238.604 15.079 231.575 15.079 224.547 15.079L225.035 20.85C232.145 20.85 239.255 20.85 246.365 20.85L245.632 15.079L245.632 15.079ZM314.276 15.079C307.033 15.079 299.791 15.079 292.548 15.079L293.149 20.85C300.486 20.85 307.823 20.85 315.16 20.85L314.276 15.079L314.276 15.079ZM280.272 8.60498C280.421 10.279 280.57 11.952 280.719 13.626C285.251 13.626 289.783 13.626 294.315 13.626C294.305 13.516 294.295 13.405 294.286 13.295C294.138 11.629 293.99 9.96298 293.842 8.297C289.31 8.297 284.778 8.297 280.246 8.297C280.254 8.39999 280.263 8.50198 280.272 8.60498L280.272 8.60498ZM288.157 22.302L276.886 22.302C276.658 22.302 276.484 22.506 276.52 22.732L277.42 28.311C277.449 28.491 277.604 28.623 277.786 28.623L289.058 28.623C289.286 28.623 289.461 28.419 289.424 28.193L288.523 22.614C288.494 22.434 288.339 22.302 288.157 22.302L288.157 22.302ZM291.096 15.079C284.06 15.079 277.024 15.079 269.988 15.079L270.588 20.85C277.624 20.85 284.661 20.85 291.697 20.85L291.096 15.079L291.096 15.079ZM323.09 15.079C320.639 15.079 318.188 15.079 315.737 15.079L316.621 20.85C319.339 20.85 322.057 20.85 324.775 20.85L323.09 15.079L323.09 15.079ZM268.535 15.079L247.086 15.079L247.82 20.85C254.925 20.85 262.03 20.85 269.135 20.85L268.535 15.079L268.535 15.079ZM177.736 15.079C170.81 15.079 163.884 15.079 156.958 15.079L157.494 20.85C164.493 20.85 171.493 20.85 178.492 20.85L177.736 15.079L177.736 15.079ZM155.505 15.079C148.785 15.079 142.064 15.079 135.344 15.079L135.019 20.85C142.026 20.85 149.034 20.85 156.041 20.85L155.505 15.079L155.505 15.079ZM138.522 22.302C131.824 22.302 125.126 22.302 118.428 22.302L118.127 28.622C124.986 28.622 131.845 28.622 138.704 28.622L138.522 22.302L138.522 22.302ZM265.223 8.60498C265.372 10.279 265.521 11.952 265.67 13.626C270.202 13.626 274.734 13.626 279.266 13.626C279.256 13.516 279.246 13.405 279.237 13.295C279.089 11.629 278.941 9.96298 278.793 8.297C274.261 8.297 269.729 8.297 265.197 8.297C265.205 8.39999 265.214 8.50198 265.223 8.60498L265.223 8.60498ZM200.101 15.079C193.13 15.079 186.159 15.079 179.189 15.079L179.945 20.85L200.772 20.85L200.101 15.079L200.101 15.079ZM117.826 15.079C116.087 15.079 114.347 15.079 112.608 15.079L111.878 20.85C119.107 20.85 126.337 20.85 133.566 20.85L133.891 15.079C128.536 15.079 123.181 15.079 117.826 15.079L117.826 15.079ZM72.047 22.302L71.009 28.622C78.589 28.622 86.17 28.622 93.75 28.622L94.607 22.302C87.086 22.302 79.567 22.302 72.047 22.302L72.047 22.302ZM90.593 15.079C90.596 15.145 90.601 15.212 90.59 15.28C90.548 15.535 90.507 15.791 90.465 16.046C90.203 17.647 89.941 19.249 89.679 20.8499C96.594 20.8499 103.51 20.8499 110.425 20.8499L111.155 15.0789C104.301 15.079 97.447 15.079 90.593 15.079L90.593 15.079ZM95.94 22.302L95.083 28.622C102.24 28.622 109.398 28.622 116.555 28.622L116.856 22.302C109.885 22.302 102.912 22.302 95.94 22.302L95.94 22.302ZM68.261 15.079L67.743 20.85C74.567 20.85 81.391 20.85 88.214 20.85L89.158 15.079C82.193 15.079 75.227 15.079 68.261 15.079L68.261 15.079ZM198.453 30.076L171.856 30.076C171.393 30.076 171.033 30.477 171.082 30.938L171.735 37.004C171.778 37.399 172.111 37.699 172.509 37.699L199.106 37.699C199.569 37.699 199.929 37.298 199.88 36.837L199.226 30.771C199.184 30.375 198.85 30.076 198.453 30.076L198.453 30.076ZM286.519 1.65298C286.61 3.383 286.702 5.11398 286.793 6.84399C293.36 6.84399 299.927 6.84399 306.494 6.84399C306.492 6.802 306.49 6.75998 306.487 6.71899C306.385 4.79099 306.283 2.862 306.182 0.93399L286.48 0.914001C286.493 1.15997 286.506 1.40698 286.519 1.65298L286.519 1.65298ZM37.962 2.08197C37.687 3.66898 37.412 5.25696 37.137 6.84396C44.407 6.84396 51.677 6.84396 58.946 6.84396C59.087 6.84396 59.228 6.84396 59.369 6.84396C59.373 6.79495 59.377 6.74597 59.381 6.69797C59.544 4.69196 59.707 2.68597 59.869 0.679962L37.982 0.657959C38.095 0.828949 38.141 1.04495 38.103 1.26196C38.056 1.53497 38.009 1.80899 37.962 2.08197L37.962 2.08197ZM325.199 22.302C317.983 22.302 310.767 22.302 303.55 22.302L304.576 28.622L327.044 28.622L325.199 22.302L325.199 22.302ZM298.966 30.076L285.437 30.076C285.085 30.076 284.813 30.383 284.855 30.732L285.624 37.182C285.659 37.477 285.909 37.699 286.206 37.699L299.735 37.699C300.087 37.699 300.359 37.392 300.317 37.043L299.548 30.593C299.513 30.298 299.263 30.076 298.966 30.076L298.966 30.076ZM282.957 30.076L264.522 30.076C264.171 30.076 263.898 30.383 263.94 30.732L264.709 37.182C264.744 37.477 264.994 37.699 265.291 37.699L283.726 37.699C284.078 37.699 284.35 37.392 284.308 37.043L283.539 30.593C283.504 30.298 283.254 30.076 282.957 30.076L282.957 30.076ZM268.651 39.151L251.816 39.151C251.548 39.151 251.337 39.379 251.358 39.646L251.852 46.126C251.87 46.366 252.07 46.551 252.31 46.551L269.223 46.551C269.493 46.551 269.705 46.32 269.681 46.051L269.109 39.571C269.088 39.333 268.889 39.151 268.651 39.151L268.651 39.151ZM314.217 39.151L295.74 39.151C295.239 39.151 294.847 39.584 294.898 40.083L295.476 45.789C295.52 46.221 295.884 46.55 296.318 46.55L314.667 46.55C315.161 46.55 315.55 46.129 315.511 45.637L315.061 39.931C315.027 39.491 314.659 39.151 314.217 39.151L314.217 39.151ZM232.292 22.302L213.325 22.302C212.964 22.302 212.688 22.626 212.746 22.983L213.582 28.13C213.628 28.414 213.873 28.623 214.161 28.623L233.128 28.623C233.489 28.623 233.765 28.299 233.707 27.943L232.872 22.796C232.825 22.511 232.58 22.302 232.292 22.302L232.292 22.302ZM215.4 40.031C215.34 39.529 214.914 39.152 214.409 39.152L137.143 39.152L104.358 39.152C103.785 39.152 103.33 39.633 103.362 40.205L103.663 45.608C103.692 46.137 104.13 46.55 104.659 46.55L215.056 46.55C215.654 46.55 216.118 46.0269 216.047 45.433L215.4 40.031L215.4 40.031ZM241.67 30.076L222.363 30.076C222.014 30.076 221.743 30.379 221.78 30.725L222.475 37.175C222.507 37.473 222.759 37.699 223.058 37.699L242.44 37.699C242.791 37.699 243.064 37.392 243.022 37.043L242.253 30.593C242.217 30.298 241.967 30.076 241.67 30.076L241.67 30.076ZM66.759 15.079C63.55 15.079 48.811 15.079 45.999 15.079C45.709 15.079 45.47 15.279 45.421 15.565C45.167 17.03 44.883 18.675 44.626 20.156C44.563 20.522 44.839 20.85 45.211 20.85C48.934 20.85 66.133 20.85 66.133 20.85L66.759 15.079L66.759 15.079ZM96.323 8.60498C96.173 10.279 96.022 11.952 95.872 13.626C100.528 13.626 105.184 13.626 109.839 13.626C109.849 13.516 109.859 13.405 109.869 13.295C110.019 11.629 110.168 9.96298 110.318 8.297C105.662 8.297 101.006 8.297 96.351 8.297C96.341 8.39999 96.332 8.50198 96.323 8.60498L96.323 8.60498ZM80.903 8.60498C80.753 10.279 80.602 11.952 80.452 13.626C85.108 13.626 89.764 13.626 94.419 13.626C94.429 13.516 94.439 13.405 94.449 13.295C94.599 11.629 94.748 9.96298 94.898 8.297C90.242 8.297 85.586 8.297 80.931 8.297C80.921 8.39999 80.912 8.50198 80.903 8.60498L80.903 8.60498ZM58.946 13.626C65.63 13.626 72.314 13.626 78.998 13.626C79.008 13.516 79.018 13.405 79.028 13.295C79.178 11.629 79.327 9.96298 79.477 8.297C72.098 8.297 64.719 8.297 57.34 8.297C57.334 8.367 57.327 8.43701 57.321 8.508C57.168 10.214 57.015 11.92 56.861 13.626C57.557 13.626 58.252 13.626 58.946 13.626L58.946 13.626ZM142.584 8.60498C142.434 10.279 142.283 11.952 142.133 13.626C147.041 13.626 151.949 13.626 156.858 13.626C156.853 13.516 156.849 13.405 156.845 13.295C156.778 11.629 156.71 9.96298 156.642 8.297C151.965 8.297 147.289 8.297 142.612 8.297C142.602 8.39999 142.593 8.50198 142.584 8.60498L142.584 8.60498ZM158.107 8.60498C158.175 10.279 158.243 11.952 158.31 13.626C163.133 13.626 167.956 13.626 172.778 13.626C172.764 13.519 172.751 13.412 172.737 13.304C172.525 11.635 172.314 9.96597 172.102 8.297C167.433 8.297 162.763 8.297 158.093 8.297C158.098 8.39999 158.102 8.50198 158.107 8.60498L158.107 8.60498ZM82.934 31.116L82.065 36.239C81.936 37.002 82.523 37.698 83.297 37.698L101.827 37.698C102.499 37.698 103.05 37.167 103.076 36.495L103.269 31.372C103.296 30.664 102.729 30.075 102.02 30.075L84.166 30.075C83.557 30.076 83.036 30.515 82.934 31.116L82.934 31.116ZM189.036 8.41397C189.359 10.151 189.682 11.889 190.005 13.626C190.821 13.626 191.637 13.626 192.452 13.626C196.115 13.626 199.777 13.626 203.44 13.626C203.429 13.516 203.419 13.405 203.408 13.295C203.248 11.629 203.088 9.96298 202.928 8.297C198.29 8.297 193.652 8.297 189.014 8.297C189.022 8.336 189.029 8.375 189.036 8.41397L189.036 8.41397ZM56.761 30.724L55.732 36.79C55.651 37.265 56.018 37.698 56.499 37.698L79.693 37.698C80.073 37.698 80.397 37.424 80.46 37.05L81.489 30.984C81.57 30.509 81.204 30.076 80.722 30.076L57.528 30.076C57.149 30.076 56.825 30.349 56.761 30.724L56.761 30.724ZM250.147 8.297C250.156 8.39999 250.165 8.50198 250.174 8.60501C250.323 10.279 250.472 11.952 250.621 13.626C255.153 13.626 259.685 13.626 264.217 13.626C264.207 13.516 264.197 13.405 264.187 13.295C264.039 11.629 263.891 9.96301 263.743 8.29703C259.606 8.29703 255.469 8.29703 251.332 8.29703C250.937 8.297 250.542 8.297 250.147 8.297L250.147 8.297ZM43.716 15.079L12.848 15.079C12.66 15.079 12.497 15.209 12.455 15.392L11.321 20.357C11.264 20.609 11.455 20.849 11.714 20.849L43.213 20.849C43.215 20.807 43.208 20.767 43.216 20.725C43.263 20.452 43.311 20.178 43.358 19.904C43.609 18.452 43.861 17.0009 44.112 15.549C44.155 15.304 43.966 15.079 43.716 15.079L43.716 15.079ZM254.423 22.384C254.418 22.356 254.424 22.33 254.422 22.302L234.255 22.302L235.281 28.622C241.999 28.622 248.718 28.622 255.436 28.622C255.098 26.543 254.761 24.464 254.423 22.384L254.423 22.384ZM28.597 39.648L27.371 45.813C27.295 46.195 27.587 46.551 27.976 46.551L48.332 46.551C48.629 46.551 48.883 46.34 48.938 46.048L50.102 39.883C50.174 39.503 49.882 39.151 49.495 39.151L29.203 39.151C28.908 39.151 28.655 39.359 28.597 39.648L28.597 39.648ZM51.65 39.808L50.451 45.556C50.344 46.069 50.735 46.55 51.259 46.55L71.594 46.55C72.008 46.55 72.358 46.244 72.412 45.834L73.181 40.086C73.247 39.591 72.862 39.151 72.363 39.151L52.458 39.151C52.067 39.151 51.729 39.425 51.65 39.808L51.65 39.808ZM74.679 39.783L73.925 45.738C73.87 46.169 74.207 46.551 74.641 46.551L85.74 46.551C86.112 46.551 86.423 46.268 86.459 45.8979L87.031 39.943C87.072 39.519 86.738 39.152 86.312 39.152L75.394 39.152C75.032 39.151 74.724 39.422 74.679 39.783L74.679 39.783ZM27.994 30.603L26.385 36.819C26.27 37.264 26.606 37.699 27.066 37.699L53.519 37.699C53.862 37.699 54.155 37.452 54.212 37.114C54.549 35.126 54.89 33.139 55.356 31.151C55.478 30.388 55.105 30.076 54.516 30.076L28.676 30.076C28.354 30.076 28.074 30.292 27.994 30.603L27.994 30.603ZM100.847 39.151L89.873 39.151C89.291 39.151 88.805 39.592 88.747 40.171L88.24 45.308C88.174 45.973 88.697 46.55 89.365 46.55L100.916 46.55C101.547 46.55 102.056 46.034 102.047 45.403L101.976 40.266C101.97 39.648 101.466 39.151 100.847 39.151L100.847 39.151ZM219.729 30.076L201.257 30.076C200.908 30.076 200.636 30.379 200.674 30.725L201.369 37.175C201.401 37.473 201.652 37.699 201.952 37.699L220.424 37.699C220.773 37.699 221.045 37.396 221.007 37.05L220.312 30.6C220.281 30.301 220.029 30.076 219.729 30.076L219.729 30.076ZM35.144 8.297C35.119 8.44199 35.094 8.58701 35.069 8.733C34.787 10.364 34.504 11.995 34.222 13.626C41.284 13.626 48.347 13.626 55.409 13.626C55.422 13.483 55.435 13.34 55.447 13.197C55.594 11.563 55.74 9.93002 55.887 8.29703C48.973 8.297 42.059 8.297 35.144 8.297L35.144 8.297ZM8.98299 30.606L7.55399 36.864C7.45699 37.291 7.78099 37.698 8.21898 37.698L24.127 37.698C24.438 37.698 24.71 37.488 24.787 37.187L26.407 30.929C26.519 30.497 26.193 30.076 25.746 30.076L9.64598 30.076C9.32999 30.076 9.05399 30.296 8.98299 30.606L8.98299 30.606ZM83.278 1.52499C83.099 3.298 82.92 5.07098 82.741 6.84399C89.475 6.84399 96.21 6.84399 102.944 6.84399C102.958 6.703 102.973 6.56198 102.987 6.42099C103.179 4.522 103.37 2.62299 103.562 0.723999L83.361 0.703003C83.333 0.97699 83.305 1.25098 83.278 1.52499L83.278 1.52499ZM13.145 13.626L32.562 13.626C32.647 13.555 32.702 13.508 32.787 13.437C33.068 11.813 33.349 10.188 33.631 8.564C33.655 8.42499 33.548 8.297 33.406 8.297L14.258 8.297C14.152 8.297 14.059 8.371 14.036 8.474L12.924 13.347C12.89 13.49 12.999 13.626 13.145 13.626L13.145 13.626ZM10.728 22.962L9.672 27.587C9.55099 28.118 9.95399 28.624 10.499 28.624L46.081 28.624C46.494 28.624 46.847 28.327 46.917 27.92L47.713 23.295C47.802 22.7769 47.403 22.3029 46.877 22.3029L11.554 22.3029C11.159 22.302 10.816 22.576 10.728 22.962L10.728 22.962ZM61.255 1.50699C61.111 3.28598 60.966 5.065 60.822 6.84399C67.644 6.84399 74.466 6.84399 81.288 6.84399C81.302 6.703 81.317 6.56198 81.331 6.42099C81.523 4.51498 81.716 2.608 81.908 0.701996L61.322 0.681C61.3 0.955994 61.277 1.23199 61.255 1.50699L61.255 1.50699ZM220.048 8.297C220.057 8.39999 220.066 8.50198 220.075 8.60501C220.224 10.279 220.373 11.952 220.522 13.626C225.054 13.626 229.586 13.626 234.118 13.626C234.108 13.516 234.098 13.405 234.088 13.295C233.94 11.629 233.792 9.96301 233.644 8.29703C229.113 8.297 224.581 8.297 220.048 8.297L220.048 8.297ZM7.15599 39.61L5.73698 45.828C5.65298 46.198 5.93399 46.55 6.31299 46.55L25.522 46.55C25.805 46.55 26.048 46.3499 26.102 46.072L27.311 39.854C27.382 39.489 27.103 39.151 26.731 39.151L7.73199 39.151C7.457 39.151 7.21799 39.342 7.15599 39.61L7.15599 39.61ZM15.742 0.997986L14.538 6.27399C14.471 6.56598 14.693 6.845 14.993 6.845L35.669 6.845C35.686 6.74899 35.702 6.65399 35.719 6.55801C36.047 4.664 36.375 2.77002 36.703 0.876007C36.717 0.792999 36.758 0.722015 36.805 0.657013L16.199 0.636017C15.98 0.633972 15.791 0.784973 15.742 0.997986L15.742 0.997986ZM262.254 30.076C261.805 30.076 261.357 30.076 260.908 30.076L244.303 30.076C243.951 30.076 243.679 30.383 243.721 30.732L244.49 37.182C244.525 37.477 244.775 37.699 245.072 37.699L262.502 37.699C262.854 37.699 263.126 37.392 263.084 37.043L262.254 30.076L262.254 30.076ZM329.769 39.15L316.955 39.089C316.682 39.088 316.465 39.32 316.486 39.593L316.975 46.006C316.993 46.249 317.195 46.437 317.438 46.438L331.649 46.546C331.962 46.548 332.19 46.248 332.102 45.947L330.216 39.487C330.158 39.288 329.976 39.151 329.769 39.15L329.769 39.15ZM249.038 39.151L236.173 39.151C235.626 39.151 235.199 39.626 235.258 40.17L235.857 45.729C235.907 46.196 236.302 46.551 236.772 46.551L249.613 46.551C250.159 46.551 250.585 46.079 250.528 45.5359L249.953 39.977C249.905 39.508 249.509 39.151 249.038 39.151L249.038 39.151ZM292.837 39.151L271.267 39.151C270.936 39.151 270.678 39.437 270.711 39.766L271.346 46.048C271.375 46.333 271.615 46.551 271.902 46.551L293.362 46.551C293.689 46.551 293.946 46.271 293.919 45.946L293.394 39.6639C293.37 39.374 293.128 39.151 292.837 39.151L292.837 39.151ZM315.581 30.076L301.6 30.076C301.249 30.076 300.976 30.383 301.018 30.732L301.787 37.182C301.822 37.477 302.072 37.699 302.369 37.699L316.35 37.699C316.702 37.699 316.974 37.392 316.932 37.043L316.163 30.593C316.129 30.298 315.878 30.076 315.581 30.076L315.581 30.076ZM327.029 30.076L318.206 30.076C317.854 30.076 317.582 30.384 317.624 30.733L318.403 37.183C318.438 37.478 318.688 37.699 318.985 37.699L328.913 37.699C329.304 37.699 329.586 37.323 329.476 36.948L327.593 30.498C327.519 30.248 327.289 30.076 327.029 30.076L327.029 30.076ZM307.673 1.65298C307.764 3.383 307.856 5.11398 307.947 6.84399C312.193 6.84399 316.439 6.84399 320.685 6.84399L318.963 0.945984L307.635 0.93399C307.648 1.17398 307.661 1.41397 307.673 1.65298L307.673 1.65298ZM232.653 39.151L218.015 39.151C217.334 39.151 216.799 39.735 216.858 40.414L217.305 45.491C217.358 46.091 217.86 46.55 218.462 46.55L233.2 46.55C233.891 46.55 234.428 45.951 234.354 45.265L233.807 40.188C233.744 39.598 233.246 39.151 232.653 39.151L232.653 39.151ZM126.786 30.824L126.557 36.89C126.54 37.331 126.893 37.698 127.335 37.698L146.367 37.698C146.785 37.698 147.129 37.367 147.145 36.949L147.374 30.883C147.391 30.442 147.038 30.075 146.596 30.075L127.563 30.075C127.145 30.076 126.801 30.406 126.786 30.824L126.786 30.824ZM49.326 22.302L48.257 28.622L69.544 28.622L70.582 22.302C63.497 22.302 56.412 22.302 49.326 22.302L49.326 22.302ZM104.743 30.824L104.514 36.89C104.497 37.331 104.85 37.698 105.292 37.698L124.324 37.698C124.742 37.698 125.086 37.367 125.102 36.949L125.331 30.883C125.348 30.442 124.995 30.075 124.553 30.075L105.521 30.075C105.102 30.076 104.759 30.406 104.743 30.824L104.743 30.824ZM169.536 30.076C162.643 30.076 155.749 30.076 148.856 30.076L148.568 37.699C155.831 37.699 163.094 37.699 170.357 37.699L169.536 30.076L169.536 30.076ZM210.673 22.302L188.915 22.302C188.547 22.302 188.27 22.636 188.339 22.998L189.313 28.145C189.365 28.422 189.607 28.623 189.889 28.623L202.029 28.623L211.509 28.623C211.87 28.623 212.146 28.299 212.088 27.943L211.252 22.796C211.206 22.511 210.961 22.302 210.673 22.302L210.673 22.302ZM127.163 8.60498C127.013 10.279 126.862 11.952 126.712 13.626C131.368 13.626 136.024 13.626 140.679 13.626C140.689 13.516 140.699 13.405 140.709 13.295C140.859 11.629 141.008 9.96298 141.158 8.297C136.502 8.297 131.846 8.297 127.191 8.297C127.182 8.39999 127.173 8.50198 127.163 8.60498L127.163 8.60498ZM204.411 8.60498C204.572 10.279 204.732 11.952 204.893 13.626C209.619 13.626 214.344 13.626 219.07 13.626C219.06 13.516 219.05 13.405 219.041 13.295C218.893 11.629 218.745 9.96298 218.596 8.297C213.858 8.297 209.12 8.297 204.382 8.297C204.391 8.39999 204.401 8.50198 204.411 8.60498L204.411 8.60498ZM173.594 8.59598C173.807 10.273 174.019 11.95 174.232 13.626C178.999 13.626 183.766 13.626 188.533 13.626C188.524 13.579 188.516 13.532 188.507 13.486C188.186 11.756 187.864 10.0269 187.543 8.29697C182.881 8.29697 178.219 8.29697 173.557 8.29697C173.568 8.396 173.581 8.49597 173.594 8.59598L173.594 8.59598ZM111.771 8.297C111.762 8.39999 111.753 8.50198 111.743 8.60501C111.593 10.279 111.442 11.952 111.292 13.626C115.948 13.626 120.604 13.626 125.259 13.626C125.269 13.516 125.279 13.405 125.289 13.295C125.439 11.629 125.588 9.96301 125.738 8.29703C123.101 8.29703 120.463 8.29703 117.826 8.29703C115.808 8.297 113.789 8.297 111.771 8.297L111.771 8.297ZM274.488 22.302L256.563 22.302C256.202 22.302 255.926 22.626 255.984 22.983L256.82 28.13C256.866 28.414 257.111 28.623 257.399 28.623L275.324 28.623C275.685 28.623 275.961 28.299 275.903 27.943L275.067 22.796C275.021 22.511 274.776 22.302 274.488 22.302L274.488 22.302ZM126.589 1.52499C126.41 3.298 126.231 5.07098 126.052 6.84399C133.103 6.84399 140.154 6.84399 147.205 6.84399C147.205 6.707 147.205 6.57001 147.205 6.43399C147.205 4.54599 147.205 2.65799 147.205 0.769989L126.667 0.748993C126.642 1.00699 126.616 1.26599 126.589 1.52499L126.589 1.52499ZM220.608 1.65298C220.699 3.383 220.791 5.11398 220.882 6.84399C228.265 6.84399 235.649 6.84399 243.032 6.84399C243.03 6.802 243.028 6.75998 243.025 6.71899C242.922 4.76898 242.819 2.81799 242.716 0.867981L220.565 0.844971C220.58 1.11398 220.594 1.38397 220.608 1.65298L220.608 1.65298ZM170.391 0.800995C170.406 1.08499 170.421 1.36899 170.436 1.65298C170.527 3.383 170.619 5.11398 170.71 6.84399C177.958 6.84399 185.205 6.84399 192.453 6.84399C193.051 6.84399 193.649 6.84399 194.247 6.84399C193.896 4.83798 193.546 2.83301 193.195 0.826996C193.194 0.824005 193.195 0.820007 193.195 0.816986L170.389 0.793976C170.389 0.79599 170.39 0.798981 170.391 0.800995L170.391 0.800995ZM194.749 1.31598C195.071 3.15897 195.393 5.00098 195.715 6.84399C203.62 6.84399 211.525 6.84399 219.429 6.84399C219.427 6.802 219.425 6.75998 219.422 6.71899C219.319 4.76099 219.215 2.802 219.112 0.843994L194.661 0.819C194.69 0.983978 194.719 1.14999 194.749 1.31598L194.749 1.31598ZM148.659 0.770996C148.659 1.01801 148.659 1.26498 148.659 1.51199C148.659 3.289 148.659 5.06699 148.659 6.84399C155.525 6.84399 162.391 6.84399 169.257 6.84399C169.255 6.802 169.253 6.75998 169.25 6.71899C169.146 4.74701 169.042 2.77399 168.938 0.802002C168.938 0.799011 168.94 0.79599 168.94 0.791992L148.659 0.770996L148.659 0.770996ZM104.934 1.52499C104.755 3.298 104.576 5.07098 104.397 6.84399C111.131 6.84399 117.866 6.84399 124.6 6.84399C124.614 6.703 124.629 6.56198 124.643 6.42099C124.834 4.52899 125.025 2.638 125.216 0.746979L105.015 0.725983C104.987 0.991974 104.961 1.25897 104.934 1.52499L104.934 1.52499ZM301.587 22.302L290.621 22.302C290.26 22.302 289.984 22.626 290.042 22.983L290.878 28.13C290.924 28.414 291.169 28.623 291.457 28.623L302.423 28.623C302.784 28.623 303.06 28.299 303.002 27.943L302.167 22.796C302.12 22.511 301.875 22.302 301.587 22.302L301.587 22.302ZM310.37 8.60498C310.519 10.279 310.668 11.952 310.817 13.626C314.766 13.626 318.716 13.626 322.666 13.626L321.11 8.29697C317.521 8.29697 313.932 8.29697 310.343 8.29697C310.352 8.39999 310.361 8.50198 310.37 8.60498L310.37 8.60498ZM295.294 8.297C295.303 8.39999 295.312 8.50198 295.321 8.60501C295.47 10.279 295.619 11.952 295.768 13.626C300.3 13.626 304.832 13.626 309.364 13.626C309.354 13.516 309.344 13.405 309.335 13.295C309.187 11.629 309.039 9.96301 308.89 8.29703C304.358 8.297 299.826 8.297 295.294 8.297L295.294 8.297ZM265.365 1.65298C265.456 3.383 265.548 5.11398 265.639 6.84399C272.206 6.84399 278.773 6.84399 285.34 6.84399C285.338 6.802 285.336 6.75998 285.333 6.71899C285.231 4.78299 285.129 2.84799 285.026 0.911987L265.324 0.891998C265.338 1.14499 265.351 1.39899 265.365 1.65298L265.365 1.65298ZM244.211 1.65298C244.302 3.383 244.394 5.11398 244.485 6.84399C251.052 6.84399 257.619 6.84399 264.186 6.84399C264.184 6.802 264.182 6.75998 264.179 6.71899C264.076 4.776 263.974 2.83301 263.871 0.889984L244.169 0.869995C244.183 1.13098 244.197 1.392 244.211 1.65298L244.211 1.65298Z" id="Group" fill="#FC4850" stroke="none" />
      </g>
    </g>
    <g id="Screen" transform="translate(165.484 114.168)" clip-path="url(#clip_1)">
      <g id="Group">
        <path d="M2.43901 0C6.05202 2.037 135.531 8.984 202.491 9.269C319.654 9.767 402.149 0 402.149 0L402.149 227.081C402.149 227.081 290.611 221.254 202.491 220.808C110.015 220.341 2.43898 227.081 2.43898 227.081L2.43898 0L2.43901 0Z" id="Shape" fill="#FC4850" stroke="none" />
        <path d="M167.51 220.943C167.51 220.943 151.617 255.323 151.617 255.323C151.617 255.323 255.736 255.323 255.736 255.323C255.736 255.323 235.442 220.943 235.442 220.943C235.442 220.943 167.51 220.943 167.51 220.943Z" id="Polygon" fill="#455A64" fill-rule="evenodd" stroke="none" />
        <path d="M2.43901 227.081L2.43901 216.021C2.43901 216.021 225.066 205.612 402.148 216.021L402.148 228.414C402.148 228.414 245.777 216.021 2.43901 227.081L2.43901 227.081Z" id="Shape" fill="#455A64" stroke="none" />
        <path d="M166.826 222.423C166.826 222.423 163.529 229.554 163.529 229.554C163.529 229.554 240.413 229.554 240.413 229.554C240.413 229.554 236.316 222.423 236.316 222.423C236.316 222.423 166.826 222.423 166.826 222.423Z" id="Polygon" fill="#000000" fill-opacity="0.3" fill-rule="evenodd" stroke="none" />
        <path d="M310.181 6.904C310.181 6.904 223.565 154.186 2.438 127.729L2.438 216.022C2.438 216.022 155.224 136.994 223.709 111.463C372.442 56.016 402.147 67.931 402.147 67.931L402.147 1.52588e-05L310.181 6.904L310.181 6.904Z" id="Shape" fill="#FFFFFF" fill-opacity="0.1" stroke="none" />
        <path d="M334.508 256.184L81.403 256.184L81.403 256.184C81.403 250.661 85.88 246.184 91.403 246.184L324.508 246.184C330.031 246.184 334.508 250.661 334.508 256.184L334.508 256.184L334.508 256.184Z" id="Shape" fill="#455A64" stroke="none" />
        <path d="M270.437 246.394C270.437 246.538 237.057 246.654 195.89 246.654C154.708 246.654 121.335 246.537 121.335 246.394C121.335 246.251 154.708 246.134 195.89 246.134C237.056 246.134 270.437 246.25 270.437 246.394L270.437 246.394Z" id="Group" fill="#263238" stroke="none" />
        <path d="M7.72 152.946C7.576 152.946 7.46001 120.888 7.46001 81.351C7.46001 41.801 7.57701 9.75002 7.72 9.75002C7.864 9.75002 7.98 41.801 7.98 81.351C7.981 120.888 7.86401 152.946 7.72 152.946L7.72 152.946Z" id="Group" fill="#FFFFFF" stroke="none" />
        <path d="M0 227.016C0 227.016 0.348999 226.984 1.03 226.948C1.724 226.914 2.735 226.864 4.056 226.799C6.729 226.679 10.65 226.504 15.696 226.278C20.755 226.061 26.938 225.795 34.116 225.487C37.707 225.338 41.546 225.179 45.617 225.011C49.69 224.879 53.995 224.74 58.516 224.594C94.677 223.273 144.661 222.205 199.872 222.166C255.102 222.213 305.091 223.443 341.243 224.992C359.321 225.744 373.939 226.579 384.038 227.2C389.077 227.549 392.992 227.82 395.661 228.005C396.98 228.11 397.989 228.19 398.681 228.246C399.361 228.306 399.708 228.35 399.708 228.35C399.708 228.35 399.358 228.342 398.677 228.299C397.984 228.256 396.974 228.193 395.653 228.11C392.983 227.948 389.066 227.709 384.025 227.403C373.924 226.845 359.305 226.066 341.227 225.361C305.075 223.907 255.094 222.735 199.871 222.688C144.668 222.726 94.6881 223.736 58.5271 224.963C54.0061 225.096 49.701 225.223 45.6281 225.343C41.5571 225.497 37.7171 225.643 34.1261 225.779C26.9481 226.053 20.763 226.289 15.7041 226.482C10.6561 226.665 6.73406 226.808 4.06006 226.905C2.73706 226.947 1.72606 226.98 1.03105 227.002C0.350006 227.019 0 227.016 0 227.016L0 227.016Z" id="Group" fill="#686868" stroke="none" />
        <path d="M243.758 245.466C243.758 245.61 224.463 245.726 200.668 245.726C176.864 245.726 157.573 245.61 157.573 245.466C157.573 245.322 176.864 245.206 200.668 245.206C224.463 245.206 243.758 245.322 243.758 245.466L243.758 245.466Z" id="Group" fill="#686868" stroke="none" />
      </g>
    </g>
    <g id="WELCOME--------TO-SAGE-CAFE" transform="translate(196.5 166)" clip-path="url(#clip_1)">
      <g transform="translate(0, 16.0625)" fill="#D3D3D3" stroke="none" id="WELCOME">
        <path d="M63.75 24.25L51.9063 69.0625L40.7188 69.0625L33.2813 40.3125Q32.6875 38.0625 32.5625 35.2813L32.4375 35.2813Q32.1563 38.3438 31.625 40.3125L24 69.0625L12.3438 69.0625L0.5625 24.25L11.5938 24.25L17.9063 54.0938Q18.3125 56 18.5 59.2188L18.6875 59.2188Q18.8125 56.8125 19.5938 53.9688L27.7188 24.25L38.5313 24.25L45.875 54.3438Q46.2813 56 46.5938 59.1563L46.7188 59.1563Q46.8438 56.6875 47.375 54.1563L53.5625 24.25L63.75 24.25ZM96.3125 69.0625L69.4375 69.0625L69.4375 24.25L95.2813 24.25L95.2813 32.4688L79.5313 32.4688L79.5313 42.4375L94.1875 42.4375L94.1875 50.625L79.5313 50.625L79.5313 60.875L96.3125 60.875L96.3125 69.0625ZM130.188 69.0625L103.5 69.0625L103.5 24.25L113.594 24.25L113.594 60.875L130.188 60.875L130.188 69.0625ZM166.75 67.4688Q161.844 69.8438 153.938 69.8438Q143.625 69.8438 137.719 63.7813Q131.813 57.7188 131.813 47.625Q131.813 36.875 138.453 30.1875Q145.094 23.5 155.688 23.5Q162.25 23.5 166.75 25.1563L166.75 34.875Q162.25 32.1875 156.5 32.1875Q150.188 32.1875 146.313 36.1563Q142.438 40.125 142.438 46.9063Q142.438 53.4063 146.094 57.2656Q149.75 61.125 155.938 61.125Q161.844 61.125 166.75 58.25L166.75 67.4688ZM192.719 69.8438Q183.094 69.8438 177.031 63.5781Q170.969 57.3125 170.969 47.25Q170.969 36.625 177.125 30.0625Q183.281 23.5 193.438 23.5Q203.031 23.5 208.953 29.7813Q214.875 36.0625 214.875 46.3438Q214.875 56.9063 208.734 63.375Q202.594 69.8438 192.719 69.8438ZM193.156 32.1875Q187.844 32.1875 184.719 36.1719Q181.594 40.1563 181.594 46.7188Q181.594 53.375 184.719 57.25Q187.844 61.125 192.906 61.125Q198.125 61.125 201.188 57.3594Q204.25 53.5938 204.25 46.9063Q204.25 39.9375 201.281 36.0625Q198.313 32.1875 193.156 32.1875ZM273.375 69.0625L263.406 69.0625L263.406 42.25Q263.406 37.9063 263.781 32.6563L263.531 32.6563Q262.75 36.7813 262.125 38.5938L251.625 69.0625L243.375 69.0625L232.688 38.9063Q232.25 37.6875 231.281 32.6563L231 32.6563Q231.406 39.2813 231.406 44.2813L231.406 69.0625L222.313 69.0625L222.313 24.25L237.094 24.25L246.25 50.8125Q247.344 54 247.844 57.2188L248.031 57.2188Q248.875 53.5 249.813 50.75L258.969 24.25L273.375 24.25L273.375 69.0625ZM310.438 69.0625L283.563 69.0625L283.563 24.25L309.406 24.25L309.406 32.4688L293.656 32.4688L293.656 42.4375L308.313 42.4375L308.313 50.625L293.656 50.625L293.656 60.875L310.438 60.875L310.438 69.0625Z" />
      </g>
      <g transform="translate(0, 101.1875)" fill="#D3D3D3" stroke="none" id="-------TO">
        <path d="M160.188 32.4688L147.406 32.4688L147.406 69.0625L137.281 69.0625L137.281 32.4688L124.563 32.4688L124.563 24.25L160.188 24.25L160.188 32.4688ZM182.781 69.8438Q173.156 69.8438 167.094 63.5781Q161.031 57.3125 161.031 47.25Q161.031 36.625 167.188 30.0625Q173.344 23.5 183.5 23.5Q193.094 23.5 199.016 29.7813Q204.938 36.0625 204.938 46.3438Q204.938 56.9063 198.797 63.375Q192.656 69.8438 182.781 69.8438ZM183.219 32.1875Q177.906 32.1875 174.781 36.1719Q171.656 40.1563 171.656 46.7188Q171.656 53.375 174.781 57.25Q177.906 61.125 182.969 61.125Q188.188 61.125 191.25 57.3594Q194.313 53.5938 194.313 46.9063Q194.313 39.9375 191.344 36.0625Q188.375 32.1875 183.219 32.1875Z" />
      </g>
      <g transform="translate(0, 186.3125)" fill="#D3D3D3" stroke="none" id="SAGE-CAFE">
        <path d="M3.0625 67.3438L3.0625 57.3438Q5.78125 59.625 8.96875 60.7656Q12.1563 61.9063 15.4063 61.9063Q17.3125 61.9063 18.7344 61.5625Q20.1563 61.2188 21.1094 60.6094Q22.0625 60 22.5313 59.1719Q23 58.3438 23 57.375Q23 56.0625 22.25 55.0313Q21.5 54 20.2031 53.125Q18.9063 52.25 17.125 51.4375Q15.3438 50.625 13.2813 49.7813Q8.03125 47.5938 5.45313 44.4375Q2.875 41.2813 2.875 36.8125Q2.875 33.3125 4.28125 30.7969Q5.6875 28.2813 8.10938 26.6563Q10.5313 25.0313 13.7188 24.2656Q16.9063 23.5 20.4688 23.5Q23.9687 23.5 26.6719 23.9219Q29.375 24.3438 31.6563 25.2188L31.6563 34.5625Q30.5313 33.7813 29.2031 33.1875Q27.875 32.5938 26.4688 32.2031Q25.0625 31.8125 23.6719 31.625Q22.2813 31.4375 21.0313 31.4375Q19.3125 31.4375 17.9063 31.7656Q16.5 32.0938 15.5313 32.6875Q14.5625 33.2813 14.0313 34.1094Q13.5 34.9375 13.5 35.9688Q13.5 37.0938 14.0938 37.9844Q14.6875 38.875 15.7813 39.6719Q16.875 40.4688 18.4375 41.2344Q20 42 21.9688 42.8125Q24.6562 43.9375 26.7969 45.2031Q28.9375 46.4688 30.4688 48.0625Q32 49.6563 32.8125 51.7031Q33.625 53.75 33.625 56.4688Q33.625 60.2188 32.2031 62.7656Q30.7812 65.3125 28.3438 66.8906Q25.9063 68.4688 22.6719 69.1563Q19.4375 69.8438 15.8438 69.8438Q12.1562 69.8438 8.82813 69.2188Q5.5 68.5938 3.0625 67.3438ZM80.4063 69.0625L69.4063 69.0625L66.2188 59.0938L50.2813 59.0938L47.125 69.0625L36.1875 69.0625L52.5 24.25L64.4688 24.25L80.4063 69.0625ZM63.9063 51.3438L59.0938 36.2813Q58.5625 34.5938 58.3438 32.25L58.0938 32.25Q57.9375 34.2188 57.3125 36.1563L52.4375 51.3438L63.9063 51.3438ZM122.156 66.0625Q115.594 69.8438 105.844 69.8438Q95.0313 69.8438 88.7969 63.8594Q82.5625 57.875 82.5625 47.375Q82.5625 36.8125 89.375 30.1563Q96.1875 23.5 107.5 23.5Q114.625 23.5 120.063 25.4688L120.063 34.9375Q114.875 31.9375 107.375 31.9375Q101.094 31.9375 97.1406 36.0156Q93.1875 40.0938 93.1875 46.9063Q93.1875 53.8125 96.7344 57.5938Q100.281 61.375 106.313 61.375Q109.938 61.375 112.063 60.3438L112.063 51.5938L103.094 51.5938L103.094 43.5313L122.156 43.5313L122.156 66.0625ZM157.75 69.0625L130.875 69.0625L130.875 24.25L156.719 24.25L156.719 32.4688L140.969 32.4688L140.969 42.4375L155.625 42.4375L155.625 50.625L140.969 50.625L140.969 60.875L157.75 60.875L157.75 69.0625ZM214.719 67.4688Q209.813 69.8438 201.906 69.8438Q191.594 69.8438 185.688 63.7813Q179.781 57.7188 179.781 47.625Q179.781 36.875 186.422 30.1875Q193.063 23.5 203.656 23.5Q210.219 23.5 214.719 25.1563L214.719 34.875Q210.219 32.1875 204.469 32.1875Q198.156 32.1875 194.281 36.1563Q190.406 40.125 190.406 46.9063Q190.406 53.4063 194.063 57.2656Q197.719 61.125 203.906 61.125Q209.813 61.125 214.719 58.25L214.719 67.4688ZM261.938 69.0625L250.938 69.0625L247.75 59.0938L231.813 59.0938L228.656 69.0625L217.719 69.0625L234.031 24.25L246 24.25L261.938 69.0625ZM245.438 51.3438L240.625 36.2813Q240.094 34.5938 239.875 32.25L239.625 32.25Q239.469 34.2188 238.844 36.1563L233.969 51.3438L245.438 51.3438ZM293.438 32.4688L277.625 32.4688L277.625 43.4688L292.156 43.4688L292.156 51.6563L277.625 51.6563L277.625 69.0625L267.531 69.0625L267.531 24.25L293.438 24.25L293.438 32.4688ZM327.688 69.0625L300.813 69.0625L300.813 24.25L326.656 24.25L326.656 32.4688L310.906 32.4688L310.906 42.4375L325.563 42.4375L325.563 50.625L310.906 50.625L310.906 60.875L327.688 60.875L327.688 69.0625Z" />
      </g>
    </g>
  </g>
</svg>